<?xml version="1.0" encoding="UTF-8" standalone="no"?>
<!-- Created with Inkscape (http://www.inkscape.org/) -->

<svg
   xmlns:dc="http://purl.org/dc/elements/1.1/"
   xmlns:cc="http://creativecommons.org/ns#"
   xmlns:rdf="http://www.w3.org/1999/02/22-rdf-syntax-ns#"
   xmlns:svg="http://www.w3.org/2000/svg"
   xmlns="http://www.w3.org/2000/svg"
   xmlns:sodipodi="http://sodipodi.sourceforge.net/DTD/sodipodi-0.dtd"
   xmlns:inkscape="http://www.inkscape.org/namespaces/inkscape"
   width="210mm"
   height="297mm"
   viewBox="0 0 744.09448819 1052.3622047"
   id="svg2"
   version="1.1"
   inkscape:version="0.91 r13725"
   sodipodi:docname="makerman.svg">
  <defs
     id="defs4" />
  <sodipodi:namedview
     id="base"
     pagecolor="#ffffff"
     bordercolor="#666666"
     borderopacity="1.0"
     inkscape:pageopacity="0.0"
     inkscape:pageshadow="2"
     inkscape:zoom="0.49497475"
     inkscape:cx="57.219129"
     inkscape:cy="517.48577"
     inkscape:document-units="px"
     inkscape:current-layer="layer4"
     showgrid="false"
     inkscape:window-width="1440"
     inkscape:window-height="810"
     inkscape:window-x="0"
     inkscape:window-y="1"
     inkscape:window-maximized="1" />
  <metadata
     id="metadata7">
    <rdf:RDF>
      <cc:Work
         rdf:about="">
        <dc:format>image/svg+xml</dc:format>
        <dc:type
           rdf:resource="http://purl.org/dc/dcmitype/StillImage" />
        <dc:title></dc:title>
      </cc:Work>
    </rdf:RDF>
  </metadata>
  <g
     inkscape:label="Layer 1"
     inkscape:groupmode="layer"
     id="layer1"
     style="display:inline" />
  <g
     inkscape:groupmode="layer"
     id="layer3"
     inkscape:label="Schwarz" />
  <g
     inkscape:groupmode="layer"
     id="layer2"
     inkscape:label="Blau" />
  <g
     inkscape:groupmode="layer"
     id="layer4"
     inkscape:label="HellBlau">
    <g
       id="g3493"
       transform="translate(-103.03556,-438.4062)">
      <path
         inkscape:connector-curvature="0"
         id="path3465"
         d="m 552.88103,773.44519 c -2.31515,-0.24498 -2.21431,-0.0962 -3.037,-4.48105 -0.15664,-0.83482 -0.88863,-3.99697 -1.62666,-7.02699 -0.73804,-3.03002 -1.29148,-5.55954 -1.22988,-5.62114 0.56922,-0.56921 10.23701,-0.1764 12.82774,0.52122 3.483,0.93787 5.09503,3.46057 3.81963,5.97744 -0.42379,0.83632 -0.5541,1.30404 -0.50654,1.8182 0.0113,0.12227 0.38437,0.39331 0.82902,0.60232 2.57473,1.21026 3.47181,5.06354 1.57961,6.78501 -0.28218,0.25673 -0.78818,0.55875 -1.12444,0.67117 -1.69188,0.56562 -8.87339,1.03508 -11.53148,0.75382 z m 6.60236,-3.58264 c 0.94533,-0.21917 1.1655,-0.57563 1.1655,-1.887 0,-0.83579 -0.0778,-1.16932 -0.32492,-1.39296 -0.42724,-0.38664 -1.89465,-0.65416 -3.58829,-0.65416 -1.75886,0 -2.15822,0.24696 -2.15822,1.33461 0,0.91211 0.54725,2.3011 1.01343,2.57218 0.40128,0.23335 2.92741,0.25109 3.8925,0.0273 z m -1.79853,-7.04026 c 1.1898,-0.49713 1.51752,-1.6419 0.73595,-2.57075 -0.55,-0.65364 -2.52868,-1.32741 -3.98329,-1.35636 l -1.02078,-0.0203 -0.0608,0.625 c -0.0557,0.57251 0.28165,3.12322 0.45458,3.4375 0.13215,0.24017 3.24539,0.1477 3.8743,-0.11507 z"
         style="display:inline;fill:#90ccfe;fill-opacity:1" />
      <path
         inkscape:connector-curvature="0"
         id="path3467"
         d="m 552.16674,773.31148 c -0.19642,-0.0415 -0.54324,-0.11544 -0.77069,-0.16422 -0.55035,-0.11802 -0.84009,-0.85628 -1.38369,-3.52564 -0.24365,-1.19643 -1.00367,-4.56482 -1.68895,-7.4853 -0.68527,-2.92048 -1.24595,-5.42227 -1.24595,-5.55953 0,-0.13726 0.1808,-0.29802 0.40178,-0.35724 0.64098,-0.17178 4.56922,-0.12943 7.4219,0.08 4.88341,0.35853 6.65601,0.88432 8.0388,2.38447 1.17971,1.27983 1.3369,2.49976 0.55664,4.32003 -0.57282,1.33632 -0.48666,1.68878 0.58599,2.3971 1.85199,1.22298 2.72772,3.12778 2.28548,4.97122 -0.34475,1.4371 -1.26748,2.17186 -3.13746,2.49837 -2.60862,0.45547 -9.66492,0.73656 -11.06385,0.44074 z m 7.56641,-3.47326 c 0.73882,-0.25756 0.91574,-0.62581 0.91574,-1.90609 0,-0.78181 -0.0817,-1.12944 -0.31514,-1.34069 -0.45873,-0.41515 -1.70443,-0.65367 -3.43977,-0.65865 -1.96061,-0.006 -2.31812,0.20922 -2.3126,1.38969 0.004,0.951 0.51503,2.2254 1.00591,2.51073 0.43473,0.25269 3.42499,0.25631 4.14586,0.005 z m -2.04829,-7.01593 c 1.22251,-0.5108 1.54535,-1.73287 0.68505,-2.59317 -0.65714,-0.65714 -2.26069,-1.2363 -3.82572,-1.38175 l -1.27432,-0.11844 0.11137,1.69549 c 0.0613,0.93251 0.19276,1.90954 0.29223,2.17117 0.17751,0.46688 0.21082,0.4757 1.79816,0.4757 0.97918,0 1.85243,-0.0983 2.21323,-0.249 z"
         style="display:inline;fill:#90ccfe;fill-opacity:1" />
      <path
         inkscape:connector-curvature="0"
         id="path3469"
         d="m 527.68188,773.85736 c 0.21905,-1.04137 0.82808,-5.49514 1.25932,-9.2093 0.24323,-2.0949 0.5815,-4.87365 0.75171,-6.17499 l 0.30946,-2.36607 2.60004,10e-4 c 3.95727,0.002 4.21845,0.13097 6.21866,3.08241 1.47937,2.18289 5.60473,8.87251 7.36855,11.94871 l 1.26144,2.20002 -0.4993,0.1128 c -0.8294,0.18738 -3.01407,0.16727 -3.96415,-0.0365 -0.57553,-0.12343 -1.0721,-0.37459 -1.39639,-0.70628 -0.69076,-0.70653 -1.53962,-1.02522 -3.09975,-1.16374 -2.48505,-0.22065 -5.52115,0.507 -5.52115,1.32323 0,0.78268 -1.09078,1.18758 -3.72551,1.38294 l -1.67194,0.12396 0.10901,-0.51821 z m 8.78816,-6.4329 c 0.97247,-0.35575 1.82596,-0.69885 1.89664,-0.76244 0.17036,-0.15326 -2.25871,-4.61441 -2.85451,-5.24252 -0.60925,-0.64228 -0.89919,-0.61969 -1.19709,0.0933 -0.35961,0.86067 -0.80905,3.41043 -0.80905,4.58988 0,1.05386 0.44983,1.96865 0.96804,1.96865 0.12531,0 1.0235,-0.29108 1.99597,-0.64683 z"
         style="display:inline;fill:#90ccfe;fill-opacity:1" />
      <path
         inkscape:connector-curvature="0"
         id="path3471"
         d="m 527.67993,774.04773 c 0.1472,-0.38358 0.90787,-5.97419 1.68785,-12.40502 l 0.66059,-5.44642 2.67633,0.013 c 3.22243,0.0156 3.73551,0.15871 4.79492,1.33703 0.8876,0.98722 3.64795,5.26571 6.848,10.61427 2.63016,4.39604 2.99798,5.05924 2.87442,5.1828 -0.0536,0.0536 -0.99235,0.0983 -2.08606,0.0993 -2.11998,0.002 -2.75789,-0.17926 -4.09183,-1.16217 -1.86515,-1.37433 -7.74848,-0.887 -8.14034,0.67428 -0.14913,0.59421 -1.1717,0.97335 -3.20221,1.18729 -2.15411,0.22697 -2.14513,0.22738 -2.02167,-0.0944 z m 9.08503,-6.69186 c 0.97686,-0.35533 1.5625,-0.66465 1.5625,-0.82527 0,-0.53518 -2.09426,-4.32406 -2.8251,-5.1111 -0.2508,-0.27009 -0.55944,-0.49107 -0.68587,-0.49107 -0.36148,0 -0.7236,0.87434 -1.02908,2.48471 -0.35365,1.86431 -0.35802,3.2362 -0.0129,4.06215 0.24615,0.58913 0.31664,0.63448 0.84821,0.54574 0.31886,-0.0532 1.28287,-0.35256 2.14225,-0.66516 z"
         style="display:inline;fill:#90ccfe;fill-opacity:1" />
      <path
         inkscape:connector-curvature="0"
         id="path3473"
         d="m 509.88232,775.92564 c -0.25167,-0.19797 -0.54039,-0.61984 -0.6416,-0.9375 -0.34113,-1.07065 -0.89975,-4.20262 -1.272,-7.13161 -0.20342,-1.60063 -0.55903,-4.19596 -0.79024,-5.76739 -0.23121,-1.57143 -0.36862,-2.90829 -0.30535,-2.9708 0.22334,-0.22067 2.48454,-0.51134 3.9778,-0.51134 l 1.51208,0 0.21624,1.91964 c 0.11893,1.05581 0.61694,3.8884 1.10669,6.29465 0.48974,2.40625 0.89068,4.38708 0.89098,4.40186 3e-4,0.0148 2.11186,-0.0171 4.69236,-0.0708 l 4.69181,-0.0976 0.47852,0.4279 c 0.36517,0.32656 0.54187,0.74365 0.74601,1.76092 0.14712,0.73315 0.24488,1.35562 0.21724,1.38326 -0.0923,0.0923 -4.62236,0.75024 -8.3107,1.20711 -4.59915,0.56968 -6.57029,0.59475 -7.20984,0.0917 z"
         style="display:inline;fill:#90ccfe;fill-opacity:1" />
      <path
         inkscape:connector-curvature="0"
         id="path3417"
         d="m 455.53432,1020.9475 c -0.98606,-0.6245 -1.07621,-2.853 -0.50416,-12.4623 0.48614,-8.166 5.33704,-17.45324 12.99386,-24.87713 1.65573,-1.60536 3.01041,-3.23506 3.01041,-3.62157 0,-0.3865 2.39063,-1.08838 5.3125,-1.55972 l 5.3125,-0.857 0,-2.32883 c 0,-1.28085 0.20666,-3.83652 0.45924,-5.67928 l 0.45922,-3.35046 -4.17797,0.47629 c -2.29789,0.26196 -4.7358,0.63103 -5.41757,0.82016 -0.9417,0.26124 -1.23958,-0.0817 -1.23958,-1.42695 0,-1.98731 0.36012,-2.15357 7.16589,-3.30849 l 4.68674,-0.79532 0.80285,-4.86145 c 0.96035,-5.81513 1.02303,-8.97303 0.18834,-9.48889 -0.33799,-0.20889 -3.0754,0.091 -6.08315,0.66653 -3.00775,0.57547 -5.59996,1.04632 -5.76049,1.04632 -0.16052,0 -0.29185,-0.95018 -0.29185,-2.11151 0,-1.72779 0.35398,-2.18905 1.94792,-2.53821 1.07135,-0.23469 3.35938,-0.87827 5.08451,-1.43016 1.72513,-0.5519 3.69851,-1.00346 4.38528,-1.00346 1.74616,0 2.00502,-0.65356 2.43305,-6.14264 0.20742,-2.66008 0.51432,-5.49599 0.68199,-6.30201 0.29986,-1.4415 0.21532,-1.45081 -5.16603,-0.56878 -8.49915,1.39305 -8.19147,1.47905 -7.77964,-2.17469 0.19506,-1.73055 0.8664,-3.65822 1.49189,-4.2837 0.62548,-0.62548 3.61515,-1.67989 6.64371,-2.34312 5.03561,-1.10277 5.51334,-1.35732 5.58656,-2.97672 0.0441,-0.97396 0.57586,-5.59584 1.18182,-10.27084 1.41826,-10.94166 2.50536,-27.40721 3.01643,-45.6875 0.22328,-7.98645 0.53441,-16.43541 0.69139,-18.77543 0.15698,-2.34004 -0.0155,-4.73066 -0.38338,-5.3125 -0.36785,-0.58185 -0.69737,-0.89852 -0.73229,-0.70373 -0.52554,2.93197 -0.83548,3.9387 -1.76739,5.74082 -1.44026,2.78517 -2.67213,3.17273 -5.8435,1.83844 -1.43998,-0.60584 -3.41503,-1.27017 -4.38899,-1.4763 -0.97395,-0.20612 -2.32409,-0.78705 -3.00029,-1.29095 -1.14852,-0.85587 -1.09024,-1.19087 0.88542,-5.08892 1.16318,-2.295 2.11487,-4.46315 2.11487,-4.81809 0,-0.35495 -0.9402,-0.97312 -2.08933,-1.37371 -2.85775,-0.99622 -5.0669,-5.60661 -4.53716,-9.46879 l 0.38863,-2.83334 -12.99565,-13.1929 c -12.89712,-13.09287 -15.57451,-15.97472 -17.57911,-18.92149 -0.57298,-0.8423 -1.44347,-1.53144 -1.93442,-1.53144 -1.48342,0 -1.75836,-2.99782 -0.58083,-6.33328 l 1.11055,-3.14578 -2.72422,-5.35422 c -1.49833,-2.94482 -5.64943,-11.0235 -9.22468,-17.95262 -3.57524,-6.92912 -6.50044,-13.25614 -6.50044,-14.06006 0,-1.81718 5.75292,-12.8051 8.55052,-16.33125 3.48714,-4.39527 3.14055,-4.40736 -7.3541,-0.25662 -4.37972,1.73223 -8.91094,3.32045 -10.06936,3.52937 -1.97672,0.35651 -9.36663,2.90084 -25.12706,8.6512 -6.37364,2.32548 -7.10342,2.43858 -13.8125,2.1406 -10.58648,-0.47019 -17.44835,-2.78957 -40.41808,-13.66172 -8.63826,-4.0887 -18.02389,-7.1506 -24.04026,-7.84272 -6.1026,-0.70204 -31.49267,-0.75073 -38.25,-0.0734 -9.91787,0.99419 -13.33658,1.93305 -29.04166,7.97555 -13.453,5.17601 -15.22545,5.98029 -23.28873,10.56755 -3.84838,2.18938 -7.21301,3.98069 -7.47697,3.98069 -0.26395,0 -1.57777,0.81998 -2.91961,1.82218 -4.44926,3.32309 -4.84618,3.40471 -3.93829,0.80987 2.2541,-6.44246 12.41134,-23.27792 19.96424,-33.09038 2.56971,-3.33847 16.26037,-17.07122 21.60357,-21.66997 2.22703,-1.91674 7.3341,-4.66276 10.93079,-5.87738 1.55833,-0.52624 6.33958,-2.32528 10.625,-3.99784 6.54566,-2.55473 21.38054,-6.45374 25.14583,-6.60902 0.58438,-0.0241 2.49688,-0.16753 4.25,-0.31874 12.58186,-1.08521 27.48486,-1.31469 35.77083,-0.55078 5.06459,0.46691 10.64271,0.96591 12.39584,1.1089 3.23644,0.26397 14.76657,2.19875 17.35416,2.91207 0.77917,0.2148 6.9948,2.13497 13.8125,4.26707 6.81771,2.1321 13.51146,4.21903 14.875,4.63764 1.36355,0.41861 3.43542,1.16443 4.60417,1.65738 6.97213,2.94068 9.98266,3.95195 16.85741,5.66253 4.20698,1.04678 8.08051,1.73768 8.60783,1.53533 0.52731,-0.20236 1.15579,-0.17089 1.39661,0.0699 0.53665,0.53666 0.99467,0.58936 14.28116,1.64317 8.61822,0.68354 11.5636,0.66878 15.22917,-0.0763 2.49946,-0.50808 6.93511,-0.99763 9.85699,-1.0879 2.92187,-0.0903 7.49666,-0.37796 10.16619,-0.63929 7.85779,-0.76926 8.60781,-1.50756 3.82339,-3.76366 -3.79897,-1.7914 -9.03125,-6.90985 -9.03125,-8.83476 0,-0.33101 -0.80528,-1.78024 -1.78951,-3.22051 -2.04995,-2.99976 -4.58549,-10.60561 -4.58549,-13.75505 0,-1.86853 -0.1976,-2.07912 -1.59375,-1.69845 -3.75919,1.02496 -8.99286,1.26967 -11.23817,0.52545 -1.31848,-0.43701 -3.76361,-1.98993 -5.43361,-3.45092 -3.70971,-3.24542 -7.23447,-11.24246 -7.23447,-16.41368 0,-7.25949 3.66552,-14.34433 8.44584,-16.3244 1.14255,-0.47326 2.2738,-1.37238 2.51389,-1.99804 0.46575,-1.21372 1.83815,-14.5043 1.52959,-14.81285 -0.10087,-0.10088 -2.70053,0.59322 -5.77702,1.54242 -3.07649,0.9492 -5.72477,1.59467 -5.88507,1.43438 -0.16029,-0.16029 -1.89084,0.51903 -3.84566,1.50962 -4.06462,2.0597 -4.03788,2.20193 -0.94957,-5.05213 2.76252,-6.48882 2.63189,-6.87816 -1.87575,-5.59052 -5.73777,1.63902 -12.29261,5.05288 -14.31365,7.45476 -2.12624,2.52689 -4.3283,2.36135 -3.55164,-0.267 2.60637,-8.82034 14.30881,-27.00526 23.84725,-37.05725 5.18206,-5.46107 16.46266,-13.89227 22.99657,-17.18782 6.51313,-3.28506 15.82123,-6.31887 24.49153,-7.98258 6.51366,-1.24988 9.53788,-1.45981 16.47786,-1.14383 10.12221,0.46086 15.38262,1.93448 23.11698,6.47582 8.49035,4.98524 12.47394,10.77084 11.50774,16.71335 l -0.39999,2.46007 3.87618,-0.23775 c 7.99867,-0.4906 15.12864,5.17043 15.56515,12.35839 0.1623,2.67251 0.0903,2.76488 -2.42381,3.10852 l -2.59108,0.35417 2.01615,4.42708 2.01614,4.42709 -1.84197,0 c -2.64929,0 -9.41025,2.25014 -8.95829,2.98144 0.21002,0.33982 1.03056,0.41195 1.82344,0.16031 0.79287,-0.25165 3.649,-0.45755 6.34695,-0.45755 13.69362,0 21.9993,8.68966 22.14613,23.16996 0.0422,4.16639 -0.25531,5.47813 -1.86295,8.21277 -2.4222,4.12022 -8.27072,8.20449 -14.15888,9.88775 -4.32327,1.2359 -4.12383,1.65817 0.65967,1.39668 l 2.2959,-0.12551 -0.32442,3.06416 c -0.17844,1.68528 -0.50003,5.41166 -0.71465,8.28084 -0.49956,6.67833 -2.16189,13.41727 -4.72521,19.15552 -1.11515,2.49638 -1.93894,4.62748 -1.83064,4.73577 0.10829,0.1083 2.92409,-1.77482 6.25734,-4.1847 3.33325,-2.40989 9.61464,-6.93161 13.95865,-10.04828 l 7.8982,-5.66666 0.10593,-4.42709 c 0.12183,-5.09193 0.0815,-4.86788 1.34102,-7.45584 0.52631,-1.08144 1.30044,-1.85159 1.72029,-1.71144 0.41985,0.14016 2.35711,-0.45582 4.30503,-1.32439 6.50277,-2.89957 23.35226,-10.89297 25.14583,-11.92919 0.97396,-0.56269 6.00593,-3.15371 11.18216,-5.75782 5.17623,-2.60411 9.82075,-5.14416 10.32115,-5.64457 0.50041,-0.50041 2.64031,-1.77877 4.75534,-2.84082 5.67507,-2.84969 5.72423,-2.91454 4.18878,-5.52668 -0.72974,-1.24143 -1.63526,-3.63783 -2.01229,-5.3253 -0.74537,-3.33616 -0.96776,-2.72795 7.60179,-20.79048 3.06281,-6.45564 3.40029,-6.88365 5.74395,-7.28464 6.73646,-1.15259 6.36376,-0.90423 5.14413,-3.42797 -0.60126,-1.24416 -2.12881,-4.01523 -3.39455,-6.15794 -1.26574,-2.14271 -2.85558,-5.4099 -3.53297,-7.26042 -1.15888,-3.16586 -1.38283,-3.36462 -3.79164,-3.36514 -3.62217,-7.1e-4 -10.5348,-3.53741 -14.02888,-7.17741 -7.42623,-7.73638 -9.24886,-22.20304 -4.01316,-31.85363 1.11303,-2.05158 2.37781,-3.84242 2.81061,-3.97964 0.43281,-0.13722 1.50258,1.43574 2.37727,3.49546 0.87468,2.05972 2.80389,6.29495 4.28712,9.41161 1.48323,3.11667 2.8611,6.19145 3.06192,6.83286 0.25208,0.80509 1.53219,1.30771 4.13429,1.62328 2.07303,0.2514 4.93674,0.62651 6.36379,0.83358 2.51789,0.36535 2.68177,0.24819 5.53981,-3.96046 3.88528,-5.72132 4.16826,-7.81096 1.77807,-13.12992 -1.04818,-2.33256 -2.68599,-6.27932 -3.63957,-8.7706 l -1.73378,-4.5296 3.7179,0.44033 c 7.99046,0.94636 15.23615,7.74621 16.92794,15.88634 0.97806,4.70601 0.53944,12.67618 -0.93123,16.9217 -0.91422,2.63913 -0.88467,3.4648 0.28946,8.08823 0.7192,2.83199 1.75015,5.65311 2.29102,6.26917 2.36142,2.68967 8.79007,18.86216 8.36347,21.03992 -0.086,0.43716 0.8051,0.987 1.9795,1.22188 1.6804,0.33606 2.1353,0.79825 2.1353,2.16947 0,0.95834 0.314,2.56838 0.6978,3.57788 0.835,2.19608 1.3949,4.70299 1.9046,8.52761 0.2077,1.55833 0.7561,4.90521 1.2187,7.4375 0.8115,4.44218 0.7711,4.74692 -1.1478,8.66149 -4.5616,9.30538 -6.5554,11.90447 -10.55346,13.75677 l -3.77527,1.74912 -2.01228,-2.34411 c -3.81568,-4.44489 -5.76759,-9.60085 -5.71427,-15.0941 0.0265,-2.72709 0.28512,-5.95653 0.57479,-7.17654 0.34805,-1.46594 0.24044,-2.39509 -0.3173,-2.7398 -1.31268,-0.81127 -4.08947,1.03748 -4.1048,2.73294 -0.008,0.8342 -0.23732,2.81594 -0.51063,4.40386 -0.349,2.02776 -0.0278,4.75979 1.07922,9.17849 1.20906,4.82614 1.46978,7.32936 1.11951,10.74829 -0.36816,3.59341 -0.26163,4.45692 0.54981,4.45692 1.22492,0 1.86635,-1.5175 1.86635,-4.41546 l 0,-2.17459 2.96084,3.29503 c 1.62847,1.81226 3.58889,3.29502 4.35649,3.29502 2.15504,0 8.9799,-3.58633 9.9832,-5.246 4.6433,-7.68067 8.1027,-13.88441 8.5456,-15.32454 0.2946,-0.95808 0.8459,-2.13015 1.2251,-2.60461 0.7512,-0.9399 -0.2875,-8.74606 -1.925,-14.46722 l -0.9412,-3.28822 2.1527,-0.43053 c 5.5632,-1.11265 7.1033,-0.62439 10.4117,3.30091 2.8837,3.42137 9.2722,15.60828 9.2722,17.6878 0,0.49539 -2.9484,3.58251 -6.552,6.86026 -3.6037,3.27774 -6.663,6.23841 -6.7985,6.57924 -0.2746,0.69056 1.2669,0.37275 9.2733,-1.91183 l 5.4853,-1.56519 1.6743,2.90288 c 1.7969,3.11557 4.3455,10.97702 5.1063,15.75115 0.4325,2.71383 0.2991,3.05585 -1.7951,4.60417 -1.2442,0.91991 -2.439,1.56566 -2.655,1.43498 -0.216,-0.13067 -0.5877,0.0315 -0.826,0.3605 -0.2384,0.32893 -1.6265,1.39209 -3.0848,2.36258 -1.4583,0.97048 -2.6536,2.04474 -2.6563,2.38725 0,0.34251 1.8676,0.41091 4.156,0.152 3.9219,-0.44372 4.1858,-0.37779 4.5945,1.14809 0.5552,2.07223 0.4548,8.90003 -0.1633,11.10743 -0.5192,1.85427 -4.8835,3.63024 -9.1232,3.71255 -2.5641,0.0498 -2.7431,0.37414 -1.3248,2.40166 0.5376,0.76846 1.0954,1.9942 1.2396,2.72387 0.2045,1.0344 1.0425,1.39039 3.8039,1.6159 2.0435,0.16687 5.7295,1.32115 8.7135,2.72863 5.0536,2.38361 5.2227,2.54919 7.3942,7.23827 1.662,3.58901 2.298,6.10758 2.5229,9.9899 0.2795,4.82487 0.123,5.54936 -2.2181,10.27083 -3.5403,7.13993 -4.305,8.08103 -5.6555,6.9602 -0.5961,-0.49471 -1.2998,-2.2358 -1.5639,-3.8691 -0.2641,-1.63331 -1.6383,-5.93351 -3.0537,-9.55601 l -2.5736,-6.58636 -5.6788,0.47932 c -3.1232,0.26362 -5.7838,0.57016 -5.9124,0.68121 -0.1285,0.11104 -1.1723,3.01332 -2.3195,6.44951 -1.6274,4.87457 -1.9336,6.63938 -1.3932,8.03015 0.381,0.9804 1.0573,3.20655 1.5029,4.947 0.4457,1.74046 1.4418,4.50801 2.2137,6.15011 0.7719,1.6421 1.2987,3.72434 1.1708,4.6272 -0.215,1.51708 -0.5549,1.63657 -4.4826,1.57571 -7.2162,-0.11183 -14.747,-4.8511 -18.0813,-11.37892 -1.543,-3.02102 -1.7485,-4.31748 -1.7219,-10.86773 0.033,-8.14108 1.3988,-12.58118 5.0465,-16.40641 1.5716,-1.64806 1.7342,-2.26352 1.2911,-4.88619 -0.6833,-4.04438 -2.2955,-7.75094 -3.3669,-7.74066 -0.4817,0.005 -2.4696,0.4307 -4.4175,0.94683 -3.86367,1.02372 -11.13896,0.585 -12.47633,-0.75236 -0.57377,-0.57378 -2.31767,-0.0431 -6.4924,1.97578 -7.54003,3.64628 -15.10048,8.16984 -16.24005,9.71675 -0.50394,0.68408 -2.82875,2.39728 -5.16625,3.8071 -9.28499,5.60009 -22.80081,13.83898 -25.14584,15.32824 -4.10835,2.6091 -7.36309,3.3219 -10.65914,2.33438 -2.40456,-0.72043 -8.65212,-4.38189 -9.88252,-5.79179 -1.13441,-1.2999 -3.38218,-1.05819 -8.29444,0.89194 -11.38291,4.51892 -24.12092,10.06445 -29.6014,12.88706 -5.0863,2.6196 -5.73218,3.18362 -6.30633,5.50718 -0.52651,2.13073 -0.31116,3.38382 1.21728,7.08334 1.02132,2.47205 2.38415,6.40715 3.0285,8.74465 0.64435,2.3375 1.36899,4.56875 1.61032,4.95833 0.56282,0.9086 1.70678,3.95696 4.78474,12.75 2.29961,6.56951 3.84362,12.85463 7.39539,30.10417 2.09234,10.16163 2.35681,10.625 6.06437,10.625 3.09998,0 3.1016,10e-4 3.16811,2.65625 0.0366,1.46093 0.2758,5.62707 0.53156,9.25809 0.25576,3.63101 0.20998,7.05757 -0.10174,7.61458 -0.31171,0.55701 -1.37499,1.01274 -2.36284,1.01274 -1.78745,0 -1.79401,0.0229 -1.36781,4.78125 1.00474,11.21732 1.1446,74.94265 0.19472,88.71875 -0.52382,7.59688 -0.80421,14.40738 -0.62309,15.13447 0.30006,1.20456 0.82696,1.27854 5.9333,0.83312 3.93049,-0.34287 5.90658,-0.23773 6.61721,0.35204 0.55727,0.46249 0.85105,1.10328 0.65284,1.42398 -0.33611,0.54386 -4.56223,14.33968 -4.87137,15.90223 -0.32606,1.6481 -2.77523,8.55784 -3.2639,9.20833 -0.50236,0.66871 -4.23876,12.46621 -4.23876,13.38368 0,0.77306 14.36988,0.44991 29.79594,-0.67005 8.32457,-0.60437 16.4213,-0.8886 17.99274,-0.6316 4.52,0.73921 13.45302,4.41645 14.96651,6.1609 4.96935,5.72767 5.1454,9.72331 0.99449,22.57029 -3.15444,9.7629 -4.89856,13.12564 -7.26042,13.99839 -2.97246,1.09838 -7.69134,1.42744 -7.94758,0.5542 -0.13301,-0.45327 -0.63463,-2.81878 -1.1147,-5.25667 -1.05418,-5.35327 -2.04551,-5.03566 -3.80005,1.21747 -0.74541,2.65661 -1.62381,4.32809 -2.39204,4.55175 -1.19287,0.34727 -5.35213,0.64691 -7.02263,0.50591 -0.49951,-0.0421 -1.04859,-1.82494 -1.33108,-4.32177 -0.32242,-2.84982 -0.79474,-4.25 -1.43365,-4.25 -1.19742,0 -3.3446,4.04454 -2.84221,5.35375 0.20596,0.53674 0.048,1.17771 -0.35121,1.42438 -0.39912,0.24667 -0.56664,0.86297 -0.37224,1.36955 0.43289,1.12811 -1.65241,1.74689 -5.92353,1.75773 l -3.1875,0.008 -0.0789,-4.2683 c -0.0434,-2.34757 -0.30852,-4.49792 -0.58916,-4.77855 -0.79849,-0.79849 -2.30003,1.72695 -2.76844,4.6562 -0.65575,4.10077 -1.96944,5.42412 -5.38457,5.42412 -3.19456,0 -4.52256,-1.16445 -4.00238,-3.50947 0.17284,-0.77917 0.83698,-3.28458 1.47589,-5.56758 1.52563,-5.45154 0.52728,-13.03063 -2.13288,-16.19205 -0.9618,-1.14301 -1.74872,-2.31348 -1.74872,-2.60101 0,-1.23493 -5.66693,-3.04427 -12.56954,-4.01322 -8.25863,-1.15931 -19.56665,-0.57294 -28.86796,1.49692 -2.72708,0.60687 -6.95052,1.28177 -9.38542,1.49978 -3.69138,0.3305 -4.42708,0.2145 -4.42708,-0.69805 0,-0.60193 0.50089,-1.59532 1.1131,-2.20752 0.61219,-0.6122 0.92643,-1.11309 0.69828,-1.11309 -0.22815,0 0.364,-1.19532 1.31589,-2.65625 1.93564,-2.97079 2.69717,-8.50442 4.02104,-29.21875 1.05839,-16.56043 1.33721,-18.03142 3.42104,-18.0486 1.41544,-0.0117 1.93362,-0.69805 3.21897,-4.2639 1.76927,-4.90841 3.75038,-14.39611 4.28926,-20.54167 0.20496,-2.3375 1.13406,-9.03125 2.06466,-14.875 0.93061,-5.84375 2.05269,-13.33438 2.49353,-16.64583 1.1241,-8.44393 1.2862,-9.40184 1.82791,-10.80209 0.66734,-1.72497 -0.46955,-1.61462 -9.12167,0.88542 -4.04479,1.16875 -7.89686,2.125 -8.56014,2.125 -0.66329,0 -2.85899,0.75297 -4.87934,1.67325 -2.02035,0.92029 -4.32749,1.87801 -5.127,2.12826 -1.32736,0.41549 -1.40947,0.80851 -0.94518,4.52467 1.17773,9.42673 0.0738,28.30868 -2.58817,44.26788 -0.56861,3.40903 -1.03385,7.0906 -1.03385,8.18125 0,1.09067 -0.39843,2.39877 -0.88541,2.90689 -0.72631,0.75784 0.51474,0.87876 6.90625,0.67291 7.58392,-0.24425 7.78958,-0.21058 7.71348,1.26274 -0.043,0.83253 -1.85256,6.88878 -4.02125,13.45834 -3.4774,10.53403 -5.03855,15.70931 -5.84589,19.37938 -0.8327,3.78538 -4.80721,17.03208 -5.66489,18.88065 -0.56959,1.22762 -1.03562,2.53789 -1.03562,2.91171 0,0.96864 17.81624,0.22947 21.95833,-0.91102 0.97396,-0.26817 7.66771,-0.61389 14.875,-0.76827 19.72918,-0.4226 24.88598,0.95548 28.14931,7.52247 0.87275,1.75627 1.78199,5.10269 2.02055,7.43647 0.37268,3.64587 0.11384,5.14075 -1.83853,10.61825 -1.24977,3.50625 -2.9416,8.28753 -3.75963,10.62503 -0.81804,2.3375 -1.7228,4.3503 -2.01056,4.4728 -0.28777,0.1226 -0.37235,0.616 -0.18797,1.0965 0.18439,0.4805 -0.42578,1.5886 -1.35594,2.4625 -1.5317,1.4389 -2.28399,1.5693 -7.97666,1.3826 l -6.28546,-0.2061 -0.013,-4.3678 c -0.007,-2.4024 -0.27809,-4.6331 -0.60214,-4.9573 -0.78622,-0.7865 -2.46662,1.6037 -3.30359,4.6991 -1.35609,5.0151 -2.32059,5.6885 -8.14727,5.6885 -3.05254,0 -5.43185,-0.3257 -5.714,-0.7823 -0.26592,-0.4302 -0.64711,-2.8208 -0.84712,-5.3125 -0.20001,-2.4916 -0.57783,-4.5302 -0.83962,-4.5302 -1.39058,0 -2.74882,2.121 -3.07915,4.8082 -0.20534,1.6706 -0.88753,3.8222 -1.51597,4.7813 -0.98037,1.4962 -1.68525,1.7438 -4.96419,1.7438 -5.67967,0 -6.06071,-0.2825 -6.07327,-4.5028 -0.0202,-6.7781 -2.70231,-7.4004 -4.1433,-0.9613 -0.97093,4.3386 -2.42076,5.9842 -5.05419,5.7369 -0.97396,-0.091 -2.73408,0.083 -3.91139,0.3871 -1.17731,0.3044 -2.8228,0.301 -3.65664,-0.01 -1.27588,-0.472 -1.48531,-1.0451 -1.32182,-3.6171 0.37105,-5.837 -2.52539,-7.7225 -3.87891,-2.5249 -1.85496,7.123 -1.20517,6.4854 -7.33998,7.2021 -7.01401,0.8194 -7.75977,0.4006 -8.2246,-4.6179 -0.19479,-2.1031 -0.59323,-3.7441 -0.88541,-3.6467 -0.29219,0.097 -0.81391,0.1771 -1.15938,0.1771 -0.34547,0 -1.01757,2.0639 -1.49354,4.5864 -0.81794,4.335 -0.98743,4.6094 -3.09062,5.0027 -1.22387,0.229 -3.97834,0.3166 -6.12105,0.1948 l -3.89583,-0.2214 -0.12555,-3.5417 c -0.0691,-1.9479 -0.14874,-3.9401 -0.17709,-4.4271 -0.0283,-0.487 -0.65119,-0.8854 -1.38411,-0.8854 -0.98567,0 -1.53885,0.8192 -2.125,3.147 -0.43583,1.7308 -0.79242,3.8027 -0.79242,4.6041 0,1.3377 -0.42112,1.4563 -5.13541,1.4464 -2.82448,-0.01 -5.5761,-0.29 -6.1147,-0.6311 z m 79.95845,-220.25065 c 4.09062,-0.41623 10.14687,-0.95763 13.45833,-1.20312 3.31146,-0.24548 6.33958,-0.7103 6.72917,-1.03293 0.38958,-0.32262 0.70833,-3.72099 0.70833,-7.55191 l 0,-6.96532 -6.65962,0.26328 c -3.66279,0.14479 -10.35654,0.78866 -14.875,1.4308 l -8.21538,1.16753 -0.46919,3.52753 c -0.6316,4.74846 -0.70193,11.32863 -0.12723,11.90333 0.25634,0.25634 0.81415,0.18517 1.23958,-0.15816 0.42543,-0.34333 4.12038,-0.9648 8.21101,-1.38103 z m -16.6938,-24.9955 c 3.53262,-0.4426 6.51816,-0.88311 6.63452,-0.97892 0.11636,-0.0958 0.002,-1.00759 -0.25326,-2.02619 -0.45217,-1.8016 -0.60158,-1.84725 -5.48889,-1.67733 l -5.02405,0.17466 -1.23185,-5.98082 c -0.67751,-3.28946 -1.06832,-6.24541 -0.86846,-6.5688 0.2697,-0.43639 -5.30604,-0.0275 -5.85625,0.42945 -0.052,0.0432 0.20562,1.99101 0.57246,4.32851 0.36684,2.3375 0.6856,4.72812 0.70835,5.3125 0.0227,0.58437 0.34937,2.57656 0.72583,4.42708 0.789,3.87849 0.38191,3.77512 10.0816,2.55986 z m 14.21463,-2.73694 c 0,-1.57588 7.44779,-1.93052 8.3068,-0.39555 0.39681,0.70907 1.61854,1.10388 3.4159,1.10388 1.53897,0 2.79813,-0.11865 2.79813,-0.26366 0,-0.46518 -7.74298,-13.18619 -9.34517,-15.35327 -1.33251,-1.80232 -2.00819,-2.0914 -4.88823,-2.0914 l -3.34199,0 -0.46008,3.36458 c -0.25304,1.85052 -0.56637,4.48021 -0.69629,5.84375 -0.12991,1.36354 -0.47035,4.01482 -0.75651,5.89173 l -0.5203,3.41257 2.74387,-0.22507 c 1.86674,-0.15312 2.74387,-0.56471 2.74387,-1.28756 z m 0.7349,-5.6237 c -0.57466,-0.92981 0.3763,-6.41797 1.11207,-6.41797 0.33187,0 1.25618,1.27955 2.05401,2.84343 l 1.45062,2.84344 -1.8365,0.69823 c -2.24914,0.85512 -2.27186,0.85539 -2.7802,0.0329 z m 31.532,5.09254 c 2.46244,-1.72476 1.44291,-6.40763 -1.61883,-7.43552 -0.71638,-0.24051 -0.70431,-0.66531 0.0596,-2.0997 1.27026,-2.38501 0.11675,-4.57995 -3.11699,-5.93109 -2.32018,-0.96944 -13.77822,-1.45951 -13.77822,-0.5893 0,0.22728 0.66085,3.00155 1.46857,6.16506 0.80772,3.1635 1.58025,6.63421 1.71673,7.7127 0.13649,1.07849 0.46353,2.30935 0.72675,2.73525 0.69667,1.12724 12.7995,0.66334 14.54235,-0.5574 z m -10.21844,-3.38523 c -1.03115,-2.68714 -0.54947,-3.25601 2.56612,-3.03059 2.68081,0.19396 3.01042,0.4117 3.01042,1.98864 0,1.52355 -0.35834,1.80079 -2.56612,1.98531 -1.85904,0.15537 -2.68854,-0.10457 -3.01042,-0.94336 z m -1.21087,-6.17736 c -0.032,-0.0974 -0.2081,-1.09683 -0.39125,-2.22096 -0.32166,-1.97424 -0.25406,-2.02809 1.98403,-1.58047 2.82009,0.56402 3.74919,1.40052 3.18592,2.8684 -0.25715,0.6701 -1.27708,1.11011 -2.57323,1.11011 -1.18097,0 -2.17343,-0.0797 -2.20547,-0.17708 z m -45.78874,-9.31644 c -0.18259,-2.98816 0.62684,-2.86168 1.9376,0.30276 1.25778,3.03655 3.11473,2.53219 3.40094,-0.92371 0.23899,-2.88574 1.55011,-2.96384 1.55011,-0.0923 0,1.51607 1.67543,3.10082 2.45455,2.3217 0.57843,-0.57843 -2.06522,-9.82323 -2.80907,-9.82323 -1.55813,0 -3.10298,1.80742 -3.32987,3.89583 l -0.23087,2.125 -1.27076,-2.34599 c -0.93754,-1.73082 -1.67796,-2.28804 -2.82362,-2.125 -1.28945,0.18351 -1.53191,0.64153 -1.42932,2.70016 0.0679,1.36354 0.26633,3.27604 0.44085,4.25 0.17452,0.97395 0.35799,2.03645 0.40771,2.36111 0.0497,0.32465 0.48884,0.4493 0.97582,0.27699 0.53428,-0.18904 0.82217,-1.34834 0.72593,-2.92329 z m 13.71583,-0.069 c 0.4519,-1.17763 4.50615,-1.49628 4.50615,-0.35417 0,0.38959 0.80876,0.70834 1.79723,0.70834 l 1.79723,0 -2.88612,-4.25 c -2.3726,-3.49381 -3.23869,-4.25 -4.86764,-4.25 -1.89599,0 -2.01121,0.19871 -2.6696,4.60416 -0.63453,4.24586 -0.58679,4.60417 0.61348,4.60417 0.71585,0 1.48502,-0.47812 1.70927,-1.0625 z m 0.97533,-4.78125 c 0.009,-1.28877 0.14225,-1.39043 0.69749,-0.53125 0.88749,1.37329 0.88749,2.125 0,2.125 -0.38958,0 -0.70345,-0.71719 -0.69749,-1.59375 z m 40.36416,5.2452 c 0,-0.3292 -0.62239,-1.1618 -1.38308,-1.85022 -0.98665,-0.8929 -1.27074,-1.81339 -0.99114,-3.21138 0.48053,-2.40268 -0.13856,-2.82242 -5.16992,-3.50519 l -3.92248,-0.5323 0.46648,2.19257 c 0.25657,1.20591 0.64967,3.24486 0.87356,4.531 0.32689,1.87785 0.70156,2.29594 1.90224,2.12271 1.07776,-0.1555 1.44807,-0.66002 1.32644,-1.80718 -0.23149,-2.18331 0.667,-1.99428 2.5359,0.53354 1.43334,1.9387 4.362,2.96357 4.362,1.52645 z m -6.90625,-5.5769 c -1.21662,-0.43641 -1.11787,-1.61622 0.13527,-1.61622 1.17327,0 2.10186,1.16802 1.29295,1.62631 -0.29854,0.16913 -0.94124,0.16459 -1.42822,-0.0101 z m -22.46736,4.40462 c 1.15779,-3.70599 1.03999,-3.65814 3.03598,-1.2332 1.17629,1.42907 2.53976,2.30604 3.5792,2.30208 1.62653,-0.006 1.59642,-0.10726 -0.96247,-3.23004 -2.54738,-3.10874 -2.59701,-3.27289 -1.39221,-4.60417 1.21289,-1.34023 1.18531,-1.38051 -0.94528,-1.38051 -1.40625,0 -2.55833,0.51928 -3.20711,1.44555 l -1.0125,1.44554 -0.37803,-1.44554 c -0.41196,-1.57537 -3.34675,-2.06753 -3.34002,-0.56013 0.004,0.81421 1.08969,5.34386 1.78326,7.4375 0.40927,1.23543 2.43742,1.10892 2.83918,-0.17708 z m 17.86746,0.17708 c -0.15997,-0.48698 -1.43419,-0.98271 -2.83159,-1.10164 -3.46244,-0.29466 -4.23779,-2.26294 -0.89143,-2.26294 1.87317,0 2.34067,-0.24506 2.02699,-1.0625 -0.25157,-0.65557 -1.3282,-1.0625 -2.81111,-1.0625 -1.32185,0 -2.40338,-0.31875 -2.40338,-0.70834 0,-0.38958 1.11563,-0.70833 2.47917,-0.70833 1.36354,0 2.47916,-0.31875 2.47916,-0.70833 0,-0.39492 -1.91448,-0.70834 -4.32679,-0.70834 l -4.32679,0 0.47021,1.94792 c 0.2586,1.07135 0.78357,3.14323 1.16659,4.60417 l 0.69639,2.65625 4.28173,0 c 3.10828,0 4.20201,-0.24266 3.99085,-0.88542 z m -82.78249,-8.17286 3.10719,-2.67945 -1.13292,-2.19083 c -0.6231,-1.20495 -1.77456,-4.50624 -2.55877,-7.33618 -0.78422,-2.82995 -1.59344,-5.31295 -1.79826,-5.51777 -0.70678,-0.70678 -3.56326,1.3681 -5.39812,3.92108 l -1.84035,2.5606 2.11147,6.0775 c 2.04731,5.89279 3.03479,7.85039 3.95804,7.84641 0.24449,-7e-4 1.84276,-1.20767 3.55172,-2.68136 z m 36.6756,-2.75914 -0.4234,-2.60909 1.78538,2.62742 c 2.14713,3.15979 3.09697,2.81377 3.21112,-1.1698 l 0.0851,-2.96861 0.72894,3.03422 c 0.40091,1.66882 1.07982,2.91886 1.50868,2.77785 2.3184,-0.76226 0.16483,-8.29124 -2.3716,-8.29124 -1.14201,0 -1.45281,0.4546 -1.45281,2.125 0,2.58672 -0.90568,2.74741 -1.99612,0.35417 -0.86563,-1.89987 -1.35442,-2.09466 -2.86084,-1.14014 -0.91053,0.57693 -0.8077,2.50587 0.35341,6.62972 0.68352,2.4276 1.86502,1.2978 1.43218,-1.3695 z m 53.61575,-0.7555 c -0.26544,-1.07135 -0.69287,-2.74479 -0.94985,-3.71875 -0.25699,-0.97396 -1.04864,-1.88285 -1.75924,-2.01976 -0.93952,-0.18101 -1.17324,0.0606 -0.8567,0.88542 0.32672,0.85145 -8e-4,1.13434 -1.31332,1.13434 -1.08209,0 -1.7486,-0.40499 -1.7486,-1.0625 0,-0.59028 -0.62963,-1.0625 -1.41667,-1.0625 -1.65983,0 -1.64267,-0.10821 -0.62425,3.93634 0.60667,2.40926 1.12418,3.14699 2.20762,3.14699 1.06646,0 1.3239,-0.34909 1.04472,-1.41666 -0.29467,-1.12683 -0.0217,-1.41667 1.33406,-1.41667 1.18064,0 1.70452,0.39912 1.70452,1.29861 0,1.54266 0.59401,2.24306 1.90238,2.24306 0.6898,0 0.82285,-0.54525 0.47533,-1.94792 z m -36.39045,0.19243 c 1.43812,-1.73282 0.01,-6.33319 -2.05865,-6.62976 -1.318,-0.18899 -1.57345,0.0114 -1.21279,0.95122 1.05849,2.75841 1.22453,4.47669 0.47721,4.93857 -1.15491,0.71377 -2.69847,-0.82461 -3.22283,-3.21203 -0.48613,-2.21332 -1.36591,-3.12083 -2.40369,-2.47945 -0.68488,0.42328 0.41815,5.06827 1.56566,6.59319 0.92556,1.22995 5.79545,1.11505 6.85509,-0.16174 z m 5.22416,-1.68295 -0.44517,-1.87406 2.08272,1.94791 c 2.12248,1.98511 5.40157,2.70328 4.85127,1.0625 -0.16333,-0.48698 -0.62535,-2.17181 -1.02671,-3.74407 -0.50721,-1.98691 -1.1329,-2.88903 -2.05177,-2.95825 -1.06186,-0.08 -1.25454,0.27349 -0.97905,1.79617 l 0.34298,1.89574 -1.73642,-1.59375 c -2.13851,-1.96282 -5.10619,-2.19332 -4.55981,-0.35417 0.20254,0.68177 0.58684,2.19583 0.854,3.36458 0.6621,2.89656 0.8834,3.18709 2.07835,2.72855 0.71907,-0.27594 0.89896,-0.96884 0.58961,-2.27115 z m 19.97611,1.71529 c 1.07659,-0.79459 1.18933,-1.20311 0.51957,-1.88248 -0.657,-0.66642 -1.08797,-0.67465 -1.85814,-0.0355 -1.284,1.06563 -3.067,0.38649 -3.51854,-1.34019 -0.40499,-1.54867 1.22588,-3.3256 1.96082,-2.13644 0.25246,0.4085 1.15741,0.73259 2.01098,0.7202 1.51704,-0.022 1.52102,-0.0459 0.17698,-1.0625 -0.75623,-0.57199 -2.56757,-1.03997 -4.02519,-1.03997 -5.93535,0 -3.40873,6.58465 2.96269,7.72106 0.21772,0.0388 1.0146,-0.38607 1.77083,-0.94421 z m -8.89587,-0.0882 c 0,-0.21707 -0.34923,-1.78161 -0.77607,-3.47677 -0.51782,-2.05644 -1.23467,-3.20202 -2.15411,-3.44246 -1.03594,-0.27091 -1.29123,-0.0672 -1.02839,0.82052 0.1923,0.64948 0.56821,2.13713 0.83537,3.30588 0.26715,1.16875 0.61985,2.36406 0.78378,2.65625 0.3433,0.61194 2.33942,0.72849 2.33942,0.13658 z m -30.98958,-9.93077 c 1.46094,-0.25147 2.65234,-0.66081 2.64757,-0.90964 -0.005,-0.24883 -1.0834,-4.27742 -2.39694,-8.95242 -1.31354,-4.675 -2.14122,-8.59468 -1.83929,-8.7104 0.30194,-0.11572 2.09496,0.77004 3.98451,1.96835 l 3.43553,2.17875 1.30485,-1.79126 c 0.71766,-0.9852 1.57147,-1.79127 1.89733,-1.79127 0.32587,0 0.81351,3.11762 1.08366,6.92805 0.54166,7.6401 1.33243,9.29486 5.06333,10.59546 1.82703,0.63691 2.66175,0.54902 4.5938,-0.48363 2.05614,-1.09898 2.38806,-1.6645 2.5701,-4.37881 0.11497,-1.71427 -0.0665,-5.42368 -0.40322,-8.24313 -0.34789,-2.9129 -0.34546,-5.12628 0.006,-5.12628 0.33983,0 1.79058,0.79688 3.2239,1.77084 1.4333,0.97395 2.89391,1.77083 3.24577,1.77083 0.35187,0 1.37828,-0.79688 2.28092,-1.77083 0.90263,-0.97396 1.9058,-1.77084 2.22925,-1.77084 0.32345,0 1.80943,3.74532 3.30218,8.32292 1.49275,4.5776 2.93072,8.56 3.19549,8.84976 0.72534,0.79382 9.27449,1.5444 9.26746,0.81365 -0.009,-0.94403 -5.43599,-16.27821 -7.53498,-21.29072 l -1.82864,-4.36691 -4.23327,-0.49132 c -4.11747,-0.47788 -4.29972,-0.4269 -6.66315,1.86383 l -2.42989,2.35514 -2.57563,-1.38706 c -1.41659,-0.76289 -2.7164,-1.9254 -2.88846,-2.58335 -0.17206,-0.65795 -0.72347,-1.35385 -1.22536,-1.54644 -0.61261,-0.23509 -0.79532,0.098 -0.55592,1.0135 0.2943,1.12554 -0.0201,1.36367 -1.80044,1.36367 -2.02337,0 -4.38321,-1.50937 -4.38321,-2.80353 0,-0.31754 -0.96995,-0.71971 -2.15543,-0.89369 -1.48979,-0.21866 -2.05404,-0.0521 -1.82713,0.53915 0.33254,0.86659 -4.41283,5.9914 -5.5478,5.9914 -0.33904,0 -2.16703,-0.995 -4.06219,-2.21112 -3.04556,-1.95433 -3.89588,-2.1738 -7.32161,-1.88971 -2.13173,0.17678 -4.07661,0.52216 -4.32195,0.7675 -0.24536,0.24535 1.07127,6.53057 2.92581,13.96717 l 3.3719,13.52107 1.85462,-0.36573 c 1.02003,-0.20115 3.04992,-0.57148 4.51086,-0.82295 z m 13.58647,-3.92042 c -0.53187,-0.86059 1.03697,-2.1585 2.17395,-1.79851 0.38958,0.12335 0.81139,0.75566 0.93735,1.40515 0.26306,1.35637 -2.31471,1.68227 -3.1113,0.39336 z m -0.83647,-3.22636 c -0.48698,-0.1948 -0.88542,-0.66852 -0.88542,-1.05274 0,-0.90554 2.88147,-0.46584 2.91452,0.44475 0.0302,0.83343 -0.8249,1.08967 -2.0291,0.60799 z m 2.79792,-14.54445 c -0.4675,-0.4675 -0.85,-1.105 -0.85,-1.41666 0,-0.93055 2.59789,-0.64135 3.44879,0.38392 1.41444,1.7043 -0.97692,2.65461 -2.59879,1.03274 z m -2.975,-3.4 c 0,-0.38958 0.31875,-0.70833 0.70833,-0.70833 0.38958,0 0.70833,0.31875 0.70833,0.70833 0,0.38959 -0.31875,0.70834 -0.70833,0.70834 -0.38958,0 -0.70833,-0.31875 -0.70833,-0.70834 z m 0.29623,-6.09661 c 1.53579,-0.58934 1.40791,-2.19969 -0.24492,-3.08426 -2.76028,-1.47726 -5.03916,1.18482 -2.3534,2.74914 1.51437,0.88203 1.25893,0.84909 2.59832,0.33512 z m 1.82877,-6.65339 c 0,-0.38958 -0.49694,-0.70833 -1.10431,-0.70833 -0.60737,0 -0.9073,0.31875 -0.66653,0.70833 0.24078,0.38959 0.73772,0.70834 1.10431,0.70834 0.36659,0 0.66653,-0.31875 0.66653,-0.70834 z m -9.64433,-21.64636 c 0.23316,-0.60758 0.76494,-4.76929 1.18175,-9.24825 0.41681,-4.47897 1.18617,-10.59591 1.7097,-13.59322 0.52352,-2.99732 0.9024,-5.49059 0.84196,-5.54061 -0.0605,-0.05 -2.55569,-0.31398 -5.54497,-0.58658 -5.11991,-0.46689 -5.48313,-0.4058 -6.26413,1.05352 -1.32433,2.47454 -2.81603,13.22416 -2.81895,20.31432 l -0.003,6.52365 2.65625,0.7278 c 2.36062,0.6468 4.46754,1.05498 7.00754,1.35761 0.44531,0.0531 1.0004,-0.40065 1.23355,-1.00824 z m 13.04416,0.2131 c 1.39886,-1.68553 3.10263,-10.80838 3.60368,-19.2959 0.45473,-7.70309 0.55736,-8.17516 1.09459,-5.03516 0.74385,4.34756 0.0849,11.99196 -1.61041,18.68259 l -1.30429,5.14743 1.48121,-0.44497 c 2.5127,-0.75484 5.98635,-2.50134 6.68887,-3.36305 1.40101,-1.71852 2.96803,-8.82164 3.39988,-15.41124 l 0.44918,-6.85436 -2.75752,-0.45029 c -2.49033,-0.40667 -15.79319,-1.77046 -17.7058,-1.81518 -0.8834,-0.0207 -2.24149,7.15181 -3.14839,16.62756 -0.33557,3.50625 -0.82537,7.88906 -1.08844,9.73958 l -0.4783,3.36459 5.31789,0 c 3.40983,0 5.58338,-0.31991 6.05785,-0.8916 z m -25.35547,-8.49382 c 0.003,-7.23852 1.59144,-18.51728 2.81566,-19.99237 0.62615,-0.75446 0.20578,-1.03087 -2.07927,-1.36726 -1.57525,-0.23189 -4.13909,-0.60901 -5.69742,-0.83805 -1.55833,-0.22903 -2.83333,-0.25707 -2.83333,-0.0623 0,0.19477 -0.47807,2.85247 -1.06238,5.90601 -1.30776,6.83419 -1.45334,16.85614 -0.23392,16.1025 0.55551,-0.34332 0.68111,-0.12754 0.381,0.65456 -0.52258,1.3618 5.23247,6.149 7.39216,6.149 1.18589,0 1.31507,-0.64239 1.3175,-6.55208 z m 42.04874,-3.9655 c 2.41022,-3.56668 4.69856,-9.50604 4.69856,-12.19503 0,-1.25455 -1.92307,-2.05563 -4.95833,-2.06543 -1.76051,-0.006 -1.77148,0.0345 -1.88266,6.89658 -0.0659,4.06651 -0.55602,8.18233 -1.19297,10.01788 -1.27521,3.67487 -0.55309,3.10028 3.3354,-2.654 z M 491.07381,643.3669 c 0.14392,-2.38197 0.0575,-2.46753 -3.03938,-3.01058 -4.76192,-0.83502 -4.95833,-0.61578 -4.95833,5.5349 0,6.92219 1.03076,10.46749 4.19649,14.43384 l 2.53268,3.17318 0.56021,-8.83985 c 0.30812,-4.86192 0.62687,-9.94309 0.70833,-11.29149 z M 506.31452,631.2 c 4.15343,-1.00716 6.04067,-2.69443 8.39411,-7.50468 3.22053,-6.58252 1.48419,-13.99328 -4.15264,-17.72355 -5.57389,-3.68863 -14.63266,-2.07654 -19.24678,3.42514 -2.37362,2.83019 -4.01022,7.3971 -3.5682,9.95705 1.10099,6.37652 5.00419,10.83925 10.41484,11.9078 4.23031,0.83545 4.466,0.83366 8.15867,-0.0618 z m 48.37558,-4.33509 c 3.76556,-2.50241 5.77245,-7.05894 5.34891,-12.1444 -0.53513,-6.42546 -4.34497,-10.41646 -10.78643,-11.29936 -9.51397,-1.30403 -16.54074,6.23242 -14.46149,15.51043 1.56135,6.96706 4.90763,9.52617 12.46151,9.53015 4.0424,0.002 5.50348,-0.31157 7.4375,-1.59682 z M 439.35882,576.75156 c 4.76047,-2.10577 11.58809,-2.11999 15.12784,-0.0315 3.23054,1.90607 5.97211,1.65381 9.92666,-0.91338 11.48121,-7.4533 20.51562,-11.02302 25.26023,-9.98093 3.28545,0.7216 6.86088,4.71727 6.86088,7.66726 0,3.14383 1.05377,3.36156 7.34903,1.51848 l 4.86986,-1.42576 -0.39661,-4.73078 c -0.57148,-6.81656 -5.07211,-13.18672 -10.28312,-14.55465 -7.13444,-1.87284 -15.28357,0.52859 -21.99201,6.48075 -4.27454,3.79264 -12.28894,9.6985 -14.76054,10.87712 -2.18316,1.04107 -2.49084,1.01777 -4.98379,-0.37751 -5.9101,-3.30782 -10.89911,-2.74334 -17.21199,1.94745 -3.80237,2.82536 -5.64113,4.71449 -7.14403,7.33973 -0.58755,1.02633 -0.20765,0.90912 1.65291,-0.51 1.32868,-1.01343 3.90479,-2.50127 5.72468,-3.30629 z"
         style="fill:#040404;fill-opacity:1" />
      <path
         sodipodi:nodetypes="ccccsscssccccccsccssccccccsscccccccccsccccssccccscccccccccsccccccccsccccsccccsscccscccccccsccssccccccccscccccccccccccccccccccccsccccscsscsccsssccsccccccccsccscccccccccscccsccccsscssccccccsscccccscsssssssscscccscccscccccsscssccccsscscssssscsscssssssscsssssscsscssccccccccscccccccccccsssscscccssscccssscccccccsccccccsscsscssssscsscsssssccc"
         inkscape:connector-curvature="0"
         id="path3447"
         d="m 455.60465,1019.7889 -0.75074,-0.9046 0.33587,-6.0016 0.33586,-6.0017 1.76627,-5.3794 c 2.19727,-6.69199 5.05585,-11.25159 10.78426,-17.20149 l 4.45674,-4.6291 4.02288,-0.7437 c 5.05883,-0.9352 5.56151,-1.5047 6.08619,-6.8958 l 0.42736,-4.3911 -1.07528,-1.0752 -1.07529,-1.0753 -2.27468,0.3776 c -1.25107,0.2077 -2.97233,0.5172 -3.82501,0.6878 -1.80459,0.3609 -2.96717,-0.9982 -1.5847,-1.8526 0.51825,-0.3203 2.55128,-0.7931 4.51783,-1.0507 1.96655,-0.2576 4.26874,-0.9078 5.11599,-1.4448 l 1.54047,-0.9765 0.43724,-4.0915 c 0.24048,-2.2504 0.59177,-5.0961 0.78065,-6.324 l 0.34342,-2.2325 -1.03424,-1.0342 -1.03424,-1.0342 -5.06465,0.8687 -5.06464,0.8687 -0.3892,-1.0142 c -0.66519,-1.7335 1.20173,-2.5323 9.91231,-4.2412 2.70968,-0.5316 3.27986,-1.9662 3.50472,-8.8177 l 0.19438,-5.9226 -2.47917,0.052 c -1.36354,0.029 -4.07292,0.188 -6.02083,0.3541 l -3.54167,0.3021 -0.21585,-2.2201 -0.21586,-2.2202 1.81357,-1.4266 1.81356,-1.4265 4.48995,-0.7819 c 2.46947,-0.43 9.40049,-1.1087 15.40229,-1.5082 6.00178,-0.3995 12.82484,-1.0624 15.16234,-1.4732 2.3375,-0.4107 7.64083,-0.9074 11.78517,-1.1038 l 7.53517,-0.357 0.40453,0.6545 c 0.2225,0.3601 -1.29452,5.8859 -3.37114,12.2797 -2.07663,6.3937 -4.49947,14.175 -5.3841,17.2917 -1.6739,5.8973 -6.00012,20.531 -7.06466,23.8967 l -0.6131,1.9383 0.83323,0.534 c 1.2984,0.832 17.40805,0.1667 21.51431,-0.8885 2.02458,-0.5202 7.83777,-1.1718 12.91818,-1.448 l 9.23713,-0.5021 7.44752,1.2765 7.44753,1.2766 2.17205,1.3209 2.17206,1.3209 1.5106,3.3456 1.51061,3.3457 -0.0263,5.3125 -0.0263,5.3125 -3.0195,8.14589 c -1.66072,4.4802 -3.33142,8.9889 -3.71265,10.0193 -0.38124,1.0305 -1.31828,2.5445 -2.08231,3.3646 l -1.38909,1.4911 -5.63908,0 -5.63907,0 0,-3.8091 0,-3.8091 -1.03868,-0.8621 c -1.71073,-1.4197 -2.67869,-0.5184 -4.59107,4.2751 l -1.81894,4.5594 -4.88252,0.2118 -4.88252,0.2119 -0.68938,-0.6894 c -0.37915,-0.3791 -0.88888,-2.5463 -1.13271,-4.816 l -0.44334,-4.1267 -1.5869,-0.2254 -1.5869,-0.2255 -0.67009,1.6421 c -0.36855,0.9032 -0.86228,2.8272 -1.09718,4.2756 -0.23489,1.4484 -0.83603,3.0422 -1.33584,3.5417 l -0.90877,0.9082 -4.19883,0 -4.19883,0 -0.37219,-3.7014 c -0.40826,-4.0601 -1.2801,-5.4159 -3.23992,-5.0385 l -1.28343,0.2472 -0.99763,4.0876 -0.99764,4.0876 -1.35166,0.7234 c -0.74342,0.3978 -3.33674,0.6286 -5.76293,0.5129 l -4.41126,-0.2105 -0.19121,-2.4791 c -0.10517,-1.3636 -0.35031,-3.1964 -0.54475,-4.073 l -0.35353,-1.5937 -1.36138,0 c -1.71249,0 -2.22646,0.8408 -3.22543,5.2763 l -0.80089,3.5561 -3.13641,0.5548 c -1.72502,0.3052 -4.57078,0.4694 -6.3239,0.3651 l -3.1875,-0.1898 -0.35417,-3.8958 -0.35417,-3.8959 -1.55218,-0.2209 -1.55219,-0.2209 -0.80335,3.0543 c -0.44184,1.6798 -1.1887,3.8511 -1.65969,4.825 l -0.85634,1.7709 -5.11104,0.2081 -5.11104,0.2081 0,-3.8402 0,-3.8401 -1.07579,-0.8928 -1.07579,-0.8928 -1.3447,1.2169 -1.34471,1.217 -0.47931,3.4849 -0.47931,3.485 -4.80512,0 -4.80514,0 -0.75073,-0.9046 z m 130.9654,-22.05019 -0.82701,-0.9965 1.46277,-5.7291 1.46277,-5.7291 -0.74924,-4.6901 -0.74924,-4.6901 -1.84758,-2.4223 c -1.01617,-1.3322 -2.74507,-3.0613 -3.842,-3.8424 l -1.99443,-1.4202 -5.4019,-1.0335 c -9.4367,-1.8056 -27.7486,-0.9215 -37.1476,1.7933 -2.91797,0.8429 -7.57122,0.9437 -8.04667,0.1745 -0.18367,-0.2972 0.73462,-2.2894 2.04064,-4.4271 l 2.37458,-3.8868 0.79269,-7.7916 c 0.43597,-4.2855 1.20328,-13.9427 1.70512,-21.4605 0.50184,-7.5179 1.20021,-13.9182 1.55195,-14.223 1.43368,-1.2423 10.66822,-2.1985 24.72285,-2.5599 8.18125,-0.2104 17.98281,-0.5626 21.78125,-0.7826 l 6.90625,-0.4001 0,1.2341 c 0,1.9801 -3.34544,12.7811 -9.30631,30.0461 -1.14331,3.3115 -1.98741,6.8177 -1.87579,7.7917 l 0.20293,1.7708 5.66667,0.2317 c 3.11667,0.1274 13.52545,-0.3025 23.13063,-0.9553 l 17.46397,-1.1869 3.83094,1.1137 c 2.10702,0.6126 5.30537,1.7659 7.10745,2.5631 l 3.2765,1.4493 2.52234,2.9468 2.52234,2.9468 0,4.5547 0,4.5548 -2.49158,7.9814 c -3.60768,11.5567 -5.99023,14.4952 -11.77175,14.5186 l -2.57582,0.01 -0.46365,-3.0918 c -0.25501,-1.7005 -0.89421,-3.6807 -1.42044,-4.4004 l -0.95679,-1.3084 -1.14424,0.9496 c -0.62933,0.5223 -1.56967,2.4228 -2.08964,4.2232 l -0.94539,3.2737 -1.70577,0.8354 -1.70577,0.8354 -2.47916,-0.5084 -2.47917,-0.5084 -0.38637,-3.3342 c -0.2125,-1.8338 -0.79294,-3.7341 -1.28987,-4.2229 l -0.90349,-0.8886 -1.36638,1.6722 c -0.75151,0.9198 -1.36639,2.4131 -1.36639,3.3185 0,0.9054 -0.31086,2.4639 -0.6908,3.4632 l -0.6908,1.817 -3.5592,0 -3.5592,0 0,-1.6823 c 0,-3.1704 -0.91001,-6.2312 -1.97398,-6.6395 l -1.06422,-0.4084 -0.90884,1.2429 c -0.49986,0.6836 -1.12036,2.4949 -1.37887,4.025 -0.25851,1.5301 -0.94183,3.2538 -1.51848,3.8305 -1.32835,1.3283 -4.76619,1.3589 -5.85081,0.052 z m -105.23598,-155.1116 -4.24368,-1.5312 -0.25213,-1.3093 c -0.13868,-0.72 0.35813,-2.1465 1.10401,-3.1699 2.86794,-3.935 2.73315,-5.8297 -0.51028,-7.1732 l -2.02312,-0.838 -1.11782,-2.7937 -1.11782,-2.7937 0.44397,-2.7764 0.44397,-2.7765 -12.65838,-12.6778 c -15.41748,-15.44117 -21.5151,-22.10857 -21.5014,-23.51058 0.0215,-2.2058 1.82667,-6.83861 3.59168,-9.21791 1.0076,-1.35827 3.4694,-4.70084 5.47068,-7.42793 5.48715,-7.4772 25.89789,-25.14583 29.04837,-25.14583 0.35359,0 1.05333,1.99219 1.555,4.42708 0.50165,2.4349 1.30497,5.54271 1.78515,6.90625 0.48018,1.36355 1.36648,4.39167 1.96957,6.72917 2.87871,11.15755 8.56494,30.01717 9.75154,32.34309 1.67716,3.28756 3.18403,4.34116 14.47275,10.12006 5.05906,2.5898 10.24657,5.7243 11.52781,6.9654 2.73208,2.6467 6.51376,9.8562 6.54975,12.4867 0.0138,1.0091 0.4656,2.6307 1.00399,3.6035 l 0.97889,1.7688 -0.73656,0.8875 c -0.40511,0.4881 -1.04974,0.8875 -1.43252,0.8875 -0.38277,0 -2.13624,0.972 -3.89659,2.16 -1.76036,1.1881 -3.71909,2.0614 -4.35273,1.9407 l -1.15209,-0.2194 -0.21182,-1.7636 c -0.30073,-2.5037 -3.75493,-12.2336 -4.68037,-13.1838 -0.42596,-0.4374 -1.80018,-0.9852 -3.05381,-1.2173 l -2.27935,-0.4221 -0.59826,1.069 -0.59828,1.0691 1.22801,4.7524 c 0.6754,2.6139 2.10297,7.206 3.17237,10.2048 l 1.94435,5.4523 -1.00308,1.212 c -2.0351,2.459 -10.55904,5.1123 -10.56829,3.2896 -0.0144,-2.8347 -2.2708,-13.3792 -3.02426,-14.1326 l -0.97153,-0.9715 -1.18056,0.453 -1.18057,0.453 -0.79621,2.9376 c -0.43792,1.6157 -1.0275,4.6256 -1.31018,6.6887 l -0.51398,3.751 -1.42882,1.9156 c -1.79736,2.4097 -2.43759,2.4581 -7.64737,0.5784 z m 40.72285,-115.89195 c 0,-0.38958 0.47812,-0.70833 1.0625,-0.70833 0.58437,0 1.0625,0.31875 1.0625,0.70833 0,0.38958 -0.47813,0.70833 -1.0625,0.70833 -0.58438,0 -1.0625,-0.31875 -1.0625,-0.70833 z m 85.3542,-32.56548 c -9.10062,-4.60719 -15.64092,-10.22443 -18.57724,-15.95535 -6.05124,-11.81048 -8.27339,-19.80881 -8.04885,-28.97087 l 0.13714,-5.59588 1.04392,-2.01871 c 0.57415,-1.11029 1.47406,-2.01871 1.99979,-2.01871 1.94082,0 44.67115,-20.86802 51.23325,-25.02056 1.64799,-1.04286 3.16889,-1.89611 3.37977,-1.89611 0.97728,0 6.01972,-3.82409 6.01972,-4.56525 0,-0.45942 -0.6375,-2.1548 -1.41666,-3.76748 -0.77917,-1.61269 -1.41667,-4.09379 -1.41667,-5.51355 l 0,-2.58138 2.55875,-5.42159 c 6.59052,-13.96424 8.20051,-17.00903 9.19579,-17.39095 1.27552,-0.48947 19.67604,-2.03222 24.72463,-2.07299 8.63819,-0.0698 11.6875,0.52453 11.6875,2.27776 0,0.68427 0.76371,3.79566 1.69713,6.91421 0.93343,3.11854 1.9262,8.42003 2.20618,11.78107 l 0.50904,6.11098 -3.01257,5.52084 c -4.33907,7.95177 -5.31691,9.15103 -8.93463,10.95782 l -3.24497,1.62061 -1.75862,-2.11213 c -0.96723,-1.16168 -2.58612,-3.86526 -3.59752,-6.00797 l -1.83891,-3.89583 -0.3096,-3.73071 -0.30961,-3.73072 0.90216,-3.2222 0.90216,-3.2222 -1.1127,-1.11269 -1.1127,-1.1127 -1.07614,0.41296 c -0.59189,0.22712 -1.62949,1.25745 -2.30579,2.28961 l -1.22963,1.87666 -0.0191,5.42183 -0.019,5.42183 1.26921,3.73347 1.26922,3.73347 -0.2389,4.74576 -0.2389,4.74577 1.27867,0.25731 1.27866,0.25731 0.80826,-2.1413 0.80825,-2.14131 2.69637,2.43601 c 3.30347,2.98448 4.21308,3.01066 9.27882,0.26693 4.69342,-2.54206 5.42543,-3.48058 10.68692,-13.70176 4.43275,-8.61123 4.42757,-8.57858 2.83765,-17.906 -0.62639,-3.67481 -0.95215,-6.86822 -0.72391,-7.09647 0.22825,-0.22824 1.94412,-0.56192 3.81305,-0.7415 l 3.39806,-0.32651 3.06952,3.33003 3.06951,3.33004 3.11051,6.56633 c 3.62644,7.65549 3.70945,8.30763 1.29885,10.2038 -0.9964,0.78377 -3.90373,3.38208 -6.46072,5.77402 l -4.64908,4.34899 0.81358,0.81358 0.81359,0.81358 6.17839,-1.58017 c 7.53074,-1.92605 6.97371,-1.93346 8.31305,0.11062 1.15228,1.75856 5.30286,15.49819 5.30286,17.55393 l 0,1.1806 -5.13541,3.42507 -5.13542,3.42506 0,1.0625 0,1.0625 3.52968,-0.12883 3.52968,-0.12884 0.53239,0.83718 c 0.68161,1.07181 0.62226,8.90887 -0.0811,10.70459 l -0.53557,1.36742 -4.55006,1.28606 -4.55005,1.28606 -4.73514,0.003 c -4.83631,0.003 -8.30217,-0.86795 -9.19326,-2.30976 -0.27438,-0.44397 -0.70237,-2.41622 -0.95106,-4.38277 -0.69182,-5.47048 -0.87054,-5.78671 -4.63622,-8.20314 l -3.51716,-2.25695 -0.30896,-1.51606 c -0.16992,-0.83383 -0.4459,-3.25943 -0.61328,-5.39022 l -0.30433,-3.87417 -1.24643,-0.73 c -0.68555,-0.4015 -2.12632,-1.44719 -3.20172,-2.32375 -2.19292,-1.78745 -3.54349,-1.99687 -4.79661,-0.74375 -1.45944,1.45944 -0.99924,3.43686 4.4625,19.17441 2.92188,8.41913 5.3125,15.78973 5.3125,16.37909 l 0,1.07158 -2.65625,0.73768 c -3.50336,0.97293 -10.49889,0.94691 -13.25386,-0.0493 l -2.1982,-0.79488 -5.12421,2.5805 c -6.56172,3.30443 -14.16584,7.91619 -16.43414,9.96701 -0.97396,0.88058 -4.00209,2.93454 -6.72917,4.56435 -2.72708,1.62981 -7.98646,4.85648 -11.6875,7.17038 -11.1218,6.95337 -15.22771,9.11116 -18.13181,9.52885 l -2.76402,0.39756 -2.83334,-1.43438 z"
         style="fill:#0386fb" />
      <path
         sodipodi:nodetypes="ccscccscccscscsscssscssscscssccsscccccssssscccsscsscccsscsssccsscssccsscccsscccsscccccsscsscccsscscsscsscsscccccccccsscccsscss"
         inkscape:connector-curvature="0"
         id="path3453"
         d="m 264.60458,715.23974 c 0.25972,-0.25972 0.68472,-0.25972 0.94445,0 0.25971,0.25973 0.0472,0.47223 -0.47223,0.47223 -0.51944,0 -0.73194,-0.2125 -0.47222,-0.47223 z m 48.875,0 c 0.25972,-0.25972 0.68472,-0.25972 0.94445,0 0.25971,0.25973 0.0472,0.47223 -0.47223,0.47223 -0.51944,0 -0.73194,-0.2125 -0.47222,-0.47223 z m -3.54167,-0.70833 c 0.25973,-0.25972 0.68472,-0.25972 0.94445,0 0.25972,0.25972 0.0472,0.47222 -0.47222,0.47222 -0.51945,0 -0.73195,-0.2125 -0.47223,-0.47222 z m -34,-0.70833 c 0.25972,-0.25972 0.68472,-0.25972 0.94445,0 0.25972,0.25972 0.0472,0.47222 -0.47223,0.47222 -0.51944,0 -0.73194,-0.2125 -0.47222,-0.47222 z M 223.6393,705.7953 c 0.24078,-0.38958 0.59715,-0.70833 0.79194,-0.70833 0.19479,0 0.15717,0.31875 -0.0836,0.70833 -0.24077,0.38958 -0.59715,0.70833 -0.79194,0.70833 -0.19479,0 -0.15717,-0.31875 0.0836,-0.70833 z m 10.96933,-11.51017 c 5.25396,-5.35677 9.63677,-9.73958 9.73958,-9.73958 0.50784,0 -0.50521,1.0527 -9.55266,9.92651 l -9.73958,9.55266 z m 202.94734,-4.569 c -2.3375,-0.12552 -9.12954,-1.04471 -15.09342,-2.04265 -10.20311,-1.70727 -13.59119,-2.65264 -28.46908,-7.94364 -3.31146,-1.17765 -11.59896,-3.88998 -18.41667,-6.0274 l -12.39583,-3.88649 -10.79647,-1.83185 c -5.93806,-1.00752 -15.871,-2.21771 -22.07322,-2.68931 l -11.27675,-0.85746 -11.21845,0.8681 -11.21844,0.8681 -10.58034,2.15544 -10.58033,2.15544 -7.48217,2.80014 c -10.10862,3.78306 -12.67734,4.89264 -15.872,6.85604 -4.49957,2.76538 -3.63182,1.35086 1.83395,-2.98954 6.36012,-5.0506 15.97921,-9.95148 30.28505,-15.43007 12.27594,-4.70123 21.30962,-6.9359 35.41667,-8.76109 l 9.5625,-1.2372 16.64583,-0.0564 16.64584,-0.0564 9.5625,1.26302 c 15.15982,2.00231 20.95891,3.12992 37.25935,7.24496 l 15.29579,3.86143 10.37868,1.39015 c 5.70827,0.76459 13.81454,1.59825 18.01393,1.85258 l 7.63526,0.46242 1.04183,-0.86464 1.04182,-0.86464 0,1.56539 c 0,3.9181 7.73193,14.57785 12.81689,17.6702 l 2.14642,1.30531 -2.34624,0.40674 c -1.29043,0.2237 -5.37436,0.6075 -9.0754,0.85288 -3.70105,0.24539 -9.02667,0.89843 -11.83472,1.45122 -4.86946,0.95858 -7.1804,1.02837 -16.85278,0.50896 z M 245.9518,683.56979 c 0,-0.14709 0.55781,-0.7049 1.23959,-1.23959 l 1.23958,-0.97214 -0.97215,1.23958 c -0.92534,1.17991 -1.50702,1.55513 -1.50702,0.97215 z m 251.86563,-53.22145 -4.19689,-0.84599 -1.95731,-2.19062 c -5.99283,-6.70714 -3.79467,-16.50975 4.6759,-20.85214 l 2.82484,-1.44814 3.6383,-0.0526 3.63829,-0.0526 2.90253,1.92081 c 1.5964,1.05644 3.45039,2.9581 4.11999,4.2259 l 1.21744,2.30511 0.0396,3.89584 0.0396,3.89583 -1.25314,2.47917 c -0.68922,1.36354 -1.8268,3.22502 -2.52794,4.13662 l -1.27481,1.65746 -3.84474,0.88566 -3.84473,0.88566 -4.19688,-0.84599 z m 9.56572,-3.67788 c 1.12516,-0.66465 2.5587,-2.28939 3.18561,-3.61053 l 1.13986,-2.40207 -0.4808,-2.56291 c -0.8225,-4.38428 -3.59214,-8.63269 -5.62787,-8.63269 l -0.91733,0 0.35493,4.96066 0.35494,4.96066 -1.22501,3.20764 c -1.90016,4.97551 -0.75685,6.42587 3.21567,4.07924 z m 32.74255,-0.17704 c -2.83677,-1.72968 -4.19824,-3.79377 -5.06714,-7.68208 l -0.68084,-3.04676 0.7216,-2.61991 c 1.01755,-3.6945 2.94689,-6.14209 5.9738,-7.57845 l 2.60755,-1.23737 2.98995,0.06 c 1.64447,0.033 4.29623,0.58268 5.8928,1.2215 l 2.90285,1.16149 1.45785,2.35886 c 0.80182,1.29738 1.62676,3.89491 1.8332,5.77229 l 0.37534,3.41341 -1.64252,3.18179 -1.64251,3.18178 -2.40683,1.59947 -2.40684,1.59946 -4.32233,-0.003 -4.32233,-0.003 -2.2636,-1.38021 z m 11.54298,-3.40659 c 0.42865,-0.28622 1.17774,-1.27624 1.66463,-2.20004 l 0.88526,-1.67964 -0.46705,-3.73817 -0.46705,-3.73818 -1.33003,-1.20366 c -0.73152,-0.66201 -1.66887,-0.99425 -2.08301,-0.7383 l -0.75296,0.46535 0,6.21515 c 0,6.96396 0.41572,8.04272 2.55021,6.61749 z"
         style="display:inline;fill:#95ccf8" />
      <path
         sodipodi:nodetypes="ccscccccssscccccscccccccssssssccssssss"
         inkscape:connector-curvature="0"
         id="path3451"
         d="m 521.97176,730.19664 c -2.91483,-1.26793 -3.77071,-2.98309 -3.79142,-7.59794 -0.009,-2.07092 -0.31063,-5.03226 -0.66964,-6.58075 l -0.65274,-2.81544 -0.6171,-8.08166 1.14372,-0.82743 -0.72684,0.44921 -0.72684,0.44921 0.80393,-1.50214 c 1.06366,-1.98748 2.54458,-1.89762 4.42817,0.26869 1.79559,2.0651 3.14614,2.22851 4.94722,0.59855 l 1.29535,-1.17229 0.0879,0.9952 c 0.0483,0.54737 1.53413,0.3958 1.44983,2.44111 0.27677,2.75449 0.31607,8.81796 0.46034,14.06399 l 0.22198,8.0724 -1.62177,1.13594 c -1.95331,1.36815 -3.08002,1.38745 -6.03203,0.10335 z m 6.63301,-4.44352 -0.32653,-1.25307 -0.0263,2.125 c -0.0145,1.16875 0.1325,1.73263 0.32654,1.25307 0.19402,-0.47957 0.20583,-1.43582 0.0263,-2.125 z m -3.18292,-6.03432 c 0.37562,-2.49633 -0.2163,-4.78125 -1.23862,-4.78125 -1.60144,0 -2.09081,3.40551 -0.78885,5.48959 0.85468,1.36809 1.76277,1.05084 2.02747,-0.70834 z m -4.06736,-5.44063 c 0.22414,-0.36267 0.0836,-0.85961 -0.31236,-1.10431 l -0.71989,-0.44491 0,1.1043 c 0,1.24421 0.42504,1.4274 1.03225,0.44492 z m 3.92608,-5.00728 c 0,-0.38959 -0.31875,-0.70834 -0.70833,-0.70834 -0.38958,0 -0.70833,0.31875 -0.70833,0.70834 0,0.38958 0.31875,0.70833 0.70833,0.70833 0.38958,0 0.70833,-0.31875 0.70833,-0.70833 z"
         style="display:inline;fill:#64aee8" />
    </g>
  </g>
</svg>
