  0
SECTION
  2
HEADER
  9
$ACADVER
  1
AC1014
  9
$HANDSEED
  5
FFFF
  9
$MEASUREMENT
 70
     1
  0
ENDSEC
  0
SECTION
  2
TABLES
  0
TABLE
  2
VPORT
  5
8
330
0
100
AcDbSymbolTable
 70
     4
  0
VPORT
  5
2E
330
8
100
AcDbSymbolTableRecord
100
AcDbViewportTableRecord
  2
*ACTIVE
 70
     0
 10
0.0
 20
0.0
 11
1.0
 21
1.0
 12
210.0
 22
148.5
 13
0.0
 23
0.0
 14
10.0
 24
10.0
 15
10.0
 25
10.0
 16
0.0
 26
0.0
 36
1.0
 17
0.0
 27
0.0
 37
0.0
 40
341.0
 41
1.24
 42
50.0
 43
0.0
 44
0.0
 50
0.0
 51
0.0
 71
     0
 72
   100
 73
     1
 74
     3
 75
     0
 76
     0
 77
     0
 78
     0
  0
ENDTAB
  0
TABLE
  2
LTYPE
  5
5
330
0
100
AcDbSymbolTable
 70
     1
  0
LTYPE
  5
14
330
5
100
AcDbSymbolTableRecord
100
AcDbLinetypeTableRecord
  2
BYBLOCK
 70
     0
  3

 72
    65
 73
     0
 40
0.0
  0
LTYPE
  5
15
330
5
100
AcDbSymbolTableRecord
100
AcDbLinetypeTableRecord
  2
BYLAYER
 70
     0
  3

 72
    65
 73
     0
 40
0.0
  0
LTYPE
  5
16
330
5
100
AcDbSymbolTableRecord
100
AcDbLinetypeTableRecord
  2
CONTINUOUS
 70
     0
  3
Solid line
 72
    65
 73
     0
 40
0.0
  0
ENDTAB
  0
TABLE
  2
LAYER
  5
2
100
AcDbSymbolTable
 70
2
  0
LAYER
  5
50
100
AcDbSymbolTableRecord
100
AcDbLayerTableRecord
  2
0
 70
0
  6
CONTINUOUS
  0
LAYER
  5
51
100
AcDbSymbolTableRecord
100
AcDbLayerTableRecord
  2
Ebene_1
 70
0
  6
CONTINUOUS
  0
ENDTAB
  0
TABLE
  2
STYLE
  5
3
330
0
100
AcDbSymbolTable
 70
     1
  0
STYLE
  5
11
330
3
100
AcDbSymbolTableRecord
100
AcDbTextStyleTableRecord
  2
STANDARD
 70
     0
 40
0.0
 41
1.0
 50
0.0
 71
     0
 42
2.5
  3
txt
  4

  0
ENDTAB
  0
TABLE
  2
VIEW
  5
6
330
0
100
AcDbSymbolTable
 70
     0
  0
ENDTAB
  0
TABLE
  2
UCS
  5
7
330
0
100
AcDbSymbolTable
 70
     0
  0
ENDTAB
  0
TABLE
  2
APPID
  5
9
330
0
100
AcDbSymbolTable
 70
     2
  0
APPID
  5
12
330
9
100
AcDbSymbolTableRecord
100
AcDbRegAppTableRecord
  2
ACAD
 70
     0
  0
ENDTAB
  0
TABLE
  2
DIMSTYLE
  5
A
330
0
100
AcDbSymbolTable
 70
     1
  0
DIMSTYLE
105
27
330
A
100
AcDbSymbolTableRecord
100
AcDbDimStyleTableRecord
  2
ISO-25
 70
     0
  3

  4

  5

  6

  7

 40
1.0
 41
2.5
 42
0.625
 43
3.75
 44
1.25
 45
0.0
 46
0.0
 47
0.0
 48
0.0
140
2.5
141
2.5
142
0.0
143
0.03937007874016
144
1.0
145
0.0
146
1.0
147
0.625
 71
     0
 72
     0
 73
     0
 74
     0
 75
     0
 76
     0
 77
     1
 78
     8
170
     0
171
     3
172
     1
173
     0
174
     0
175
     0
176
     0
177
     0
178
     0
270
     2
271
     2
272
     2
273
     2
274
     3
340
11
275
     0
280
     0
281
     0
282
     0
283
     0
284
     8
285
     0
286
     0
287
     3
288
     0
  0
ENDTAB
  0
TABLE
  2
BLOCK_RECORD
  5
1
330
0
100
AcDbSymbolTable
 70
     1
  0
BLOCK_RECORD
  5
1F
330
1
100
AcDbSymbolTableRecord
100
AcDbBlockTableRecord
  2
*MODEL_SPACE
  0
BLOCK_RECORD
  5
1B
330
1
100
AcDbSymbolTableRecord
100
AcDbBlockTableRecord
  2
*PAPER_SPACE
  0
ENDTAB
  0
ENDSEC
  0
SECTION
  2
BLOCKS
  0
BLOCK
  5
20
330
1F
100
AcDbEntity
  8
0
100
AcDbBlockBegin
  2
*MODEL_SPACE
 70
     0
 10
0.0
 20
0.0
 30
0.0
  3
*MODEL_SPACE
  1

  0
ENDBLK
  5
21
330
1F
100
AcDbEntity
  8
0
100
AcDbBlockEnd
  0
BLOCK
  5
1C
330
1B
100
AcDbEntity
 67
     1
  8
0
100
AcDbBlockBegin
  2
*PAPER_SPACE
  1

  0
ENDBLK
  5
1D
330
1B
100
AcDbEntity
 67
     1
  8
0
100
AcDbBlockEnd
  0
ENDSEC
  0
SECTION
  2
ENTITIES
  0
LWPOLYLINE
  5
100
100
AcDbEntity
  8
Ebene_1
 62
7
100
AcDbPolyline
 90
13
 70
1
 10
43.340513
 20
204.152380
 30
0.0
 10
45.211117
 20
204.152380
 30
0.0
 10
45.933429
 20
201.350442
 30
0.0
 10
46.650450
 20
204.152380
 30
0.0
 10
48.521054
 20
204.152380
 30
0.0
 10
48.521054
 20
199.548630
 30
0.0
 10
47.354242
 20
199.548630
 30
0.0
 10
47.354242
 20
203.059650
 30
0.0
 10
46.457304
 20
199.548630
 30
0.0
 10
45.401617
 20
199.548630
 30
0.0
 10
44.504679
 20
203.059650
 30
0.0
 10
44.504679
 20
199.548630
 30
0.0
 10
43.340513
 20
199.548630
 30
0.0
  0
SPLINE
  5
101
100
AcDbEntity
  8
Ebene_1
 62
7
100
AcDbSpline
 70
8
 71
3
 72
8
 73
4
 74
0
 40
0
 40
0
 40
0
 40
0
 40
1
 40
1
 40
1
 40
1
 10
53.841825
 20
201.408650
 30
0.0
 10
53.841825
 20
201.136130
 30
0.0
 10
53.799492
 20
200.879484
 30
0.0
 10
53.714825
 20
200.638713
 30
0.0
  0
SPLINE
  5
102
100
AcDbEntity
  8
Ebene_1
 62
7
100
AcDbSpline
 70
8
 71
3
 72
8
 73
4
 74
0
 40
0
 40
0
 40
0
 40
0
 40
1
 40
1
 40
1
 40
1
 10
53.714825
 20
200.638713
 30
0.0
 10
53.630159
 20
200.397942
 30
0.0
 10
53.497867
 20
200.186275
 30
0.0
 10
53.315304
 20
200.003713
 30
0.0
  0
SPLINE
  5
103
100
AcDbEntity
  8
Ebene_1
 62
7
100
AcDbSpline
 70
8
 71
3
 72
8
 73
4
 74
0
 40
0
 40
0
 40
0
 40
0
 40
1
 40
1
 40
1
 40
1
 10
53.315304
 20
200.003713
 30
0.0
 10
53.135388
 20
199.823796
 30
0.0
 10
52.944888
 20
199.696796
 30
0.0
 10
52.746450
 20
199.622713
 30
0.0
  0
SPLINE
  5
104
100
AcDbEntity
  8
Ebene_1
 62
7
100
AcDbSpline
 70
8
 71
3
 72
8
 73
4
 74
0
 40
0
 40
0
 40
0
 40
0
 40
1
 40
1
 40
1
 40
1
 10
52.746450
 20
199.622713
 30
0.0
 10
52.471284
 20
199.519525
 30
0.0
 10
52.137909
 20
199.469255
 30
0.0
 10
51.751617
 20
199.469255
 30
0.0
  0
SPLINE
  5
105
100
AcDbEntity
  8
Ebene_1
 62
7
100
AcDbSpline
 70
8
 71
3
 72
8
 73
4
 74
0
 40
0
 40
0
 40
0
 40
0
 40
1
 40
1
 40
1
 40
1
 10
51.751617
 20
199.469255
 30
0.0
 10
51.526721
 20
199.469255
 30
0.0
 10
51.283304
 20
199.485130
 30
0.0
 10
51.018721
 20
199.516880
 30
0.0
  0
SPLINE
  5
106
100
AcDbEntity
  8
Ebene_1
 62
7
100
AcDbSpline
 70
8
 71
3
 72
8
 73
4
 74
0
 40
0
 40
0
 40
0
 40
0
 40
1
 40
1
 40
1
 40
1
 10
51.018721
 20
199.516880
 30
0.0
 10
50.754138
 20
199.548630
 30
0.0
 10
50.531888
 20
199.609484
 30
0.0
 10
50.354617
 20
199.704734
 30
0.0
  0
SPLINE
  5
107
100
AcDbEntity
  8
Ebene_1
 62
7
100
AcDbSpline
 70
8
 71
3
 72
8
 73
4
 74
0
 40
0
 40
0
 40
0
 40
0
 40
1
 40
1
 40
1
 40
1
 10
50.354617
 20
199.704734
 30
0.0
 10
50.177346
 20
199.797338
 30
0.0
 10
50.013304
 20
199.929630
 30
0.0
 10
49.865138
 20
200.101609
 30
0.0
  0
SPLINE
  5
108
100
AcDbEntity
  8
Ebene_1
 62
7
100
AcDbSpline
 70
8
 71
3
 72
8
 73
4
 74
0
 40
0
 40
0
 40
0
 40
0
 40
1
 40
1
 40
1
 40
1
 10
49.865138
 20
200.101609
 30
0.0
 10
49.716971
 20
200.273588
 30
0.0
 10
49.616429
 20
200.450859
 30
0.0
 10
49.560867
 20
200.630775
 30
0.0
  0
SPLINE
  5
109
100
AcDbEntity
  8
Ebene_1
 62
7
100
AcDbSpline
 70
8
 71
3
 72
8
 73
4
 74
0
 40
0
 40
0
 40
0
 40
0
 40
1
 40
1
 40
1
 40
1
 10
49.560867
 20
200.630775
 30
0.0
 10
49.473554
 20
200.924463
 30
0.0
 10
49.428575
 20
201.183755
 30
0.0
 10
49.428575
 20
201.408650
 30
0.0
  0
LWPOLYLINE
  5
10a
100
AcDbEntity
  8
Ebene_1
 62
7
100
AcDbPolyline
 90
3
 70
0
 10
52.423659
 20
204.152380
 30
0.0
 10
53.841825
 20
204.152380
 30
0.0
 10
53.841825
 20
201.408650
 30
0.0
  0
SPLINE
  5
10b
100
AcDbEntity
  8
Ebene_1
 62
7
100
AcDbSpline
 70
8
 71
3
 72
8
 73
4
 74
0
 40
0
 40
0
 40
0
 40
0
 40
1
 40
1
 40
1
 40
1
 10
50.846742
 20
201.345150
 30
0.0
 10
50.846742
 20
201.093796
 30
0.0
 10
50.915534
 20
200.898005
 30
0.0
 10
51.055763
 20
200.757775
 30
0.0
  0
SPLINE
  5
10c
100
AcDbEntity
  8
Ebene_1
 62
7
100
AcDbSpline
 70
8
 71
3
 72
8
 73
4
 74
0
 40
0
 40
0
 40
0
 40
0
 40
1
 40
1
 40
1
 40
1
 10
51.055763
 20
200.757775
 30
0.0
 10
51.195992
 20
200.617546
 30
0.0
 10
51.389138
 20
200.546109
 30
0.0
 10
51.635200
 20
200.546109
 30
0.0
  0
SPLINE
  5
10d
100
AcDbEntity
  8
Ebene_1
 62
7
100
AcDbSpline
 70
8
 71
3
 72
8
 73
4
 74
0
 40
0
 40
0
 40
0
 40
0
 40
1
 40
1
 40
1
 40
1
 10
51.635200
 20
200.546109
 30
0.0
 10
51.881263
 20
200.546109
 30
0.0
 10
52.071763
 20
200.614900
 30
0.0
 10
52.211992
 20
200.755130
 30
0.0
  0
SPLINE
  5
10e
100
AcDbEntity
  8
Ebene_1
 62
7
100
AcDbSpline
 70
8
 71
3
 72
8
 73
4
 74
0
 40
0
 40
0
 40
0
 40
0
 40
1
 40
1
 40
1
 40
1
 10
52.211992
 20
200.755130
 30
0.0
 10
52.352221
 20
200.895359
 30
0.0
 10
52.421013
 20
201.091150
 30
0.0
 10
52.421013
 20
201.347796
 30
0.0
  0
LWPOLYLINE
  5
10f
100
AcDbEntity
  8
Ebene_1
 62
7
100
AcDbPolyline
 90
4
 70
0
 10
49.428575
 20
201.408650
 30
0.0
 10
49.428575
 20
204.152380
 30
0.0
 10
50.846742
 20
204.152380
 30
0.0
 10
50.846742
 20
201.345150
 30
0.0
  0
LWPOLYLINE
  5
110
100
AcDbEntity
  8
Ebene_1
 62
7
100
AcDbPolyline
 90
3
 70
0
 10
52.421013
 20
201.347796
 30
0.0
 10
52.421013
 20
204.152380
 30
0.0
 10
52.423659
 20
204.152380
 30
0.0
  0
LWPOLYLINE
  5
111
100
AcDbEntity
  8
Ebene_1
 62
7
100
AcDbPolyline
 90
11
 70
1
 10
54.794325
 20
204.152380
 30
0.0
 10
56.122533
 20
204.152380
 30
0.0
 10
57.855554
 20
201.604442
 30
0.0
 10
57.855554
 20
204.152380
 30
0.0
 10
59.196992
 20
204.152380
 30
0.0
 10
59.196992
 20
199.548630
 30
0.0
 10
57.855554
 20
199.548630
 30
0.0
 10
56.130471
 20
202.075400
 30
0.0
 10
56.130471
 20
199.548630
 30
0.0
 10
54.791679
 20
199.548630
 30
0.0
 10
54.791679
 20
204.152380
 30
0.0
  0
LWPOLYLINE
  5
112
100
AcDbEntity
  8
Ebene_1
 62
7
100
AcDbPolyline
 90
4
 70
1
 10
60.197117
 20
204.152380
 30
0.0
 10
61.623221
 20
204.152380
 30
0.0
 10
61.623221
 20
199.548630
 30
0.0
 10
60.197117
 20
199.548630
 30
0.0
  0
SPLINE
  5
113
100
AcDbEntity
  8
Ebene_1
 62
7
100
AcDbSpline
 70
8
 71
3
 72
8
 73
4
 74
0
 40
0
 40
0
 40
0
 40
0
 40
1
 40
1
 40
1
 40
1
 10
66.954575
 20
201.059400
 30
0.0
 10
66.869908
 20
200.710150
 30
0.0
 10
66.740263
 20
200.419109
 30
0.0
 10
66.557700
 20
200.183630
 30
0.0
  0
SPLINE
  5
114
100
AcDbEntity
  8
Ebene_1
 62
7
100
AcDbSpline
 70
8
 71
3
 72
8
 73
4
 74
0
 40
0
 40
0
 40
0
 40
0
 40
1
 40
1
 40
1
 40
1
 10
66.557700
 20
200.183630
 30
0.0
 10
66.375138
 20
199.948150
 30
0.0
 10
66.152888
 20
199.773525
 30
0.0
 10
65.888304
 20
199.651817
 30
0.0
  0
SPLINE
  5
115
100
AcDbEntity
  8
Ebene_1
 62
7
100
AcDbSpline
 70
8
 71
3
 72
8
 73
4
 74
0
 40
0
 40
0
 40
0
 40
0
 40
1
 40
1
 40
1
 40
1
 10
65.888304
 20
199.651817
 30
0.0
 10
65.621075
 20
199.532755
 30
0.0
 10
65.282408
 20
199.471900
 30
0.0
 10
64.869658
 20
199.471900
 30
0.0
  0
SPLINE
  5
116
100
AcDbEntity
  8
Ebene_1
 62
7
100
AcDbSpline
 70
8
 71
3
 72
8
 73
4
 74
0
 40
0
 40
0
 40
0
 40
0
 40
1
 40
1
 40
1
 40
1
 10
64.869658
 20
199.471900
 30
0.0
 10
64.369596
 20
199.471900
 30
0.0
 10
63.959492
 20
199.543338
 30
0.0
 10
63.644638
 20
199.688859
 30
0.0
  0
SPLINE
  5
117
100
AcDbEntity
  8
Ebene_1
 62
7
100
AcDbSpline
 70
8
 71
3
 72
8
 73
4
 74
0
 40
0
 40
0
 40
0
 40
0
 40
1
 40
1
 40
1
 40
1
 10
63.644638
 20
199.688859
 30
0.0
 10
63.327138
 20
199.834380
 30
0.0
 10
63.054617
 20
200.091025
 30
0.0
 10
62.824429
 20
200.456150
 30
0.0
  0
SPLINE
  5
118
100
AcDbEntity
  8
Ebene_1
 62
7
100
AcDbSpline
 70
8
 71
3
 72
8
 73
4
 74
0
 40
0
 40
0
 40
0
 40
0
 40
1
 40
1
 40
1
 40
1
 10
62.824429
 20
200.456150
 30
0.0
 10
62.594242
 20
200.821275
 30
0.0
 10
62.477825
 20
201.289588
 30
0.0
 10
62.477825
 20
201.861088
 30
0.0
  0
SPLINE
  5
119
100
AcDbEntity
  8
Ebene_1
 62
7
100
AcDbSpline
 70
8
 71
3
 72
8
 73
4
 74
0
 40
0
 40
0
 40
0
 40
0
 40
1
 40
1
 40
1
 40
1
 10
62.477825
 20
201.861088
 30
0.0
 10
62.477825
 20
202.623088
 30
0.0
 10
62.681554
 20
203.207817
 30
0.0
 10
63.086367
 20
203.617921
 30
0.0
  0
SPLINE
  5
11a
100
AcDbEntity
  8
Ebene_1
 62
7
100
AcDbSpline
 70
8
 71
3
 72
8
 73
4
 74
0
 40
0
 40
0
 40
0
 40
0
 40
1
 40
1
 40
1
 40
1
 10
63.086367
 20
203.617921
 30
0.0
 10
63.491179
 20
204.028025
 30
0.0
 10
64.065325
 20
204.231755
 30
0.0
 10
64.806158
 20
204.231755
 30
0.0
  0
SPLINE
  5
11b
100
AcDbEntity
  8
Ebene_1
 62
7
100
AcDbSpline
 70
8
 71
3
 72
8
 73
4
 74
0
 40
0
 40
0
 40
0
 40
0
 40
1
 40
1
 40
1
 40
1
 10
64.806158
 20
204.231755
 30
0.0
 10
65.385596
 20
204.231755
 30
0.0
 10
65.840679
 20
204.115338
 30
0.0
 10
66.174054
 20
203.879859
 30
0.0
  0
SPLINE
  5
11c
100
AcDbEntity
  8
Ebene_1
 62
7
100
AcDbSpline
 70
8
 71
3
 72
8
 73
4
 74
0
 40
0
 40
0
 40
0
 40
0
 40
1
 40
1
 40
1
 40
1
 10
66.174054
 20
203.879859
 30
0.0
 10
66.504783
 20
203.644380
 30
0.0
 10
66.753492
 20
203.284546
 30
0.0
 10
66.912242
 20
202.800359
 30
0.0
  0
LWPOLYLINE
  5
11d
100
AcDbEntity
  8
Ebene_1
 62
7
100
AcDbPolyline
 90
2
 70
0
 10
65.708388
 20
201.435109
 30
0.0
 10
66.954575
 20
201.059400
 30
0.0
  0
SPLINE
  5
11e
100
AcDbEntity
  8
Ebene_1
 62
7
100
AcDbSpline
 70
8
 71
3
 72
8
 73
4
 74
0
 40
0
 40
0
 40
0
 40
0
 40
1
 40
1
 40
1
 40
1
 10
65.655471
 20
202.519900
 30
0.0
 10
65.610492
 20
202.660130
 30
0.0
 10
65.565513
 20
202.763317
 30
0.0
 10
65.517888
 20
202.826817
 30
0.0
  0
SPLINE
  5
11f
100
AcDbEntity
  8
Ebene_1
 62
7
100
AcDbSpline
 70
8
 71
3
 72
8
 73
4
 74
0
 40
0
 40
0
 40
0
 40
0
 40
1
 40
1
 40
1
 40
1
 10
65.517888
 20
202.826817
 30
0.0
 10
65.438513
 20
202.935296
 30
0.0
 10
65.340617
 20
203.019963
 30
0.0
 10
65.226846
 20
203.078171
 30
0.0
  0
SPLINE
  5
120
100
AcDbEntity
  8
Ebene_1
 62
7
100
AcDbSpline
 70
8
 71
3
 72
8
 73
4
 74
0
 40
0
 40
0
 40
0
 40
0
 40
1
 40
1
 40
1
 40
1
 10
65.226846
 20
203.078171
 30
0.0
 10
65.113075
 20
203.136380
 30
0.0
 10
64.983429
 20
203.165484
 30
0.0
 10
64.840554
 20
203.165484
 30
0.0
  0
SPLINE
  5
121
100
AcDbEntity
  8
Ebene_1
 62
7
100
AcDbSpline
 70
8
 71
3
 72
8
 73
4
 74
0
 40
0
 40
0
 40
0
 40
0
 40
1
 40
1
 40
1
 40
1
 10
64.840554
 20
203.165484
 30
0.0
 10
64.517763
 20
203.165484
 30
0.0
 10
64.271700
 20
203.035838
 30
0.0
 10
64.099721
 20
202.776546
 30
0.0
  0
SPLINE
  5
122
100
AcDbEntity
  8
Ebene_1
 62
7
100
AcDbSpline
 70
8
 71
3
 72
8
 73
4
 74
0
 40
0
 40
0
 40
0
 40
0
 40
1
 40
1
 40
1
 40
1
 10
64.099721
 20
202.776546
 30
0.0
 10
63.970075
 20
202.583400
 30
0.0
 10
63.903929
 20
202.281775
 30
0.0
 10
63.903929
 20
201.869025
 30
0.0
  0
SPLINE
  5
123
100
AcDbEntity
  8
Ebene_1
 62
7
100
AcDbSpline
 70
8
 71
3
 72
8
 73
4
 74
0
 40
0
 40
0
 40
0
 40
0
 40
1
 40
1
 40
1
 40
1
 10
63.903929
 20
201.869025
 30
0.0
 10
63.903929
 20
201.358380
 30
0.0
 10
63.980658
 20
201.009130
 30
0.0
 10
64.136763
 20
200.818630
 30
0.0
  0
SPLINE
  5
124
100
AcDbEntity
  8
Ebene_1
 62
7
100
AcDbSpline
 70
8
 71
3
 72
8
 73
4
 74
0
 40
0
 40
0
 40
0
 40
0
 40
1
 40
1
 40
1
 40
1
 10
64.136763
 20
200.818630
 30
0.0
 10
64.292867
 20
200.628130
 30
0.0
 10
64.509825
 20
200.535525
 30
0.0
 10
64.790283
 20
200.535525
 30
0.0
  0
SPLINE
  5
125
100
AcDbEntity
  8
Ebene_1
 62
7
100
AcDbSpline
 70
8
 71
3
 72
8
 73
4
 74
0
 40
0
 40
0
 40
0
 40
0
 40
1
 40
1
 40
1
 40
1
 10
64.790283
 20
200.535525
 30
0.0
 10
65.062804
 20
200.535525
 30
0.0
 10
65.269179
 20
200.612255
 30
0.0
 10
65.406763
 20
200.765713
 30
0.0
  0
SPLINE
  5
126
100
AcDbEntity
  8
Ebene_1
 62
7
100
AcDbSpline
 70
8
 71
3
 72
8
 73
4
 74
0
 40
0
 40
0
 40
0
 40
0
 40
1
 40
1
 40
1
 40
1
 10
65.406763
 20
200.765713
 30
0.0
 10
65.544346
 20
200.919171
 30
0.0
 10
65.644888
 20
201.144067
 30
0.0
 10
65.708388
 20
201.435109
 30
0.0
  0
LWPOLYLINE
  5
127
100
AcDbEntity
  8
Ebene_1
 62
7
100
AcDbPolyline
 90
2
 70
0
 10
66.912242
 20
202.800359
 30
0.0
 10
65.655471
 20
202.519900
 30
0.0
  0
LWPOLYLINE
  5
128
100
AcDbEntity
  8
Ebene_1
 62
7
100
AcDbPolyline
 90
1
 70
1
 10
65.708388
 20
201.435109
 30
0.0
  0
LWPOLYLINE
  5
129
100
AcDbEntity
  8
Ebene_1
 62
7
100
AcDbPolyline
 90
12
 70
1
 10
67.650429
 20
204.152380
 30
0.0
 10
69.073887
 20
204.152380
 30
0.0
 10
69.073887
 20
202.541067
 30
0.0
 10
70.629637
 20
202.541067
 30
0.0
 10
70.629637
 20
204.152380
 30
0.0
 10
72.058387
 20
204.152380
 30
0.0
 10
72.058387
 20
199.548630
 30
0.0
 10
70.629637
 20
199.548630
 30
0.0
 10
70.629637
 20
201.411296
 30
0.0
 10
69.073887
 20
201.411296
 30
0.0
 10
69.073887
 20
199.548630
 30
0.0
 10
67.650429
 20
199.548630
 30
0.0
  0
LWPOLYLINE
  5
12a
100
AcDbEntity
  8
Ebene_1
 62
7
100
AcDbPolyline
 90
13
 70
1
 10
43.277013
 20
198.117234
 30
0.0
 10
45.414846
 20
198.117234
 30
0.0
 10
46.240346
 20
194.915775
 30
0.0
 10
47.057909
 20
198.117234
 30
0.0
 10
49.195742
 20
198.117234
 30
0.0
 10
49.195742
 20
192.857317
 30
0.0
 10
47.864888
 20
192.857317
 30
0.0
 10
47.864888
 20
196.868400
 30
0.0
 10
46.838304
 20
192.857317
 30
0.0
 10
45.634450
 20
192.857317
 30
0.0
 10
44.610513
 20
196.868400
 30
0.0
 10
44.610513
 20
192.857317
 30
0.0
 10
43.277013
 20
192.857317
 30
0.0
  0
LWPOLYLINE
  5
12b
100
AcDbEntity
  8
Ebene_1
 62
7
100
AcDbPolyline
 90
8
 70
1
 10
53.466117
 20
193.725150
 30
0.0
 10
51.619325
 20
193.725150
 30
0.0
 10
51.362679
 20
192.857317
 30
0.0
 10
49.703742
 20
192.857317
 30
0.0
 10
51.680179
 20
198.117234
 30
0.0
 10
53.452888
 20
198.117234
 30
0.0
 10
55.429325
 20
192.857317
 30
0.0
 10
53.728054
 20
192.857317
 30
0.0
  0
LWPOLYLINE
  5
12c
100
AcDbEntity
  8
Ebene_1
 62
7
100
AcDbPolyline
 90
3
 70
1
 10
53.130096
 20
194.862859
 30
0.0
 10
52.550659
 20
196.754630
 30
0.0
 10
51.976513
 20
194.862859
 30
0.0
  0
LWPOLYLINE
  5
12d
100
AcDbEntity
  8
Ebene_1
 62
7
100
AcDbPolyline
 90
12
 70
1
 10
55.955846
 20
198.117234
 30
0.0
 10
57.580388
 20
198.117234
 30
0.0
 10
57.580388
 20
196.130213
 30
0.0
 10
59.284304
 20
198.117234
 30
0.0
 10
61.445950
 20
198.117234
 30
0.0
 10
59.525075
 20
196.132859
 30
0.0
 10
61.530617
 20
192.857317
 30
0.0
 10
59.527721
 20
192.857317
 30
0.0
 10
58.419117
 20
195.021609
 30
0.0
 10
57.580388
 20
194.140546
 30
0.0
 10
57.580388
 20
192.857317
 30
0.0
 10
55.955846
 20
192.857317
 30
0.0
  0
LWPOLYLINE
  5
12e
100
AcDbEntity
  8
Ebene_1
 62
7
100
AcDbPolyline
 90
12
 70
1
 10
62.067721
 20
198.117234
 30
0.0
 10
66.422763
 20
198.117234
 30
0.0
 10
66.422763
 20
196.995400
 30
0.0
 10
63.694908
 20
196.995400
 30
0.0
 10
63.694908
 20
196.159317
 30
0.0
 10
66.224325
 20
196.159317
 30
0.0
 10
66.224325
 20
195.085109
 30
0.0
 10
63.694908
 20
195.085109
 30
0.0
 10
63.694908
 20
194.047942
 30
0.0
 10
66.502138
 20
194.047942
 30
0.0
 10
66.502138
 20
192.857317
 30
0.0
 10
62.067721
 20
192.857317
 30
0.0
  0
SPLINE
  5
12f
100
AcDbEntity
  8
Ebene_1
 62
7
100
AcDbSpline
 70
8
 71
3
 72
8
 73
4
 74
0
 40
0
 40
0
 40
0
 40
0
 40
1
 40
1
 40
1
 40
1
 10
70.108408
 20
198.117234
 30
0.0
 10
70.611117
 20
198.117234
 30
0.0
 10
70.994762
 20
198.074900
 30
0.0
 10
71.259346
 20
197.987588
 30
0.0
  0
SPLINE
  5
130
100
AcDbEntity
  8
Ebene_1
 62
7
100
AcDbSpline
 70
8
 71
3
 72
8
 73
4
 74
0
 40
0
 40
0
 40
0
 40
0
 40
1
 40
1
 40
1
 40
1
 10
71.259346
 20
197.987588
 30
0.0
 10
71.523929
 20
197.900275
 30
0.0
 10
71.738242
 20
197.741525
 30
0.0
 10
71.902283
 20
197.508692
 30
0.0
  0
SPLINE
  5
131
100
AcDbEntity
  8
Ebene_1
 62
7
100
AcDbSpline
 70
8
 71
3
 72
8
 73
4
 74
0
 40
0
 40
0
 40
0
 40
0
 40
1
 40
1
 40
1
 40
1
 10
71.902283
 20
197.508692
 30
0.0
 10
72.063679
 20
197.275859
 30
0.0
 10
72.145700
 20
196.990109
 30
0.0
 10
72.145700
 20
196.656734
 30
0.0
  0
SPLINE
  5
132
100
AcDbEntity
  8
Ebene_1
 62
7
100
AcDbSpline
 70
8
 71
3
 72
8
 73
4
 74
0
 40
0
 40
0
 40
0
 40
0
 40
1
 40
1
 40
1
 40
1
 10
72.145700
 20
196.656734
 30
0.0
 10
72.145700
 20
196.365692
 30
0.0
 10
72.082200
 20
196.114338
 30
0.0
 10
71.957846
 20
195.902671
 30
0.0
  0
SPLINE
  5
133
100
AcDbEntity
  8
Ebene_1
 62
7
100
AcDbSpline
 70
8
 71
3
 72
8
 73
4
 74
0
 40
0
 40
0
 40
0
 40
0
 40
1
 40
1
 40
1
 40
1
 10
71.957846
 20
195.902671
 30
0.0
 10
71.833492
 20
195.691005
 30
0.0
 10
71.661512
 20
195.519025
 30
0.0
 10
71.444554
 20
195.386734
 30
0.0
  0
SPLINE
  5
134
100
AcDbEntity
  8
Ebene_1
 62
7
100
AcDbSpline
 70
8
 71
3
 72
8
 73
4
 74
0
 40
0
 40
0
 40
0
 40
0
 40
1
 40
1
 40
1
 40
1
 10
71.444554
 20
195.386734
 30
0.0
 10
71.304325
 20
195.302067
 30
0.0
 10
71.116471
 20
195.233275
 30
0.0
 10
70.873054
 20
195.177713
 30
0.0
  0
SPLINE
  5
135
100
AcDbEntity
  8
Ebene_1
 62
7
100
AcDbSpline
 70
8
 71
3
 72
8
 73
4
 74
0
 40
0
 40
0
 40
0
 40
0
 40
1
 40
1
 40
1
 40
1
 10
70.873054
 20
195.177713
 30
0.0
 10
71.066200
 20
195.114213
 30
0.0
 10
71.206429
 20
195.048067
 30
0.0
 10
71.296387
 20
194.984567
 30
0.0
  0
SPLINE
  5
136
100
AcDbEntity
  8
Ebene_1
 62
7
100
AcDbSpline
 70
8
 71
3
 72
8
 73
4
 74
0
 40
0
 40
0
 40
0
 40
0
 40
1
 40
1
 40
1
 40
1
 10
71.296387
 20
194.984567
 30
0.0
 10
71.357242
 20
194.942234
 30
0.0
 10
71.441908
 20
194.849630
 30
0.0
 10
71.555679
 20
194.706755
 30
0.0
  0
SPLINE
  5
137
100
AcDbEntity
  8
Ebene_1
 62
7
100
AcDbSpline
 70
8
 71
3
 72
8
 73
4
 74
0
 40
0
 40
0
 40
0
 40
0
 40
1
 40
1
 40
1
 40
1
 10
71.555679
 20
194.706755
 30
0.0
 10
71.669450
 20
194.566525
 30
0.0
 10
71.746179
 20
194.455400
 30
0.0
 10
71.783221
 20
194.378671
 30
0.0
  0
LWPOLYLINE
  5
138
100
AcDbEntity
  8
Ebene_1
 62
7
100
AcDbPolyline
 90
3
 70
0
 10
67.399075
 20
192.857317
 30
0.0
 10
67.399075
 20
198.117234
 30
0.0
 10
70.108408
 20
198.117234
 30
0.0
  0
SPLINE
  5
139
100
AcDbEntity
  8
Ebene_1
 62
7
100
AcDbSpline
 70
8
 71
3
 72
8
 73
4
 74
0
 40
0
 40
0
 40
0
 40
0
 40
1
 40
1
 40
1
 40
1
 10
69.867637
 20
194.463338
 30
0.0
 10
69.756512
 20
194.672359
 30
0.0
 10
69.658617
 20
194.807296
 30
0.0
 10
69.573950
 20
194.868150
 30
0.0
  0
SPLINE
  5
13a
100
AcDbEntity
  8
Ebene_1
 62
7
100
AcDbSpline
 70
8
 71
3
 72
8
 73
4
 74
0
 40
0
 40
0
 40
0
 40
0
 40
1
 40
1
 40
1
 40
1
 10
69.573950
 20
194.868150
 30
0.0
 10
69.457533
 20
194.950171
 30
0.0
 10
69.322596
 20
194.989859
 30
0.0
 10
69.174429
 20
194.989859
 30
0.0
  0
LWPOLYLINE
  5
13b
100
AcDbEntity
  8
Ebene_1
 62
7
100
AcDbPolyline
 90
4
 70
0
 10
71.783221
 20
194.378671
 30
0.0
 10
72.571679
 20
192.854671
 30
0.0
 10
70.735471
 20
192.854671
 30
0.0
 10
69.867637
 20
194.463338
 30
0.0
  0
LWPOLYLINE
  5
13c
100
AcDbEntity
  8
Ebene_1
 62
7
100
AcDbPolyline
 90
5
 70
0
 10
69.174429
 20
194.989859
 30
0.0
 10
69.031554
 20
194.989859
 30
0.0
 10
69.031554
 20
192.854671
 30
0.0
 10
67.399075
 20
192.854671
 30
0.0
 10
67.399075
 20
192.857317
 30
0.0
  0
SPLINE
  5
13d
100
AcDbEntity
  8
Ebene_1
 62
7
100
AcDbSpline
 70
8
 71
3
 72
8
 73
4
 74
0
 40
0
 40
0
 40
0
 40
0
 40
1
 40
1
 40
1
 40
1
 10
69.716825
 20
195.987338
 30
0.0
 10
69.790908
 20
195.987338
 30
0.0
 10
69.933783
 20
196.011150
 30
0.0
 10
70.148096
 20
196.058775
 30
0.0
  0
SPLINE
  5
13e
100
AcDbEntity
  8
Ebene_1
 62
7
100
AcDbSpline
 70
8
 71
3
 72
8
 73
4
 74
0
 40
0
 40
0
 40
0
 40
0
 40
1
 40
1
 40
1
 40
1
 10
70.148096
 20
196.058775
 30
0.0
 10
70.256575
 20
196.079942
 30
0.0
 10
70.343887
 20
196.135505
 30
0.0
 10
70.412679
 20
196.222817
 30
0.0
  0
SPLINE
  5
13f
100
AcDbEntity
  8
Ebene_1
 62
7
100
AcDbSpline
 70
8
 71
3
 72
8
 73
4
 74
0
 40
0
 40
0
 40
0
 40
0
 40
1
 40
1
 40
1
 40
1
 10
70.412679
 20
196.222817
 30
0.0
 10
70.481471
 20
196.310130
 30
0.0
 10
70.515867
 20
196.413317
 30
0.0
 10
70.515867
 20
196.527088
 30
0.0
  0
SPLINE
  5
140
100
AcDbEntity
  8
Ebene_1
 62
7
100
AcDbSpline
 70
8
 71
3
 72
8
 73
4
 74
0
 40
0
 40
0
 40
0
 40
0
 40
1
 40
1
 40
1
 40
1
 10
70.515867
 20
196.527088
 30
0.0
 10
70.515867
 20
196.696421
 30
0.0
 10
70.462950
 20
196.826067
 30
0.0
 10
70.354471
 20
196.918671
 30
0.0
  0
SPLINE
  5
141
100
AcDbEntity
  8
Ebene_1
 62
7
100
AcDbSpline
 70
8
 71
3
 72
8
 73
4
 74
0
 40
0
 40
0
 40
0
 40
0
 40
1
 40
1
 40
1
 40
1
 10
70.354471
 20
196.918671
 30
0.0
 10
70.245992
 20
197.008630
 30
0.0
 10
70.044908
 20
197.056255
 30
0.0
 10
69.748575
 20
197.056255
 30
0.0
  0
LWPOLYLINE
  5
142
100
AcDbEntity
  8
Ebene_1
 62
7
100
AcDbPolyline
 90
2
 70
0
 10
69.031554
 20
195.987338
 30
0.0
 10
69.716825
 20
195.987338
 30
0.0
  0
LWPOLYLINE
  5
143
100
AcDbEntity
  8
Ebene_1
 62
7
100
AcDbPolyline
 90
4
 70
0
 10
69.748575
 20
197.056255
 30
0.0
 10
69.034200
 20
197.056255
 30
0.0
 10
69.034200
 20
195.987338
 30
0.0
 10
69.031554
 20
195.987338
 30
0.0
  0
LWPOLYLINE
  5
144
100
AcDbEntity
  8
Ebene_1
 62
7
100
AcDbPolyline
 90
6
 70
1
 10
43.202929
 20
191.798984
 30
0.0
 10
46.287971
 20
191.798984
 30
0.0
 10
46.287971
 20
184.276880
 30
0.0
 10
51.100742
 20
184.276880
 30
0.0
 10
51.100742
 20
181.818901
 30
0.0
 10
43.202929
 20
181.818901
 30
0.0
  0
LWPOLYLINE
  5
145
100
AcDbEntity
  8
Ebene_1
 62
7
100
AcDbPolyline
 90
8
 70
1
 10
58.638721
 20
183.467255
 30
0.0
 10
55.138283
 20
183.467255
 30
0.0
 10
54.651450
 20
181.818901
 30
0.0
 10
51.502909
 20
181.818901
 30
0.0
 10
55.254700
 20
191.798984
 30
0.0
 10
58.617554
 20
191.798984
 30
0.0
 10
62.366700
 20
181.818901
 30
0.0
 10
59.138783
 20
181.818901
 30
0.0
  0
LWPOLYLINE
  5
146
100
AcDbEntity
  8
Ebene_1
 62
7
100
AcDbPolyline
 90
3
 70
1
 10
57.998429
 20
185.626255
 30
0.0
 10
56.897763
 20
189.214005
 30
0.0
 10
55.807679
 20
185.626255
 30
0.0
  0
SPLINE
  5
147
100
AcDbEntity
  8
Ebene_1
 62
7
100
AcDbSpline
 70
8
 71
3
 72
8
 73
4
 74
0
 40
0
 40
0
 40
0
 40
0
 40
1
 40
1
 40
1
 40
1
 10
69.126804
 20
191.798984
 30
0.0
 10
70.089887
 20
191.798984
 30
0.0
 10
70.828075
 20
191.560859
 30
0.0
 10
71.344012
 20
191.084609
 30
0.0
  0
SPLINE
  5
148
100
AcDbEntity
  8
Ebene_1
 62
7
100
AcDbSpline
 70
8
 71
3
 72
8
 73
4
 74
0
 40
0
 40
0
 40
0
 40
0
 40
1
 40
1
 40
1
 40
1
 10
71.344012
 20
191.084609
 30
0.0
 10
71.859950
 20
190.608359
 30
0.0
 10
72.116596
 20
190.018338
 30
0.0
 10
72.116596
 20
189.314546
 30
0.0
  0
SPLINE
  5
149
100
AcDbEntity
  8
Ebene_1
 62
7
100
AcDbSpline
 70
8
 71
3
 72
8
 73
4
 74
0
 40
0
 40
0
 40
0
 40
0
 40
1
 40
1
 40
1
 40
1
 10
72.116596
 20
189.314546
 30
0.0
 10
72.116596
 20
188.724526
 30
0.0
 10
71.931387
 20
188.219171
 30
0.0
 10
71.566262
 20
187.795838
 30
0.0
  0
SPLINE
  5
14a
100
AcDbEntity
  8
Ebene_1
 62
7
100
AcDbSpline
 70
8
 71
3
 72
8
 73
4
 74
0
 40
0
 40
0
 40
0
 40
0
 40
1
 40
1
 40
1
 40
1
 10
71.566262
 20
187.795838
 30
0.0
 10
71.320200
 20
187.515380
 30
0.0
 10
70.963012
 20
187.293130
 30
0.0
 10
70.489408
 20
187.129088
 30
0.0
  0
SPLINE
  5
14b
100
AcDbEntity
  8
Ebene_1
 62
7
100
AcDbSpline
 70
8
 71
3
 72
8
 73
4
 74
0
 40
0
 40
0
 40
0
 40
0
 40
1
 40
1
 40
1
 40
1
 10
70.489408
 20
187.129088
 30
0.0
 10
71.206429
 20
186.957109
 30
0.0
 10
71.732950
 20
186.660776
 30
0.0
 10
72.071617
 20
186.240088
 30
0.0
  0
SPLINE
  5
14c
100
AcDbEntity
  8
Ebene_1
 62
7
100
AcDbSpline
 70
8
 71
3
 72
8
 73
4
 74
0
 40
0
 40
0
 40
0
 40
0
 40
1
 40
1
 40
1
 40
1
 10
72.071617
 20
186.240088
 30
0.0
 10
72.410283
 20
185.819401
 30
0.0
 10
72.579617
 20
185.292880
 30
0.0
 10
72.579617
 20
184.657880
 30
0.0
  0
SPLINE
  5
14d
100
AcDbEntity
  8
Ebene_1
 62
7
100
AcDbSpline
 70
8
 71
3
 72
8
 73
4
 74
0
 40
0
 40
0
 40
0
 40
0
 40
1
 40
1
 40
1
 40
1
 10
72.579617
 20
184.657880
 30
0.0
 10
72.579617
 20
184.139296
 30
0.0
 10
72.460554
 20
183.676276
 30
0.0
 10
72.219783
 20
183.263526
 30
0.0
  0
SPLINE
  5
14e
100
AcDbEntity
  8
Ebene_1
 62
7
100
AcDbSpline
 70
8
 71
3
 72
8
 73
4
 74
0
 40
0
 40
0
 40
0
 40
0
 40
1
 40
1
 40
1
 40
1
 10
72.219783
 20
183.263526
 30
0.0
 10
71.979012
 20
182.850776
 30
0.0
 10
71.650929
 20
182.522692
 30
0.0
 10
71.232887
 20
182.281921
 30
0.0
  0
SPLINE
  5
14f
100
AcDbEntity
  8
Ebene_1
 62
7
100
AcDbSpline
 70
8
 71
3
 72
8
 73
4
 74
0
 40
0
 40
0
 40
0
 40
0
 40
1
 40
1
 40
1
 40
1
 10
71.232887
 20
182.281921
 30
0.0
 10
70.973596
 20
182.131109
 30
0.0
 10
70.584658
 20
182.022630
 30
0.0
 10
70.060783
 20
181.953838
 30
0.0
  0
SPLINE
  5
150
100
AcDbEntity
  8
Ebene_1
 62
7
100
AcDbSpline
 70
8
 71
3
 72
8
 73
4
 74
0
 40
0
 40
0
 40
0
 40
0
 40
1
 40
1
 40
1
 40
1
 10
70.060783
 20
181.953838
 30
0.0
 10
69.367575
 20
181.863880
 30
0.0
 10
68.904554
 20
181.818901
 30
0.0
 10
68.679658
 20
181.818901
 30
0.0
  0
LWPOLYLINE
  5
151
100
AcDbEntity
  8
Ebene_1
 62
7
100
AcDbPolyline
 90
2
 70
0
 10
63.353596
 20
191.798984
 30
0.0
 10
69.126804
 20
191.798984
 30
0.0
  0
LWPOLYLINE
  5
152
100
AcDbEntity
  8
Ebene_1
 62
7
100
AcDbPolyline
 90
3
 70
0
 10
68.679658
 20
181.818901
 30
0.0
 10
63.353596
 20
181.818901
 30
0.0
 10
63.353596
 20
191.798984
 30
0.0
  0
SPLINE
  5
153
100
AcDbEntity
  8
Ebene_1
 62
7
100
AcDbSpline
 70
8
 71
3
 72
8
 73
4
 74
0
 40
0
 40
0
 40
0
 40
0
 40
1
 40
1
 40
1
 40
1
 10
67.806533
 20
187.885796
 30
0.0
 10
68.288075
 20
187.885796
 30
0.0
 10
68.621450
 20
187.967817
 30
0.0
 10
68.811950
 20
188.134505
 30
0.0
  0
SPLINE
  5
154
100
AcDbEntity
  8
Ebene_1
 62
7
100
AcDbSpline
 70
8
 71
3
 72
8
 73
4
 74
0
 40
0
 40
0
 40
0
 40
0
 40
1
 40
1
 40
1
 40
1
 10
68.811950
 20
188.134505
 30
0.0
 10
68.999804
 20
188.301192
 30
0.0
 10
69.095054
 20
188.539317
 30
0.0
 10
69.095054
 20
188.851526
 30
0.0
  0
SPLINE
  5
155
100
AcDbEntity
  8
Ebene_1
 62
7
100
AcDbSpline
 70
8
 71
3
 72
8
 73
4
 74
0
 40
0
 40
0
 40
0
 40
0
 40
1
 40
1
 40
1
 40
1
 10
69.095054
 20
188.851526
 30
0.0
 10
69.095054
 20
189.142567
 30
0.0
 10
68.999804
 20
189.370109
 30
0.0
 10
68.811950
 20
189.531505
 30
0.0
  0
SPLINE
  5
156
100
AcDbEntity
  8
Ebene_1
 62
7
100
AcDbSpline
 70
8
 71
3
 72
8
 73
4
 74
0
 40
0
 40
0
 40
0
 40
0
 40
1
 40
1
 40
1
 40
1
 10
68.811950
 20
189.531505
 30
0.0
 10
68.624096
 20
189.695546
 30
0.0
 10
68.296013
 20
189.777567
 30
0.0
 10
67.827700
 20
189.777567
 30
0.0
  0
LWPOLYLINE
  5
157
100
AcDbEntity
  8
Ebene_1
 62
7
100
AcDbPolyline
 90
2
 70
0
 10
66.465096
 20
187.885796
 30
0.0
 10
67.806533
 20
187.885796
 30
0.0
  0
LWPOLYLINE
  5
158
100
AcDbEntity
  8
Ebene_1
 62
7
100
AcDbPolyline
 90
3
 70
0
 10
67.827700
 20
189.777567
 30
0.0
 10
66.465096
 20
189.777567
 30
0.0
 10
66.465096
 20
187.885796
 30
0.0
  0
SPLINE
  5
159
100
AcDbEntity
  8
Ebene_1
 62
7
100
AcDbSpline
 70
8
 71
3
 72
8
 73
4
 74
0
 40
0
 40
0
 40
0
 40
0
 40
1
 40
1
 40
1
 40
1
 10
68.036721
 20
183.964671
 30
0.0
 10
68.568533
 20
183.964671
 30
0.0
 10
68.941596
 20
184.059921
 30
0.0
 10
69.161200
 20
184.247776
 30
0.0
  0
SPLINE
  5
15a
100
AcDbEntity
  8
Ebene_1
 62
7
100
AcDbSpline
 70
8
 71
3
 72
8
 73
4
 74
0
 40
0
 40
0
 40
0
 40
0
 40
1
 40
1
 40
1
 40
1
 10
69.161200
 20
184.247776
 30
0.0
 10
69.378158
 20
184.435630
 30
0.0
 10
69.489283
 20
184.689630
 30
0.0
 10
69.489283
 20
185.007130
 30
0.0
  0
SPLINE
  5
15b
100
AcDbEntity
  8
Ebene_1
 62
7
100
AcDbSpline
 70
8
 71
3
 72
8
 73
4
 74
0
 40
0
 40
0
 40
0
 40
0
 40
1
 40
1
 40
1
 40
1
 10
69.489283
 20
185.007130
 30
0.0
 10
69.489283
 20
185.300817
 30
0.0
 10
69.380804
 20
185.538942
 30
0.0
 10
69.166492
 20
185.718859
 30
0.0
  0
SPLINE
  5
15c
100
AcDbEntity
  8
Ebene_1
 62
7
100
AcDbSpline
 70
8
 71
3
 72
8
 73
4
 74
0
 40
0
 40
0
 40
0
 40
0
 40
1
 40
1
 40
1
 40
1
 10
69.166492
 20
185.718859
 30
0.0
 10
68.949533
 20
185.898776
 30
0.0
 10
68.573825
 20
185.988734
 30
0.0
 10
68.034075
 20
185.988734
 30
0.0
  0
LWPOLYLINE
  5
15d
100
AcDbEntity
  8
Ebene_1
 62
7
100
AcDbPolyline
 90
2
 70
0
 10
66.465096
 20
183.964671
 30
0.0
 10
68.036721
 20
183.964671
 30
0.0
  0
LWPOLYLINE
  5
15e
100
AcDbEntity
  8
Ebene_1
 62
7
100
AcDbPolyline
 90
4
 70
0
 10
68.034075
 20
185.988734
 30
0.0
 10
66.467742
 20
185.988734
 30
0.0
 10
66.467742
 20
183.964671
 30
0.0
 10
66.465096
 20
183.964671
 30
0.0
  0
SPLINE
  5
15f
100
AcDbEntity
  8
Ebene_1
 62
7
100
AcDbSpline
 70
8
 71
3
 72
8
 73
4
 74
0
 40
0
 40
0
 40
0
 40
0
 40
1
 40
1
 40
1
 40
1
 10
52.944888
 20
209.557817
 30
0.0
 10
52.664429
 20
207.808921
 30
0.0
 10
53.852409
 20
206.163213
 30
0.0
 10
55.601304
 20
205.880109
 30
0.0
  0
SPLINE
  5
160
100
AcDbEntity
  8
Ebene_1
 62
7
100
AcDbSpline
 70
8
 71
3
 72
8
 73
4
 74
0
 40
0
 40
0
 40
0
 40
0
 40
1
 40
1
 40
1
 40
1
 10
55.601304
 20
205.880109
 30
0.0
 10
57.350200
 20
205.599650
 30
0.0
 10
58.995908
 20
206.787629
 30
0.0
 10
59.279013
 20
208.536525
 30
0.0
  0
LWPOLYLINE
  5
161
100
AcDbEntity
  8
Ebene_1
 62
7
100
AcDbPolyline
 90
3
 70
0
 10
61.866638
 20
224.602025
 30
0.0
 10
55.532513
 20
225.623317
 30
0.0
 10
52.944888
 20
209.557817
 30
0.0
  0
SPLINE
  5
162
100
AcDbEntity
  8
Ebene_1
 62
7
100
AcDbSpline
 70
8
 71
3
 72
8
 73
4
 74
0
 40
0
 40
0
 40
0
 40
0
 40
1
 40
1
 40
1
 40
1
 10
59.697054
 20
225.528067
 30
0.0
 10
60.570179
 20
225.387838
 30
0.0
 10
61.162846
 20
224.564983
 30
0.0
 10
61.022617
 20
223.691858
 30
0.0
  0
SPLINE
  5
163
100
AcDbEntity
  8
Ebene_1
 62
7
100
AcDbSpline
 70
8
 71
3
 72
8
 73
4
 74
0
 40
0
 40
0
 40
0
 40
0
 40
1
 40
1
 40
1
 40
1
 10
61.022617
 20
223.691858
 30
0.0
 10
60.882388
 20
222.818733
 30
0.0
 10
60.059533
 20
222.226067
 30
0.0
 10
59.189054
 20
222.366296
 30
0.0
  0
SPLINE
  5
164
100
AcDbEntity
  8
Ebene_1
 62
7
100
AcDbSpline
 70
8
 71
3
 72
8
 73
4
 74
0
 40
0
 40
0
 40
0
 40
0
 40
1
 40
1
 40
1
 40
1
 10
59.189054
 20
222.366296
 30
0.0
 10
58.315929
 20
222.506525
 30
0.0
 10
57.723263
 20
223.329379
 30
0.0
 10
57.863492
 20
224.199858
 30
0.0
  0
SPLINE
  5
165
100
AcDbEntity
  8
Ebene_1
 62
7
100
AcDbSpline
 70
8
 71
3
 72
8
 73
4
 74
0
 40
0
 40
0
 40
0
 40
0
 40
1
 40
1
 40
1
 40
1
 10
57.863492
 20
224.199858
 30
0.0
 10
58.003721
 20
225.075629
 30
0.0
 10
58.823929
 20
225.668296
 30
0.0
 10
59.697054
 20
225.528067
 30
0.0
  0
SPLINE
  5
166
100
AcDbEntity
  8
Ebene_1
 62
7
100
AcDbSpline
 70
8
 71
3
 72
8
 73
4
 74
0
 40
0
 40
0
 40
0
 40
0
 40
1
 40
1
 40
1
 40
1
 10
55.193846
 20
211.661254
 30
0.0
 10
55.630408
 20
211.589814
 30
0.0
 10
55.926742
 20
211.179713
 30
0.0
 10
55.857950
 20
210.743150
 30
0.0
  0
SPLINE
  5
167
100
AcDbEntity
  8
Ebene_1
 62
7
100
AcDbSpline
 70
8
 71
3
 72
8
 73
4
 74
0
 40
0
 40
0
 40
0
 40
0
 40
1
 40
1
 40
1
 40
1
 10
55.857950
 20
210.743150
 30
0.0
 10
55.786510
 20
210.306588
 30
0.0
 10
55.376408
 20
210.010254
 30
0.0
 10
54.939846
 20
210.079046
 30
0.0
  0
SPLINE
  5
168
100
AcDbEntity
  8
Ebene_1
 62
7
100
AcDbSpline
 70
8
 71
3
 72
8
 73
4
 74
0
 40
0
 40
0
 40
0
 40
0
 40
1
 40
1
 40
1
 40
1
 10
54.939846
 20
210.079046
 30
0.0
 10
54.503284
 20
210.150486
 30
0.0
 10
54.206950
 20
210.560588
 30
0.0
 10
54.275742
 20
210.997150
 30
0.0
  0
SPLINE
  5
169
100
AcDbEntity
  8
Ebene_1
 62
7
100
AcDbSpline
 70
8
 71
3
 72
8
 73
4
 74
0
 40
0
 40
0
 40
0
 40
0
 40
1
 40
1
 40
1
 40
1
 10
54.275742
 20
210.997150
 30
0.0
 10
54.344532
 20
211.436359
 30
0.0
 10
54.757284
 20
211.732692
 30
0.0
 10
55.193846
 20
211.661254
 30
0.0
  0
SPLINE
  5
16a
100
AcDbEntity
  8
Ebene_1
 62
7
100
AcDbSpline
 70
8
 71
3
 72
8
 73
4
 74
0
 40
0
 40
0
 40
0
 40
0
 40
1
 40
1
 40
1
 40
1
 10
57.696804
 20
222.577963
 30
0.0
 10
57.966679
 20
222.535633
 30
0.0
 10
58.149242
 20
222.281629
 30
0.0
 10
58.104263
 20
222.014400
 30
0.0
  0
SPLINE
  5
16b
100
AcDbEntity
  8
Ebene_1
 62
7
100
AcDbSpline
 70
8
 71
3
 72
8
 73
4
 74
0
 40
0
 40
0
 40
0
 40
0
 40
1
 40
1
 40
1
 40
1
 10
58.104263
 20
222.014400
 30
0.0
 10
58.061933
 20
221.747171
 30
0.0
 10
57.807929
 20
221.561963
 30
0.0
 10
57.540700
 20
221.606942
 30
0.0
  0
SPLINE
  5
16c
100
AcDbEntity
  8
Ebene_1
 62
7
100
AcDbSpline
 70
8
 71
3
 72
8
 73
4
 74
0
 40
0
 40
0
 40
0
 40
0
 40
1
 40
1
 40
1
 40
1
 10
57.540700
 20
221.606942
 30
0.0
 10
57.270825
 20
221.649272
 30
0.0
 10
57.088263
 20
221.903275
 30
0.0
 10
57.133242
 20
222.170504
 30
0.0
  0
SPLINE
  5
16d
100
AcDbEntity
  8
Ebene_1
 62
7
100
AcDbSpline
 70
8
 71
3
 72
8
 73
4
 74
0
 40
0
 40
0
 40
0
 40
0
 40
1
 40
1
 40
1
 40
1
 10
57.133242
 20
222.170504
 30
0.0
 10
57.178222
 20
222.437733
 30
0.0
 10
57.429575
 20
222.620296
 30
0.0
 10
57.696804
 20
222.577963
 30
0.0
  0
SPLINE
  5
16e
100
AcDbEntity
  8
Ebene_1
 62
7
100
AcDbSpline
 70
8
 71
3
 72
8
 73
4
 74
0
 40
0
 40
0
 40
0
 40
0
 40
1
 40
1
 40
1
 40
1
 10
55.566908
 20
209.544588
 30
0.0
 10
56.069617
 20
209.462568
 30
0.0
 10
56.413575
 20
208.988963
 30
0.0
 10
56.331554
 20
208.486254
 30
0.0
  0
SPLINE
  5
16f
100
AcDbEntity
  8
Ebene_1
 62
7
100
AcDbSpline
 70
8
 71
3
 72
8
 73
4
 74
0
 40
0
 40
0
 40
0
 40
0
 40
1
 40
1
 40
1
 40
1
 10
56.331554
 20
208.486254
 30
0.0
 10
56.249534
 20
207.983546
 30
0.0
 10
55.775929
 20
207.639588
 30
0.0
 10
55.273221
 20
207.721609
 30
0.0
  0
SPLINE
  5
170
100
AcDbEntity
  8
Ebene_1
 62
7
100
AcDbSpline
 70
8
 71
3
 72
8
 73
4
 74
0
 40
0
 40
0
 40
0
 40
0
 40
1
 40
1
 40
1
 40
1
 10
55.273221
 20
207.721609
 30
0.0
 10
54.770513
 20
207.803629
 30
0.0
 10
54.426554
 20
208.277234
 30
0.0
 10
54.508575
 20
208.779942
 30
0.0
  0
SPLINE
  5
171
100
AcDbEntity
  8
Ebene_1
 62
7
100
AcDbSpline
 70
8
 71
3
 72
8
 73
4
 74
0
 40
0
 40
0
 40
0
 40
0
 40
1
 40
1
 40
1
 40
1
 10
54.508575
 20
208.779942
 30
0.0
 10
54.590595
 20
209.282650
 30
0.0
 10
55.064200
 20
209.623963
 30
0.0
 10
55.566908
 20
209.544588
 30
0.0
  0
SPLINE
  5
172
100
AcDbEntity
  8
Ebene_1
 62
7
100
AcDbSpline
 70
8
 71
3
 72
8
 73
4
 74
0
 40
0
 40
0
 40
0
 40
0
 40
1
 40
1
 40
1
 40
1
 10
59.001200
 20
221.180963
 30
0.0
 10
59.538304
 20
221.093653
 30
0.0
 10
59.900783
 20
220.590942
 30
0.0
 10
59.816117
 20
220.053838
 30
0.0
  0
SPLINE
  5
173
100
AcDbEntity
  8
Ebene_1
 62
7
100
AcDbSpline
 70
8
 71
3
 72
8
 73
4
 74
0
 40
0
 40
0
 40
0
 40
0
 40
1
 40
1
 40
1
 40
1
 10
59.816117
 20
220.053838
 30
0.0
 10
59.728807
 20
219.516733
 30
0.0
 10
59.226096
 20
219.154254
 30
0.0
 10
58.688992
 20
219.238921
 30
0.0
  0
SPLINE
  5
174
100
AcDbEntity
  8
Ebene_1
 62
7
100
AcDbSpline
 70
8
 71
3
 72
8
 73
4
 74
0
 40
0
 40
0
 40
0
 40
0
 40
1
 40
1
 40
1
 40
1
 10
58.688992
 20
219.238921
 30
0.0
 10
58.151888
 20
219.326231
 30
0.0
 10
57.789408
 20
219.828942
 30
0.0
 10
57.874075
 20
220.366046
 30
0.0
  0
SPLINE
  5
175
100
AcDbEntity
  8
Ebene_1
 62
7
100
AcDbSpline
 70
8
 71
3
 72
8
 73
4
 74
0
 40
0
 40
0
 40
0
 40
0
 40
1
 40
1
 40
1
 40
1
 10
57.874075
 20
220.366046
 30
0.0
 10
57.961385
 20
220.903150
 30
0.0
 10
58.466742
 20
221.268275
 30
0.0
 10
59.001200
 20
221.180963
 30
0.0
  0
SPLINE
  5
176
100
AcDbEntity
  8
Ebene_1
 62
7
100
AcDbSpline
 70
8
 71
3
 72
8
 73
4
 74
0
 40
0
 40
0
 40
0
 40
0
 40
1
 40
1
 40
1
 40
1
 10
58.239200
 20
228.761275
 30
0.0
 10
58.911242
 20
228.652796
 30
0.0
 10
59.366325
 20
228.020442
 30
0.0
 10
59.257846
 20
227.348400
 30
0.0
  0
SPLINE
  5
177
100
AcDbEntity
  8
Ebene_1
 62
7
100
AcDbSpline
 70
8
 71
3
 72
8
 73
4
 74
0
 40
0
 40
0
 40
0
 40
0
 40
1
 40
1
 40
1
 40
1
 10
59.257846
 20
227.348400
 30
0.0
 10
59.149367
 20
226.676358
 30
0.0
 10
58.517013
 20
226.221275
 30
0.0
 10
57.847617
 20
226.329754
 30
0.0
  0
SPLINE
  5
178
100
AcDbEntity
  8
Ebene_1
 62
7
100
AcDbSpline
 70
8
 71
3
 72
8
 73
4
 74
0
 40
0
 40
0
 40
0
 40
0
 40
1
 40
1
 40
1
 40
1
 10
57.847617
 20
226.329754
 30
0.0
 10
57.175575
 20
226.438233
 30
0.0
 10
56.720492
 20
227.070588
 30
0.0
 10
56.828971
 20
227.739983
 30
0.0
  0
SPLINE
  5
179
100
AcDbEntity
  8
Ebene_1
 62
7
100
AcDbSpline
 70
8
 71
3
 72
8
 73
4
 74
0
 40
0
 40
0
 40
0
 40
0
 40
1
 40
1
 40
1
 40
1
 10
56.828971
 20
227.739983
 30
0.0
 10
56.937450
 20
228.412025
 30
0.0
 10
57.569804
 20
228.869754
 30
0.0
 10
58.239200
 20
228.761275
 30
0.0
  0
SPLINE
  5
17a
100
AcDbEntity
  8
Ebene_1
 62
7
100
AcDbSpline
 70
8
 71
3
 72
8
 73
4
 74
0
 40
0
 40
0
 40
0
 40
0
 40
1
 40
1
 40
1
 40
1
 10
60.374388
 20
231.753713
 30
0.0
 10
60.776554
 20
231.690213
 30
0.0
 10
61.054367
 20
231.338317
 30
0.0
 10
60.993513
 20
230.967900
 30
0.0
  0
SPLINE
  5
17b
100
AcDbEntity
  8
Ebene_1
 62
7
100
AcDbSpline
 70
8
 71
3
 72
8
 73
4
 74
0
 40
0
 40
0
 40
0
 40
0
 40
1
 40
1
 40
1
 40
1
 10
60.993513
 20
230.967900
 30
0.0
 10
60.935303
 20
230.597483
 30
0.0
 10
60.559596
 20
230.351421
 30
0.0
 10
60.157429
 20
230.417567
 30
0.0
  0
SPLINE
  5
17c
100
AcDbEntity
  8
Ebene_1
 62
7
100
AcDbSpline
 70
8
 71
3
 72
8
 73
4
 74
0
 40
0
 40
0
 40
0
 40
0
 40
1
 40
1
 40
1
 40
1
 10
60.157429
 20
230.417567
 30
0.0
 10
59.755263
 20
230.481067
 30
0.0
 10
59.477450
 20
230.832963
 30
0.0
 10
59.538304
 20
231.203379
 30
0.0
  0
SPLINE
  5
17d
100
AcDbEntity
  8
Ebene_1
 62
7
100
AcDbSpline
 70
8
 71
3
 72
8
 73
4
 74
0
 40
0
 40
0
 40
0
 40
0
 40
1
 40
1
 40
1
 40
1
 10
59.538304
 20
231.203379
 30
0.0
 10
59.596514
 20
231.571150
 30
0.0
 10
59.972221
 20
231.819858
 30
0.0
 10
60.374388
 20
231.753713
 30
0.0
  0
LWPOLYLINE
  5
17e
100
AcDbEntity
  8
Ebene_1
 62
7
100
AcDbPolyline
 90
2
 70
0
 10
59.279013
 20
208.536525
 30
0.0
 10
61.866638
 20
224.602025
 30
0.0
  0
ENDSEC
  0
SECTION
  2
OBJECTS
  0
DICTIONARY
  5
C
330
0
100
AcDbDictionary
  3
ACAD_GROUP
350
D
  3
ACAD_MLINESTYLE
350
17
  0
DICTIONARY
  5
D
330
C
100
AcDbDictionary
  0
DICTIONARY
  5
1A
330
C
100
AcDbDictionary
  0
DICTIONARY
  5
17
330
C
100
AcDbDictionary
  3
STANDARD
350
18
  0
DICTIONARY
  5
19
330
C
100
AcDbDictionary
  0
ENDSEC
  0
EOF
