<?xml version="1.0" encoding="utf-8"?>
<!-- Generator: Adobe Illustrator 23.0.2, SVG Export Plug-In . SVG Version: 6.00 Build 0)  -->
<svg version="1.1" id="Ebene_1" xmlns="http://www.w3.org/2000/svg" xmlns:xlink="http://www.w3.org/1999/xlink" x="0px" y="0px"
	 viewBox="0 0 120.51 195.71" style="enable-background:new 0 0 120.51 195.71;" xml:space="preserve">
<style type="text/css">
	.st0{fill:#A1DAF8;}
	.st1{fill-rule:evenodd;clip-rule:evenodd;}
	.st2{fill-rule:evenodd;clip-rule:evenodd;fill:#A1DAF8;}
	.st3{fill-rule:evenodd;clip-rule:evenodd;fill:#FFFFFF;}
</style>
<g>
	<path d="M5.83,107.65h7.07l2.73,10.59l2.71-10.59h7.07v17.4H21v-13.27l-3.39,13.27h-3.99l-3.39-13.27v13.27h-4.4V107.65z"/>
	<path d="M40.16,107.65h5.36v10.37c0,1.03-0.16,2-0.48,2.91s-0.82,1.71-1.51,2.4c-0.68,0.68-1.4,1.16-2.15,1.44
		c-1.04,0.39-2.3,0.58-3.76,0.58c-0.85,0-1.77-0.06-2.77-0.18s-1.84-0.35-2.51-0.71c-0.67-0.35-1.29-0.85-1.85-1.5
		c-0.56-0.65-0.94-1.32-1.15-2c-0.33-1.11-0.5-2.09-0.5-2.94v-10.37h5.36v10.61c0,0.95,0.26,1.69,0.79,2.22
		c0.53,0.53,1.26,0.8,2.19,0.8c0.93,0,1.65-0.26,2.18-0.79c0.53-0.53,0.79-1.27,0.79-2.24V107.65z"/>
	<path d="M49.12,107.65h5.02l6.55,9.63v-9.63h5.07v17.4h-5.07l-6.52-9.55v9.55h-5.06V107.65z"/>
	<path d="M69.54,107.65h5.39v17.4h-5.39V107.65z"/>
	<path d="M90.37,117.92l4.71,1.42c-0.32,1.32-0.81,2.42-1.5,3.31s-1.53,1.55-2.53,2.01c-1.01,0.45-2.29,0.68-3.85,0.68
		c-1.89,0-3.44-0.27-4.63-0.82c-1.2-0.55-2.23-1.52-3.1-2.9c-0.87-1.38-1.31-3.15-1.31-5.31c0-2.88,0.77-5.09,2.3-6.64
		c1.53-1.55,3.7-2.32,6.5-2.32c2.19,0,3.91,0.44,5.17,1.33c1.25,0.89,2.19,2.25,2.79,4.08l-4.75,1.06
		c-0.17-0.53-0.34-0.92-0.52-1.16c-0.3-0.41-0.67-0.73-1.1-0.95c-0.43-0.22-0.92-0.33-1.46-0.33c-1.22,0-2.15,0.49-2.8,1.47
		c-0.49,0.73-0.74,1.87-0.74,3.43c0,1.93,0.29,3.25,0.88,3.97c0.59,0.72,1.41,1.07,2.47,1.07c1.03,0,1.81-0.29,2.33-0.87
		S90.13,119.02,90.37,117.92z"/>
	<path d="M97.71,107.65h5.38v6.09h5.88v-6.09h5.4v17.4h-5.4v-7.04h-5.88v7.04h-5.38V107.65z"/>
</g>
<g>
	<path d="M5.59,130.46h8.08l3.12,12.1l3.09-12.1h8.08v19.88h-5.03v-15.16l-3.88,15.16h-4.55l-3.87-15.16v15.16H5.59V130.46z"/>
	<path d="M44.1,147.06h-6.98l-0.97,3.28h-6.27l7.47-19.88h6.7l7.47,19.88h-6.43L44.1,147.06z M42.83,142.76l-2.19-7.15l-2.17,7.15
		H42.83z"/>
	<path d="M53.51,130.46h6.14v7.51l6.44-7.51h8.17l-7.26,7.5l7.58,12.38h-7.57l-4.19-8.18l-3.17,3.33v4.85h-6.14V130.46z"/>
	<path d="M76.61,130.46h16.46v4.24H82.76v3.16h9.56v4.06h-9.56v3.92h10.61v4.5H76.61V130.46z"/>
	<path d="M96.76,150.34v-19.88H107c1.9,0,3.35,0.16,4.35,0.49c1,0.33,1.81,0.93,2.43,1.81c0.61,0.88,0.92,1.96,0.92,3.22
		c0,1.1-0.24,2.05-0.71,2.85c-0.47,0.8-1.12,1.45-1.94,1.95c-0.53,0.32-1.24,0.58-2.16,0.79c0.73,0.24,1.26,0.49,1.6,0.73
		c0.23,0.16,0.55,0.51,0.98,1.05c0.43,0.53,0.72,0.95,0.86,1.24l2.98,5.76h-6.94l-3.28-6.08c-0.42-0.79-0.79-1.3-1.11-1.53
		c-0.44-0.31-0.95-0.46-1.51-0.46h-0.54v8.07H96.76z M102.93,138.51h2.59c0.28,0,0.82-0.09,1.63-0.27c0.41-0.08,0.74-0.29,1-0.62
		c0.26-0.33,0.39-0.72,0.39-1.15c0-0.64-0.2-1.13-0.61-1.48c-0.41-0.34-1.17-0.52-2.29-0.52h-2.7V138.51z"/>
</g>
<g>
	<path class="st0" d="M5.31,154.34h11.66v28.43h18.19v9.29H5.31V154.34z"/>
	<path class="st0" d="M63.65,185.83H50.42l-1.84,6.23h-11.9l14.18-37.72h12.71l14.17,37.72H65.54L63.65,185.83z M61.23,177.67
		l-4.16-13.56l-4.12,13.56H61.23z"/>
	<path class="st0" d="M81.47,154.34h21.82c3.64,0,6.43,0.9,8.38,2.7c1.95,1.8,2.92,4.03,2.92,6.69c0,2.23-0.7,4.14-2.08,5.74
		c-0.93,1.06-2.28,1.9-4.07,2.52c2.71,0.65,4.7,1.77,5.98,3.36c1.28,1.59,1.92,3.58,1.92,5.98c0,1.96-0.45,3.71-1.36,5.27
		c-0.91,1.56-2.15,2.8-3.73,3.71c-0.98,0.57-2.45,0.98-4.43,1.24c-2.62,0.34-4.37,0.51-5.22,0.51H81.47V154.34z M93.23,169.13h5.07
		c1.82,0,3.08-0.31,3.8-0.94c0.71-0.63,1.07-1.53,1.07-2.71c0-1.1-0.36-1.96-1.07-2.57c-0.71-0.62-1.95-0.93-3.72-0.93h-5.15V169.13
		z M93.23,183.95h5.94c2.01,0,3.42-0.36,4.25-1.07c0.82-0.71,1.24-1.67,1.24-2.87c0-1.11-0.41-2.01-1.22-2.69
		c-0.82-0.68-2.24-1.02-4.28-1.02h-5.92V183.95z"/>
</g>
<polygon class="st1" points="70.08,33.48 82.88,45.77 95.68,33.48 114.87,33.48 114.87,97.47 95.68,97.47 95.68,52.68 82.88,65.48 
	70.08,52.68 70.08,64.96 50.88,64.96 50.88,64.96 50.88,33.48 50.88,33.48 "/>
<polygon class="st1" points="25.29,33.48 38.08,45.77 50.88,33.48 70.08,33.48 70.08,64.96 50.88,64.96 50.88,52.68 38.08,65.48 
	25.29,52.68 25.29,97.47 6.09,97.47 6.09,97.47 6.09,33.48 6.09,33.48 "/>
<path class="st2" d="M75.85,30.36L51.91,26.5l-9.78,60.72c-1.06,6.61,3.43,12.83,10.04,13.9c6.61,1.06,12.83-3.43,13.9-10.04
	L75.85,30.36z"/>
<path class="st3" d="M67.65,26.86c3.3,0.53,5.54,3.64,5.01,6.94c-0.53,3.3-3.64,5.54-6.93,5.01c-3.3-0.53-5.54-3.64-5.01-6.93
	C61.25,28.57,64.35,26.33,67.65,26.86"/>
<path class="st3" d="M50.63,79.27c1.65,0.27,2.77,1.82,2.51,3.47c-0.27,1.65-1.82,2.77-3.47,2.51c-1.65-0.27-2.77-1.82-2.51-3.47
	C47.42,80.12,48.98,79,50.63,79.27"/>
<path class="st3" d="M60.09,38.01c1.02,0.16,1.71,1.12,1.54,2.13c-0.16,1.01-1.12,1.71-2.13,1.54c-1.02-0.16-1.71-1.12-1.54-2.13
	S59.08,37.85,60.09,38.01"/>
<path class="st3" d="M52.04,87.27c1.9,0.31,3.2,2.1,2.89,4c-0.31,1.9-2.1,3.2-4,2.89c-1.9-0.31-3.2-2.1-2.89-4
	C48.35,88.26,50.14,86.97,52.04,87.27"/>
<path class="st3" d="M65.02,43.29c2.03,0.33,3.4,2.23,3.08,4.26c-0.33,2.03-2.23,3.4-4.26,3.08c-2.03-0.33-3.4-2.23-3.08-4.26
	C61.09,44.34,63,42.96,65.02,43.29"/>
<path class="st1" d="M62.14,14.64c2.54,0.41,4.26,2.8,3.85,5.34c-0.41,2.54-2.8,4.26-5.33,3.85c-2.54-0.41-4.26-2.8-3.85-5.33
	C57.22,15.96,59.61,14.23,62.14,14.64"/>
<path class="st1" d="M70.21,3.33c1.52,0.24,2.57,1.57,2.34,2.97c-0.22,1.4-1.64,2.33-3.16,2.08c-1.52-0.24-2.57-1.57-2.34-2.97
	C67.27,4.02,68.69,3.08,70.21,3.33"/>
</svg>
