  0
SECTION
  2
HEADER
  9
$ACADVER
  1
AC1024
  9
$ACADMAINTVER
 70
     6
  9
$DWGCODEPAGE
  3
UNDEFINED
  9
$INSBASE
 10
0.0
 20
0.0
 30
0.0
  9
$EXTMIN
 10
1.000000000000000E+20
 20
1.000000000000000E+20
 30
1.000000000000000E+20
  9
$EXTMAX
 10
-1.000000000000000E+20
 20
-1.000000000000000E+20
 30
-1.000000000000000E+20
  9
$LIMMIN
 10
0.0
 20
0.0
  9
$LIMMAX
 10
12.0
 20
9.0
  9
$ORTHOMODE
 70
     0
  9
$REGENMODE
 70
     1
  9
$FILLMODE
 70
     1
  9
$QTEXTMODE
 70
     0
  9
$MIRRTEXT
 70
     1
  9
$LTSCALE
 40
1.0
  9
$ATTMODE
 70
     1
  9
$TEXTSIZE
 40
0.2
  9
$TRACEWID
 40
0.05
  9
$TEXTSTYLE
  7
Standard
  9
$CLAYER
  8
0
  9
$CELTYPE
  6
ByLayer
  9
$CECOLOR
 62
   256
  9
$CELTSCALE
 40
1.0
  9
$DISPSILH
 70
     0
  9
$DIMSCALE
 40
1.0
  9
$DIMASZ
 40
0.18
  9
$DIMEXO
 40
0.0625
  9
$DIMDLI
 40
0.38
  9
$DIMRND
 40
0.0
  9
$DIMDLE
 40
0.0
  9
$DIMEXE
 40
0.18
  9
$DIMTP
 40
0.0
  9
$DIMTM
 40
0.0
  9
$DIMTXT
 40
0.18
  9
$DIMCEN
 40
0.09
  9
$DIMTSZ
 40
0.0
  9
$DIMTOL
 70
     0
  9
$DIMLIM
 70
     0
  9
$DIMTIH
 70
     1
  9
$DIMTOH
 70
     1
  9
$DIMSE1
 70
     0
  9
$DIMSE2
 70
     0
  9
$DIMTAD
 70
     0
  9
$DIMZIN
 70
     0
  9
$DIMBLK
  1

  9
$DIMASO
 70
     1
  9
$DIMSHO
 70
     1
  9
$DIMPOST
  1

  9
$DIMAPOST
  1

  9
$DIMALT
 70
     0
  9
$DIMALTD
 70
     2
  9
$DIMALTF
 40
25.4
  9
$DIMLFAC
 40
1.0
  9
$DIMTOFL
 70
     0
  9
$DIMTVP
 40
0.0
  9
$DIMTIX
 70
     0
  9
$DIMSOXD
 70
     0
  9
$DIMSAH
 70
     0
  9
$DIMBLK1
  1

  9
$DIMBLK2
  1

  9
$DIMSTYLE
  2
Standard
  9
$DIMCLRD
 70
     0
  9
$DIMCLRE
 70
     0
  9
$DIMCLRT
 70
     0
  9
$DIMTFAC
 40
1.0
  9
$DIMGAP
 40
0.09
  9
$DIMJUST
 70
     0
  9
$DIMSD1
 70
     0
  9
$DIMSD2
 70
     0
  9
$DIMTOLJ
 70
     1
  9
$DIMTZIN
 70
     0
  9
$DIMALTZ
 70
     0
  9
$DIMALTTZ
 70
     0
  9
$DIMUPT
 70
     0
  9
$DIMDEC
 70
     4
  9
$DIMTDEC
 70
     4
  9
$DIMALTU
 70
     2
  9
$DIMALTTD
 70
     2
  9
$DIMTXSTY
  7
Standard
  9
$DIMAUNIT
 70
     0
  9
$DIMADEC
 70
     0
  9
$DIMALTRND
 40
0.0
  9
$DIMAZIN
 70
     0
  9
$DIMDSEP
 70
    46
  9
$DIMATFIT
 70
     3
  9
$DIMFRAC
 70
     0
  9
$DIMLDRBLK
  1

  9
$DIMLUNIT
 70
     2
  9
$DIMLWD
 70
    -2
  9
$DIMLWE
 70
    -2
  9
$DIMTMOVE
 70
     0
  9
$DIMFXL
 40
1.0
  9
$DIMFXLON
 70
     0
  9
$DIMJOGANG
 40
0.7853981633974483
  9
$DIMTFILL
 70
     0
  9
$DIMTFILLCLR
 70
     0
  9
$DIMARCSYM
 70
     0
  9
$DIMLTYPE
  6

  9
$DIMLTEX1
  6

  9
$DIMLTEX2
  6

  9
$DIMTXTDIRECTION
 70
     0
  9
$LUNITS
 70
     2
  9
$LUPREC
 70
     4
  9
$SKETCHINC
 40
0.1
  9
$FILLETRAD
 40
0.5
  9
$AUNITS
 70
     0
  9
$AUPREC
 70
     0
  9
$MENU
  1
.
  9
$ELEVATION
 40
0.0
  9
$PELEVATION
 40
0.0
  9
$THICKNESS
 40
0.0
  9
$LIMCHECK
 70
     0
  9
$CHAMFERA
 40
0.5
  9
$CHAMFERB
 40
0.5
  9
$CHAMFERC
 40
1.0
  9
$CHAMFERD
 40
0.0
  9
$SKPOLY
 70
     0
  9
$TDCREATE
 40
2457787.366249988
  9
$TDUCREATE
 40
2457787.324583333
  9
$TDUPDATE
 40
2457787.366249988
  9
$TDUUPDATE
 40
2457787.324583333
  9
$TDINDWG
 40
0.0000000116
  9
$TDUSRTIMER
 40
0.0000000116
  9
$USRTIMER
 70
     1
  9
$ANGBASE
 50
0.0
  9
$ANGDIR
 70
     0
  9
$PDMODE
 70
     0
  9
$PDSIZE
 40
0.0
  9
$PLINEWID
 40
0.0
  9
$SPLFRAME
 70
     0
  9
$SPLINETYPE
 70
     6
  9
$SPLINESEGS
 70
     8
  9
$HANDSEED
  5
56
  9
$SURFTAB1
 70
     6
  9
$SURFTAB2
 70
     6
  9
$SURFTYPE
 70
     6
  9
$SURFU
 70
     6
  9
$SURFV
 70
     6
  9
$UCSBASE
  2

  9
$UCSNAME
  2

  9
$UCSORG
 10
0.0
 20
0.0
 30
0.0
  9
$UCSXDIR
 10
1.0
 20
0.0
 30
0.0
  9
$UCSYDIR
 10
0.0
 20
1.0
 30
0.0
  9
$UCSORTHOREF
  2

  9
$UCSORTHOVIEW
 70
     0
  9
$UCSORGTOP
 10
0.0
 20
0.0
 30
0.0
  9
$UCSORGBOTTOM
 10
0.0
 20
0.0
 30
0.0
  9
$UCSORGLEFT
 10
0.0
 20
0.0
 30
0.0
  9
$UCSORGRIGHT
 10
0.0
 20
0.0
 30
0.0
  9
$UCSORGFRONT
 10
0.0
 20
0.0
 30
0.0
  9
$UCSORGBACK
 10
0.0
 20
0.0
 30
0.0
  9
$PUCSBASE
  2

  9
$PUCSNAME
  2

  9
$PUCSORG
 10
0.0
 20
0.0
 30
0.0
  9
$PUCSXDIR
 10
1.0
 20
0.0
 30
0.0
  9
$PUCSYDIR
 10
0.0
 20
1.0
 30
0.0
  9
$PUCSORTHOREF
  2

  9
$PUCSORTHOVIEW
 70
     0
  9
$PUCSORGTOP
 10
0.0
 20
0.0
 30
0.0
  9
$PUCSORGBOTTOM
 10
0.0
 20
0.0
 30
0.0
  9
$PUCSORGLEFT
 10
0.0
 20
0.0
 30
0.0
  9
$PUCSORGRIGHT
 10
0.0
 20
0.0
 30
0.0
  9
$PUCSORGFRONT
 10
0.0
 20
0.0
 30
0.0
  9
$PUCSORGBACK
 10
0.0
 20
0.0
 30
0.0
  9
$USERI1
 70
     0
  9
$USERI2
 70
     0
  9
$USERI3
 70
     0
  9
$USERI4
 70
     0
  9
$USERI5
 70
     0
  9
$USERR1
 40
0.0
  9
$USERR2
 40
0.0
  9
$USERR3
 40
0.0
  9
$USERR4
 40
0.0
  9
$USERR5
 40
0.0
  9
$WORLDVIEW
 70
     1
  9
$SHADEDGE
 70
     3
  9
$SHADEDIF
 70
    70
  9
$TILEMODE
 70
     1
  9
$MAXACTVP
 70
    64
  9
$PINSBASE
 10
0.0
 20
0.0
 30
0.0
  9
$PLIMCHECK
 70
     0
  9
$PEXTMIN
 10
1.000000000000000E+20
 20
1.000000000000000E+20
 30
1.000000000000000E+20
  9
$PEXTMAX
 10
-1.000000000000000E+20
 20
-1.000000000000000E+20
 30
-1.000000000000000E+20
  9
$PLIMMIN
 10
0.0
 20
0.0
  9
$PLIMMAX
 10
12.0
 20
9.0
  9
$UNITMODE
 70
     0
  9
$VISRETAIN
 70
     1
  9
$PLINEGEN
 70
     0
  9
$PSLTSCALE
 70
     1
  9
$TREEDEPTH
 70
  3020
  9
$CMLSTYLE
  2
Standard
  9
$CMLJUST
 70
     0
  9
$CMLSCALE
 40
1.0
  9
$PROXYGRAPHICS
 70
     1
  9
$MEASUREMENT
 70
     0
  9
$CELWEIGHT
370
    -1
  9
$ENDCAPS
280
     0
  9
$JOINSTYLE
280
     0
  9
$LWDISPLAY
290
     1
  9
$INSUNITS
 70
     1
  9
$HYPERLINKBASE
  1

  9
$STYLESHEET
  1

  9
$XEDIT
290
     1
  9
$CEPSNTYPE
380
     0
  9
$PSTYLEMODE
290
     1
  9
$FINGERPRINTGUID
  2
{3D8098DA-B51C-BCC6-9F5D-4D091521216B}
  9
$VERSIONGUID
  2
{FAEB1C32-E019-11D5-929B-00C0DF256EC4}
  9
$EXTNAMES
290
     1
  9
$PSVPSCALE
 40
0.0
  9
$OLESTARTUP
290
     0
  9
$SORTENTS
280
   127
  9
$INDEXCTL
280
     0
  9
$HIDETEXT
280
     1
  9
$XCLIPFRAME
280
     2
  9
$HALOGAP
280
     0
  9
$OBSCOLOR
 70
   257
  9
$OBSLTYPE
280
     0
  9
$INTERSECTIONDISPLAY
280
     0
  9
$INTERSECTIONCOLOR
 70
   257
  9
$DIMASSOC
280
     2
  9
$PROJECTNAME
  1

  9
$CAMERADISPLAY
290
     0
  9
$LENSLENGTH
 40
50.0
  9
$CAMERAHEIGHT
 40
0.0
  9
$STEPSPERSEC
 40
2.0
  9
$STEPSIZE
 40
6.0
  9
$3DDWFPREC
 40
2.0
  9
$PSOLWIDTH
 40
0.25
  9
$PSOLHEIGHT
 40
4.0
  9
$LOFTANG1
 40
1.570796326794897
  9
$LOFTANG2
 40
1.570796326794897
  9
$LOFTMAG1
 40
0.0
  9
$LOFTMAG2
 40
0.0
  9
$LOFTPARAM
 70
     7
  9
$LOFTNORMALS
280
     1
  9
$LATITUDE
 40
37.795
  9
$LONGITUDE
 40
-122.394
  9
$NORTHDIRECTION
 40
0.0
  9
$TIMEZONE
 70
 -8000
  9
$LIGHTGLYPHDISPLAY
280
     1
  9
$TILEMODELIGHTSYNCH
280
     1
  9
$CMATERIAL
347
3C
  9
$SOLIDHIST
280
     1
  9
$SHOWHIST
280
     1
  9
$DWFFRAME
280
     2
  9
$DGNFRAME
280
     2
  9
$REALWORLDSCALE
290
     1
  9
$INTERFERECOLOR
 62
   256
  9
$CSHADOW
280
     0
  9
$SHADOWPLANELOCATION
 40
0.0
  0
ENDSEC
  0
SECTION
  2
CLASSES
  0
CLASS
  1
ACDBDICTIONARYWDFLT
  2
AcDbDictionaryWithDefault
  3
ObjectDBX Classes
 90
        0
 91
        4
280
     0
281
     0
  0
CLASS
  1
VISUALSTYLE
  2
AcDbVisualStyle
  3
ObjectDBX Classes
 90
     4095
 91
        4
280
     0
281
     0
  0
CLASS
  1
MATERIAL
  2
AcDbMaterial
  3
ObjectDBX Classes
 90
     1153
 91
        4
280
     0
281
     0
  0
CLASS
  1
SUN
  2
AcDbSun
  3
SCENEOE
 90
     1024
 91
        4
280
     0
281
     0
  0
ENDSEC
  0
SECTION
  2
TABLES
  0
TABLE
  2
VPORT
  5
8
330
0
100
AcDbSymbolTable
 70
     1
  0
VPORT
  5
29
330
8
100
AcDbSymbolTableRecord
100
AcDbViewportTableRecord
  2
*Active
 70
     0
 10
0.0
 20
0.0
 11
1.0
 21
1.0
 12
0.0
 22
0.0
 13
0.0
 23
0.0
 14
0.5
 24
0.5
 15
0.5
 25
0.5
 16
0.0
 26
0.0
 36
1.0
 17
70.50020747200065
 27
-52.51108068283776
 37
0.0
 40
140.2221555238335
 41
0.9396226415094296
 42
50.0
 43
0.0
 44
0.0
 50
0.0
 51
0.0
 71
     0
 72
   100
 73
     1
 74
     3
 75
     0
 76
     0
 77
     0
 78
     0
281
     0
 65
     1
110
0.0
120
0.0
130
0.0
111
1.0
121
0.0
131
0.0
112
0.0
122
1.0
132
0.0
 79
     0
146
0.0
 60
     3
 61
     5
292
     1
282
     1
141
0.0
142
0.0
 63
   250
361
3F
  0
ENDTAB
  0
TABLE
  2
LTYPE
  5
5
330
0
100
AcDbSymbolTable
 70
     1
  0
LTYPE
  5
14
330
5
100
AcDbSymbolTableRecord
100
AcDbLinetypeTableRecord
  2
ByBlock
 70
     0
  3

 72
    65
 73
     0
 40
0.0
  0
LTYPE
  5
15
330
5
100
AcDbSymbolTableRecord
100
AcDbLinetypeTableRecord
  2
ByLayer
 70
     0
  3

 72
    65
 73
     0
 40
0.0
  0
LTYPE
  5
16
330
5
100
AcDbSymbolTableRecord
100
AcDbLinetypeTableRecord
  2
Continuous
 70
     0
  3
Solid line
 72
    65
 73
     0
 40
0.0
  0
ENDTAB
  0
TABLE
  2
LAYER
  5
2
330
0
100
AcDbSymbolTable
 70
     5
  0
LAYER
  5
10
330
2
100
AcDbSymbolTableRecord
100
AcDbLayerTableRecord
  2
0
 70
     0
 62
     7
  6
Continuous
370
    -3
390
F
347
3E
  0
LAYER
  5
40
330
2
100
AcDbSymbolTableRecord
100
AcDbLayerTableRecord
  2
Ebene 1
 70
     0
 62
     7
  6
Continuous
370
    -3
390
F
347
3E
  0
LAYER
  5
45
330
2
100
AcDbSymbolTableRecord
100
AcDbLayerTableRecord
  2
Ebene 2
 70
     0
 62
     7
  6
Continuous
370
    -3
390
F
347
3E
  0
LAYER
  5
48
330
2
100
AcDbSymbolTableRecord
100
AcDbLayerTableRecord
  2
Ebene 3
 70
     0
 62
     7
  6
Continuous
370
    -3
390
F
347
3E
  0
LAYER
  5
4F
330
2
100
AcDbSymbolTableRecord
100
AcDbLayerTableRecord
  2
Ebene 4
 70
     0
 62
     7
  6
Continuous
370
    -3
390
F
347
3E
  0
ENDTAB
  0
TABLE
  2
STYLE
  5
3
330
0
100
AcDbSymbolTable
 70
     1
  0
STYLE
  5
11
330
3
100
AcDbSymbolTableRecord
100
AcDbTextStyleTableRecord
  2
Standard
 70
     0
 40
0.0
 41
1.0
 50
0.0
 71
     0
 42
0.2
  3
txt
  4

  0
ENDTAB
  0
TABLE
  2
VIEW
  5
6
330
0
100
AcDbSymbolTable
 70
     0
  0
ENDTAB
  0
TABLE
  2
UCS
  5
7
330
0
100
AcDbSymbolTable
 70
     0
  0
ENDTAB
  0
TABLE
  2
APPID
  5
9
330
0
100
AcDbSymbolTable
 70
     1
  0
APPID
  5
12
330
9
100
AcDbSymbolTableRecord
100
AcDbRegAppTableRecord
  2
ACAD
 70
     0
  0
ENDTAB
  0
TABLE
  2
DIMSTYLE
  5
A
330
0
100
AcDbSymbolTable
 70
     1
100
AcDbDimStyleTable
  0
DIMSTYLE
105
27
330
A
100
AcDbSymbolTableRecord
100
AcDbDimStyleTableRecord
  2
Standard
 70
     0
178
     0
340
11
  0
ENDTAB
  0
TABLE
  2
BLOCK_RECORD
  5
1
330
0
100
AcDbSymbolTable
 70
     1
  0
BLOCK_RECORD
  5
1F
330
1
100
AcDbSymbolTableRecord
100
AcDbBlockTableRecord
  2
*Model_Space
340
22
 70
     0
280
     1
281
     0
  0
BLOCK_RECORD
  5
1B
330
1
100
AcDbSymbolTableRecord
100
AcDbBlockTableRecord
  2
*Paper_Space
340
1E
 70
     0
280
     1
281
     0
  0
BLOCK_RECORD
  5
23
330
1
100
AcDbSymbolTableRecord
100
AcDbBlockTableRecord
  2
*Paper_Space0
340
26
 70
     0
280
     1
281
     0
  0
ENDTAB
  0
ENDSEC
  0
SECTION
  2
BLOCKS
  0
BLOCK
  5
20
330
1F
100
AcDbEntity
  8
0
100
AcDbBlockBegin
  2
*Model_Space
 70
     0
 10
0.0
 20
0.0
 30
0.0
  3
*Model_Space
  1

  0
ENDBLK
  5
21
330
1F
100
AcDbEntity
  8
0
100
AcDbBlockEnd
  0
BLOCK
  5
1C
330
1B
100
AcDbEntity
 67
     1
  8
0
100
AcDbBlockBegin
  2
*Paper_Space
 70
     0
 10
0.0
 20
0.0
 30
0.0
  3
*Paper_Space
  1

  0
ENDBLK
  5
1D
330
1B
100
AcDbEntity
 67
     1
  8
0
100
AcDbBlockEnd
  0
BLOCK
  5
24
330
23
100
AcDbEntity
  8
0
100
AcDbBlockBegin
  2
*Paper_Space0
 70
     0
 10
0.0
 20
0.0
 30
0.0
  3
*Paper_Space0
  1

  0
ENDBLK
  5
25
330
23
100
AcDbEntity
  8
0
100
AcDbBlockEnd
  0
ENDSEC
  0
SECTION
  2
ENTITIES
  0
SPLINE
  5
41
330
1F
100
AcDbEntity
  8
Ebene 1
 62
   179
420
  1907995
370
    35
100
AcDbSpline
210
0.0
220
0.0
230
1.0
 70
    11
 71
     3
 72
    62
 73
    58
 74
     0
 42
0.0000000001
 43
0.0000000001
 12
1.0
 22
0.0
 32
0.0
 13
1.0
 23
0.0
 33
0.0
 40
0.0
 40
0.0
 40
0.0
 40
0.0
 40
1.0
 40
1.0
 40
1.0
 40
2.0
 40
2.0
 40
2.0
 40
3.0
 40
3.0
 40
3.0
 40
4.0
 40
4.0
 40
4.0
 40
5.0
 40
5.0
 40
5.0
 40
6.0
 40
6.0
 40
6.0
 40
7.0
 40
7.0
 40
7.0
 40
8.0
 40
8.0
 40
8.0
 40
9.0
 40
9.0
 40
9.0
 40
10.0
 40
10.0
 40
10.0
 40
11.0
 40
11.0
 40
11.0
 40
12.0
 40
12.0
 40
12.0
 40
13.0
 40
13.0
 40
13.0
 40
14.0
 40
14.0
 40
14.0
 40
15.0
 40
15.0
 40
15.0
 40
16.0
 40
16.0
 40
16.0
 40
17.0
 40
17.0
 40
17.0
 40
18.0
 40
18.0
 40
18.0
 40
19.0
 40
19.0
 40
19.0
 40
19.0
 10
46.29318725441218
 20
-38.48638898099255
 30
0.0
 10
46.29318725441218
 20
-38.48638898099255
 30
0.0
 10
46.29835489764006
 20
-38.47323302260858
 30
0.0
 10
46.29835489764006
 20
-38.47323302260858
 30
0.0
 10
46.29835489764006
 20
-38.47323302260858
 30
0.0
 10
40.75242141510263
 20
-29.41161989960239
 30
0.0
 10
40.75242141510263
 20
-29.41161989960239
 30
0.0
 10
40.75242141510263
 20
-29.41161989960239
 30
0.0
 10
39.86579261008548
 20
-18.44407118581749
 30
0.0
 10
37.90383592872889
 20
-14.16651945301815
 30
0.0
 10
36.2251817201342
 20
-10.50663731240899
 30
0.0
 10
27.7797143654781
 20
-1.057838100592745
 30
0.0
 10
27.7797143654781
 20
-1.057838100592745
 30
0.0
 10
27.7797143654781
 20
-1.057838100592745
 30
0.0
 10
19.30565162037111
 20
-10.50152472976099
 30
0.0
 10
17.62189546201221
 20
-14.16651945301815
 30
0.0
 10
15.64582330586592
 20
-18.4677919318725
 30
0.0
 10
14.78138441818202
 20
-29.52110934049299
 30
0.0
 10
14.78138441818202
 20
-29.52110934049299
 30
0.0
 10
14.78138441818202
 20
-29.52110934049299
 30
0.0
 10
9.319511265484689
 20
-38.47323302260858
 30
0.0
 10
9.319511265484689
 20
-38.47323302260858
 30
0.0
 10
9.319511265484689
 20
-38.47323302260858
 30
0.0
 10
9.324678908712563
 20
-38.48638898099255
 30
0.0
 10
9.324678908712563
 20
-38.48638898099255
 30
0.0
 10
9.324678908712563
 20
-38.48638898099255
 30
0.0
 10
9.30390067656715
 20
-38.48008014988519
 30
0.0
 10
9.30390067656715
 20
-38.48008014988519
 30
0.0
 10
9.30390067656715
 20
-38.48008014988519
 30
0.0
 10
10.69750639589106
 20
-51.11188878794903
 30
0.0
 10
10.69750639589106
 20
-51.11188878794903
 30
0.0
 10
10.69750639589106
 20
-51.11188878794903
 30
0.0
 10
14.33031652139345
 20
-50.63463540400801
 30
0.0
 10
14.33031652139345
 20
-50.63463540400801
 30
0.0
 10
14.33031652139345
 20
-50.63463540400801
 30
0.0
 10
14.34601323769811
 20
-48.05634747469382
 30
0.0
 10
14.34601323769811
 20
-48.05634747469382
 30
0.0
 10
14.34601323769811
 20
-48.05634747469382
 30
0.0
 10
21.31727851499772
 20
-43.56122994923339
 30
0.0
 10
21.31727851499772
 20
-43.56122994923339
 30
0.0
 10
21.31727851499772
 20
-43.56122994923339
 30
0.0
 10
34.30056611628024
 20
-43.56122994923339
 30
0.0
 10
34.30056611628024
 20
-43.56122994923339
 30
0.0
 10
34.30056611628024
 20
-43.56122994923339
 30
0.0
 10
41.27183139357985
 20
-48.05634747469382
 30
0.0
 10
41.27183139357985
 20
-48.05634747469382
 30
0.0
 10
41.27183139357985
 20
-48.05634747469382
 30
0.0
 10
41.28752810988452
 20
-50.63463540400801
 30
0.0
 10
41.28752810988452
 20
-50.63463540400801
 30
0.0
 10
41.28752810988452
 20
-50.63463540400801
 30
0.0
 10
44.92035976723369
 20
-51.11188878794903
 30
0.0
 10
44.92035976723369
 20
-51.11188878794903
 30
0.0
 10
44.92035976723369
 20
-51.11188878794903
 30
0.0
 10
46.3139654865576
 20
-38.48008014988519
 30
0.0
 10
46.3139654865576
 20
-38.48008014988519
 30
0.0
 10
46.3139654865576
 20
-38.48008014988519
 30
0.0
 10
46.29318725441218
 20
-38.48638898099255
 30
0.0
 10
46.29318725441218
 20
-38.48638898099255
 30
0.0
  0
SPLINE
  5
42
330
1F
100
AcDbEntity
  8
Ebene 1
 62
   179
420
  1907995
370
    35
100
AcDbSpline
210
0.0
220
0.0
230
1.0
 70
    11
 71
     3
 72
    17
 73
    13
 74
     0
 42
0.0000000001
 43
0.0000000001
 12
1.0
 22
0.0
 32
0.0
 13
1.0
 23
0.0
 33
0.0
 40
0.0
 40
0.0
 40
0.0
 40
0.0
 40
1.0
 40
1.0
 40
1.0
 40
2.0
 40
2.0
 40
2.0
 40
3.0
 40
3.0
 40
3.0
 40
4.0
 40
4.0
 40
4.0
 40
4.0
 10
37.55893307912474
 20
-31.30902776995052
 30
0.0
 10
37.55893307912474
 20
-36.69380407915526
 30
0.0
 10
33.19370939076711
 20
-41.05902776751289
 30
0.0
 10
27.80893308156237
 20
-41.05902776751289
 30
0.0
 10
22.42415677235764
 20
-41.05902776751289
 30
0.0
 10
18.058933084
 20
-36.69380407915526
 30
0.0
 10
18.058933084
 20
-31.30902776995052
 30
0.0
 10
18.058933084
 20
-25.92425146074579
 30
0.0
 10
22.42415677235764
 20
-21.55902777238815
 30
0.0
 10
27.80893308156237
 20
-21.55902777238815
 30
0.0
 10
33.19370939076711
 20
-21.55902777238815
 30
0.0
 10
37.55893307912474
 20
-25.92425146074579
 30
0.0
 10
37.55893307912474
 20
-31.30902776995052
 30
0.0
  0
SPLINE
  5
43
330
1F
100
AcDbEntity
  8
Ebene 1
 62
   179
420
  1907995
370
    35
100
AcDbSpline
210
0.0
220
0.0
230
1.0
 70
    11
 71
     3
 72
    62
 73
    58
 74
     0
 42
0.0000000001
 43
0.0000000001
 12
1.0
 22
0.0
 32
0.0
 13
1.0
 23
0.0
 33
0.0
 40
0.0
 40
0.0
 40
0.0
 40
0.0
 40
1.0
 40
1.0
 40
1.0
 40
2.0
 40
2.0
 40
2.0
 40
3.0
 40
3.0
 40
3.0
 40
4.0
 40
4.0
 40
4.0
 40
5.0
 40
5.0
 40
5.0
 40
6.0
 40
6.0
 40
6.0
 40
7.0
 40
7.0
 40
7.0
 40
8.0
 40
8.0
 40
8.0
 40
9.0
 40
9.0
 40
9.0
 40
10.0
 40
10.0
 40
10.0
 40
11.0
 40
11.0
 40
11.0
 40
12.0
 40
12.0
 40
12.0
 40
13.0
 40
13.0
 40
13.0
 40
14.0
 40
14.0
 40
14.0
 40
15.0
 40
15.0
 40
15.0
 40
16.0
 40
16.0
 40
16.0
 40
17.0
 40
17.0
 40
17.0
 40
18.0
 40
18.0
 40
18.0
 40
19.0
 40
19.0
 40
19.0
 40
19.0
 10
47.51139998983761
 20
-88.03380853421694
 30
0.0
 10
47.51139998983761
 20
-88.03380853421694
 30
0.0
 10
47.51656763306548
 20
-88.02065257583266
 30
0.0
 10
47.51656763306548
 20
-88.02065257583266
 30
0.0
 10
47.51656763306548
 20
-88.02065257583266
 30
0.0
 10
41.97063415052774
 20
-78.95903945282679
 30
0.0
 10
41.97063415052774
 20
-78.95903945282679
 30
0.0
 10
41.97063415052774
 20
-78.95903945282679
 30
0.0
 10
41.08400534551091
 20
-67.99149073904188
 30
0.0
 10
39.12204866415431
 20
-63.71393900624287
 30
0.0
 10
37.44339445555963
 20
-60.05405686563338
 30
0.0
 10
27.93952710119602
 20
-50.60525765381714
 30
0.0
 10
27.93952710119602
 20
-50.60525765381714
 30
0.0
 10
27.93952710119602
 20
-50.60525765381714
 30
0.0
 10
18.40706435638152
 20
-60.04894428298539
 30
0.0
 10
16.72330819802263
 20
-63.71393900624287
 30
0.0
 10
14.74723604187633
 20
-68.0152114850969
 30
0.0
 10
13.88279715419243
 20
-79.06852889371739
 30
0.0
 10
13.88279715419243
 20
-79.06852889371739
 30
0.0
 10
13.88279715419243
 20
-79.06852889371739
 30
0.0
 10
8.4209240014951
 20
-88.02065257583266
 30
0.0
 10
8.4209240014951
 20
-88.02065257583266
 30
0.0
 10
8.4209240014951
 20
-88.02065257583266
 30
0.0
 10
8.426091644722977
 20
-88.03380853421694
 30
0.0
 10
8.426091644722977
 20
-88.03380853421694
 30
0.0
 10
8.426091644722977
 20
-88.03380853421694
 30
0.0
 10
8.405313412577563
 20
-88.02749970310958
 30
0.0
 10
8.405313412577563
 20
-88.02749970310958
 30
0.0
 10
8.405313412577563
 20
-88.02749970310958
 30
0.0
 10
9.79891913190147
 20
-100.6593083411734
 30
0.0
 10
9.79891913190147
 20
-100.6593083411734
 30
0.0
 10
9.79891913190147
 20
-100.6593083411734
 30
0.0
 10
13.43172925740386
 20
-100.1820549572324
 30
0.0
 10
13.43172925740386
 20
-100.1820549572324
 30
0.0
 10
13.43172925740386
 20
-100.1820549572324
 30
0.0
 10
13.44742597370853
 20
-97.60376702791821
 30
0.0
 10
13.44742597370853
 20
-97.60376702791821
 30
0.0
 10
13.44742597370853
 20
-97.60376702791821
 30
0.0
 10
20.41869125100813
 20
-93.10864950245778
 30
0.0
 10
20.41869125100813
 20
-93.10864950245778
 30
0.0
 10
20.41869125100813
 20
-93.10864950245778
 30
0.0
 10
35.51877885170567
 20
-93.10864950245778
 30
0.0
 10
35.51877885170567
 20
-93.10864950245778
 30
0.0
 10
35.51877885170567
 20
-93.10864950245778
 30
0.0
 10
42.49004412900528
 20
-97.60376702791821
 30
0.0
 10
42.49004412900528
 20
-97.60376702791821
 30
0.0
 10
42.49004412900528
 20
-97.60376702791821
 30
0.0
 10
42.50574084530994
 20
-100.1820549572324
 30
0.0
 10
42.50574084530994
 20
-100.1820549572324
 30
0.0
 10
42.50574084530994
 20
-100.1820549572324
 30
0.0
 10
46.13857250265912
 20
-100.6593083411734
 30
0.0
 10
46.13857250265912
 20
-100.6593083411734
 30
0.0
 10
46.13857250265912
 20
-100.6593083411734
 30
0.0
 10
47.5321782219827
 20
-88.02749970310958
 30
0.0
 10
47.5321782219827
 20
-88.02749970310958
 30
0.0
 10
47.5321782219827
 20
-88.02749970310958
 30
0.0
 10
47.51139998983761
 20
-88.03380853421694
 30
0.0
 10
47.51139998983761
 20
-88.03380853421694
 30
0.0
  0
SPLINE
  5
44
330
1F
100
AcDbEntity
  8
Ebene 1
 62
   179
420
  1907995
370
    35
100
AcDbSpline
210
0.0
220
0.0
230
1.0
 70
    11
 71
     3
 72
    17
 73
    13
 74
     0
 42
0.0000000001
 43
0.0000000001
 12
1.0
 22
0.0
 32
0.0
 13
1.0
 23
0.0
 33
0.0
 40
0.0
 40
0.0
 40
0.0
 40
0.0
 40
1.0
 40
1.0
 40
1.0
 40
2.0
 40
2.0
 40
2.0
 40
3.0
 40
3.0
 40
3.0
 40
4.0
 40
4.0
 40
4.0
 40
4.0
 10
37.71874581484266
 20
-80.06748239565887
 30
0.0
 10
37.71874581484266
 20
-85.4522587048636
 30
0.0
 10
33.35352212648503
 20
-89.81748239322124
 30
0.0
 10
27.96874581728029
 20
-89.81748239322124
 30
0.0
 10
22.58396950807556
 20
-89.81748239322124
 30
0.0
 10
18.21874581971792
 20
-85.4522587048636
 30
0.0
 10
18.21874581971792
 20
-80.06748239565887
 30
0.0
 10
18.21874581971792
 20
-74.68270608645413
 30
0.0
 10
22.58396950807556
 20
-70.3174823980965
 30
0.0
 10
27.96874581728029
 20
-70.3174823980965
 30
0.0
 10
33.35352212648503
 20
-70.3174823980965
 30
0.0
 10
37.71874581484266
 20
-74.68270608645413
 30
0.0
 10
37.71874581484266
 20
-80.06748239565887
 30
0.0
  0
SPLINE
  5
46
330
1F
100
AcDbEntity
  8
Ebene 2
 62
   179
420
  1907995
370
    35
100
AcDbSpline
210
0.0
220
0.0
230
1.0
 70
    11
 71
     3
 72
    92
 73
    88
 74
     0
 42
0.0000000001
 43
0.0000000001
 12
1.0
 22
0.0
 32
0.0
 13
1.0
 23
0.0
 33
0.0
 40
0.0
 40
0.0
 40
0.0
 40
0.0
 40
1.0
 40
1.0
 40
1.0
 40
2.0
 40
2.0
 40
2.0
 40
3.0
 40
3.0
 40
3.0
 40
4.0
 40
4.0
 40
4.0
 40
5.0
 40
5.0
 40
5.0
 40
6.0
 40
6.0
 40
6.0
 40
7.0
 40
7.0
 40
7.0
 40
8.0
 40
8.0
 40
8.0
 40
9.0
 40
9.0
 40
9.0
 40
10.0
 40
10.0
 40
10.0
 40
11.0
 40
11.0
 40
11.0
 40
12.0
 40
12.0
 40
12.0
 40
13.0
 40
13.0
 40
13.0
 40
14.0
 40
14.0
 40
14.0
 40
15.0
 40
15.0
 40
15.0
 40
16.0
 40
16.0
 40
16.0
 40
17.0
 40
17.0
 40
17.0
 40
18.0
 40
18.0
 40
18.0
 40
19.0
 40
19.0
 40
19.0
 40
20.0
 40
20.0
 40
20.0
 40
21.0
 40
21.0
 40
21.0
 40
22.0
 40
22.0
 40
22.0
 40
23.0
 40
23.0
 40
23.0
 40
24.0
 40
24.0
 40
24.0
 40
25.0
 40
25.0
 40
25.0
 40
26.0
 40
26.0
 40
26.0
 40
27.0
 40
27.0
 40
27.0
 40
28.0
 40
28.0
 40
28.0
 40
29.0
 40
29.0
 40
29.0
 40
29.0
 10
127.8709416387679
 20
-87.39161598139293
 30
0.0
 10
127.2650570021464
 20
-80.16434394950866
 30
0.0
 10
126.8863548809303
 20
-72.25948623121577
 30
0.0
 10
124.3358860976595
 20
-72.25948623121577
 30
0.0
 10
122.9180355188582
 20
-72.25948623121577
 30
0.0
 10
122.2125445590193
 20
-74.70806631551
 30
0.0
 10
121.3448111336721
 20
-78.11991662932716
 30
0.0
 10
121.3448111336721
 20
-78.11991662932716
 30
0.0
 10
118.7137055841996
 20
-74.07761384170928
 30
0.0
 10
118.7137055841996
 20
-74.07761384170928
 30
0.0
 10
117.1550797911322
 20
-62.22962902208013
 30
0.0
 10
111.0362241679332
 20
-50.91643068099599
 30
0.0
 10
106.8660437422722
 20
-50.91643068099599
 30
0.0
 10
102.6705203329478
 20
-50.91643068099599
 30
0.0
 10
96.5033257137214
 20
-62.38465831891637
 30
0.0
 10
94.99125177339846
 20
-74.29342754201339
 30
0.0
 10
94.99125177339846
 20
-74.29342754201339
 30
0.0
 10
92.42161964649095
 20
-78.27425690706636
 30
0.0
 10
92.42161964649095
 20
-78.27425690706636
 30
0.0
 10
91.53790959083081
 20
-74.93005965584078
 30
0.0
 10
90.83278467238729
 20
-73.31788415982456
 30
0.0
 10
89.39620138688521
 20
-73.31788415982456
 30
0.0
 10
86.85742439641749
 20
-73.31788415982456
 30
0.0
 10
86.8399836005234
 20
-80.09191081693128
 30
0.0
 10
86.2229024035748
 20
-87.29203119002243
 30
0.0
 10
86.2229024035748
 20
-87.29203119002243
 30
0.0
 10
81.57327234560093
 20
-93.70122223524088
 30
0.0
 10
81.57327234560093
 20
-93.70122223524088
 30
0.0
 10
81.57327234560093
 20
-93.70122223524088
 30
0.0
 10
86.27849763196802
 20
-96.69453651129376
 30
0.0
 10
86.27849763196802
 20
-96.69453651129376
 30
0.0
 10
86.27849763196802
 20
-96.69453651129376
 30
0.0
 10
87.32343815633787
 20
-95.25416362075758
 30
0.0
 10
87.32343815633787
 20
-95.25416362075758
 30
0.0
 10
87.32343815633787
 20
-95.25416362075758
 30
0.0
 10
92.84702434337896
 20
-95.29578468058877
 30
0.0
 10
92.84702434337896
 20
-95.29578468058877
 30
0.0
 10
92.84702434337896
 20
-95.29578468058877
 30
0.0
 10
93.8617772185593
 20
-96.69453651129376
 30
0.0
 10
93.8617772185593
 20
-96.69453651129376
 30
0.0
 10
93.8617772185593
 20
-96.69453651129376
 30
0.0
 10
98.56700250492639
 20
-93.70122223524088
 30
0.0
 10
98.56700250492639
 20
-93.70122223524088
 30
0.0
 10
98.56700250492639
 20
-93.70122223524088
 30
0.0
 10
97.2581891982332
 20
-91.89711185700267
 30
0.0
 10
97.2581891982332
 20
-91.89711185700267
 30
0.0
 10
97.2581891982332
 20
-91.89711185700267
 30
0.0
 10
98.36464620886153
 20
-90.79065484637465
 30
0.0
 10
98.36464620886153
 20
-90.79065484637465
 30
0.0
 10
98.36464620886153
 20
-90.79065484637465
 30
0.0
 10
100.3652777526865
 20
-93.07182482193284
 30
0.0
 10
100.3652777526865
 20
-93.07182482193284
 30
0.0
 10
100.3652777526865
 20
-93.07182482193284
 30
0.0
 10
100.3652777526865
 20
-94.66137034698001
 30
0.0
 10
100.3652777526865
 20
-94.66137034698001
 30
0.0
 10
100.3652777526865
 20
-94.66137034698001
 30
0.0
 10
113.2416666383563
 20
-94.66137034698001
 30
0.0
 10
113.2416666383563
 20
-94.66137034698001
 30
0.0
 10
113.2416666383563
 20
-94.66137034698001
 30
0.0
 10
113.2416666383563
 20
-93.04992693375439
 30
0.0
 10
113.2416666383563
 20
-93.04992693375439
 30
0.0
 10
113.2416666383563
 20
-93.04992693375439
 30
0.0
 10
115.3054080251016
 20
-90.53993802243559
 30
0.0
 10
115.3054080251016
 20
-90.53993802243559
 30
0.0
 10
115.3054080251016
 20
-90.53993802243559
 30
0.0
 10
116.3681984504544
 20
-91.60272844778807
 30
0.0
 10
116.3681984504544
 20
-91.60272844778807
 30
0.0
 10
116.3681984504544
 20
-91.60272844778807
 30
0.0
 10
114.8458322873693
 20
-93.70122223524088
 30
0.0
 10
114.8458322873693
 20
-93.70122223524088
 30
0.0
 10
114.8458322873693
 20
-93.70122223524088
 30
0.0
 10
119.5510575737364
 20
-96.69453651129376
 30
0.0
 10
119.5510575737364
 20
-96.69453651129376
 30
0.0
 10
119.5510575737364
 20
-96.69453651129376
 30
0.0
 10
120.7193325164782
 20
-95.08414815856051
 30
0.0
 10
120.7193325164782
 20
-95.08414815856051
 30
0.0
 10
120.7193325164782
 20
-95.08414815856051
 30
0.0
 10
126.7283326573913
 20
-95.29578468058877
 30
0.0
 10
126.7283326573913
 20
-95.29578468058877
 30
0.0
 10
126.7283326573913
 20
-95.29578468058877
 30
0.0
 10
127.7430640007248
 20
-96.69453651129376
 30
0.0
 10
127.7430640007248
 20
-96.69453651129376
 30
0.0
 10
127.7430640007248
 20
-96.69453651129376
 30
0.0
 10
132.4483108189387
 20
-93.70122223524088
 30
0.0
 10
132.4483108189387
 20
-93.70122223524088
 30
0.0
 10
132.4483108189387
 20
-93.70122223524088
 30
0.0
 10
127.8709416387679
 20
-87.39161598139293
 30
0.0
 10
127.8709416387679
 20
-87.39161598139293
 30
0.0
  0
SPLINE
  5
47
330
1F
100
AcDbEntity
  8
Ebene 2
 62
   179
420
  1907995
370
    35
100
AcDbSpline
210
0.0
220
0.0
230
1.0
 70
    11
 71
     3
 72
    17
 73
    13
 74
     0
 42
0.0000000001
 43
0.0000000001
 12
1.0
 22
0.0
 32
0.0
 13
1.0
 23
0.0
 33
0.0
 40
0.0
 40
0.0
 40
0.0
 40
0.0
 40
1.0
 40
1.0
 40
1.0
 40
2.0
 40
2.0
 40
2.0
 40
3.0
 40
3.0
 40
3.0
 40
4.0
 40
4.0
 40
4.0
 40
4.0
 10
107.0107808163463
 20
-89.22950982723368
 30
0.0
 10
101.6260104455136
 20
-89.22950982723368
 30
0.0
 10
97.26079455169392
 20
-84.86429393341365
 30
0.0
 10
97.26079455169392
 20
-79.47952356258102
 30
0.0
 10
97.26079455169392
 20
-74.09473165990161
 30
0.0
 10
101.6260104455136
 20
-69.72951576608189
 30
0.0
 10
107.0107808163463
 20
-69.72951576608189
 30
0.0
 10
112.3955511871789
 20
-69.72951576608189
 30
0.0
 10
116.7607886128454
 20
-74.09473165990161
 30
0.0
 10
116.7607886128454
 20
-79.47952356258102
 30
0.0
 10
116.7607886128454
 20
-84.86429393341365
 30
0.0
 10
112.3955511871789
 20
-89.22950982723368
 30
0.0
 10
107.0107808163463
 20
-89.22950982723368
 30
0.0
  0
SPLINE
  5
49
330
1F
100
AcDbEntity
  8
Ebene 3
 62
   179
420
  1907995
370
    35
100
AcDbSpline
210
0.0
220
0.0
230
1.0
 70
    11
 71
     3
 72
    47
 73
    43
 74
     0
 42
0.0000000001
 43
0.0000000001
 12
1.0
 22
0.0
 32
0.0
 13
1.0
 23
0.0
 33
0.0
 40
0.0
 40
0.0
 40
0.0
 40
0.0
 40
1.0
 40
1.0
 40
1.0
 40
2.0
 40
2.0
 40
2.0
 40
3.0
 40
3.0
 40
3.0
 40
4.0
 40
4.0
 40
4.0
 40
5.0
 40
5.0
 40
5.0
 40
6.0
 40
6.0
 40
6.0
 40
7.0
 40
7.0
 40
7.0
 40
8.0
 40
8.0
 40
8.0
 40
9.0
 40
9.0
 40
9.0
 40
10.0
 40
10.0
 40
10.0
 40
11.0
 40
11.0
 40
11.0
 40
12.0
 40
12.0
 40
12.0
 40
13.0
 40
13.0
 40
13.0
 40
14.0
 40
14.0
 40
14.0
 40
14.0
 10
128.7849470028515
 20
-32.31422050515929
 30
0.0
 10
128.5688533885392
 20
-32.31422050515929
 30
0.0
 10
128.3592839238021
 20
-32.34048935823432
 30
0.0
 10
128.1570137551244
 20
-32.38620146895423
 30
0.0
 10
126.6522391108608
 20
-28.88719023936023
 30
0.0
 10
122.2083027852031
 20
-25.95502640817053
 30
0.0
 10
116.2215450420167
 20
-24.30004560075008
 30
0.0
 10
114.9617812822947
 20
-19.25788997592555
 30
0.0
 10
110.4033601272928
 20
-15.52222221834167
 30
0.0
 10
104.9709397795298
 20
-15.52222221834167
 30
0.0
 10
99.53851943176684
 20
-15.52222221834167
 30
0.0
 10
94.98009827676496
 20
-19.25788997592555
 30
0.0
 10
93.72033451704301
 20
-24.30004560075008
 30
0.0
 10
87.73357677385654
 20
-25.95502640817053
 30
0.0
 10
83.28966198004565
 20
-28.88719023936023
 30
0.0
 10
81.7848873357824
 20
-32.38620146895423
 30
0.0
 10
81.58263869895113
 20
-32.34048935823432
 30
0.0
 10
81.37302617052079
 20
-32.31422050515929
 30
0.0
 10
81.15695408805495
 20
-32.31422050515929
 30
0.0
 10
79.58829445438711
 20
-32.31422050515929
 30
0.0
 10
78.3166666470875
 20
-33.58586984430536
 30
0.0
 10
78.3166666470875
 20
-35.15450794612674
 30
0.0
 10
78.3166666470875
 20
-36.72314604794812
 30
0.0
 10
79.58829445438711
 20
-37.9947738552474
 30
0.0
 10
81.15695408805495
 20
-37.9947738552474
 30
0.0
 10
81.41335531954466
 20
-37.9947738552474
 30
0.0
 10
81.66056245245812
 20
-37.95771754693418
 30
0.0
 10
81.89683140720592
 20
-37.89402634415094
 30
0.0
 10
84.42088061447421
 20
-43.22518241649405
 30
0.0
 10
93.79093744264385
 20
-47.18497516724022
 30
0.0
 10
104.9709397795298
 20
-47.18497516724022
 30
0.0
 10
116.1509636482626
 20
-47.18497516724022
 30
0.0
 10
125.5210204764323
 20
-43.22513935280081
 30
0.0
 10
128.0450481518538
 20
-37.89400481230384
 30
0.0
 10
128.2813171066016
 20
-37.9576960150874
 30
0.0
 10
128.5285457713618
 20
-37.9947738552474
 30
0.0
 10
128.7849470028515
 20
-37.9947738552474
 30
0.0
 10
130.3535851046729
 20
-37.9947738552474
 30
0.0
 10
131.6252129119722
 20
-36.72314604794812
 30
0.0
 10
131.6252129119722
 20
-35.15450794612674
 30
0.0
 10
131.6252129119722
 20
-33.58586984430536
 30
0.0
 10
130.3535851046729
 20
-32.31422050515929
 30
0.0
 10
128.7849470028515
 20
-32.31422050515929
 30
0.0
  0
SPLINE
  5
4A
330
1F
100
AcDbEntity
  8
Ebene 3
 62
   179
420
  1907995
370
    35
100
AcDbSpline
210
0.0
220
0.0
230
1.0
 70
    11
 71
     3
 72
    17
 73
    13
 74
     0
 42
0.0000000001
 43
0.0000000001
 12
1.0
 22
0.0
 32
0.0
 13
1.0
 23
0.0
 33
0.0
 40
0.0
 40
0.0
 40
0.0
 40
0.0
 40
1.0
 40
1.0
 40
1.0
 40
2.0
 40
2.0
 40
2.0
 40
3.0
 40
3.0
 40
3.0
 40
4.0
 40
4.0
 40
4.0
 40
4.0
 10
87.58929186856491
 20
-37.83539512536103
 30
0.0
 10
86.0306014799572
 20
-37.83539512536103
 30
0.0
 10
84.76706964704826
 20
-36.5718417606053
 30
0.0
 10
84.76706964704826
 20
-35.01317290384436
 30
0.0
 10
84.76706964704826
 20
-33.45450404708343
 30
0.0
 10
86.0306014799572
 20
-32.1909506823277
 30
0.0
 10
87.58929186856491
 20
-32.1909506823277
 30
0.0
 10
89.14796072532586
 20
-32.1909506823277
 30
0.0
 10
90.41151409008158
 20
-33.45450404708343
 30
0.0
 10
90.41151409008158
 20
-35.01317290384436
 30
0.0
 10
90.41151409008158
 20
-36.5718417606053
 30
0.0
 10
89.14796072532586
 20
-37.83539512536103
 30
0.0
 10
87.58929186856491
 20
-37.83539512536103
 30
0.0
  0
SPLINE
  5
4B
330
1F
100
AcDbEntity
  8
Ebene 3
 62
   179
420
  1907995
370
    35
100
AcDbSpline
210
0.0
220
0.0
230
1.0
 70
    11
 71
     3
 72
    29
 73
    25
 74
     0
 42
0.0000000001
 43
0.0000000001
 12
1.0
 22
0.0
 32
0.0
 13
1.0
 23
0.0
 33
0.0
 40
0.0
 40
0.0
 40
0.0
 40
0.0
 40
1.0
 40
1.0
 40
1.0
 40
2.0
 40
2.0
 40
2.0
 40
3.0
 40
3.0
 40
3.0
 40
4.0
 40
4.0
 40
4.0
 40
5.0
 40
5.0
 40
5.0
 40
6.0
 40
6.0
 40
6.0
 40
7.0
 40
7.0
 40
7.0
 40
8.0
 40
8.0
 40
8.0
 40
8.0
 10
114.1187233533605
 20
-37.59873859737115
 30
0.0
 10
112.7443886369072
 20
-41.31782683293226
 30
0.0
 10
109.1676043767337
 20
-43.96955989162263
 30
0.0
 10
104.9709397795298
 20
-43.96955989162263
 30
0.0
 10
100.7391352083764
 20
-43.96955989162263
 30
0.0
 10
97.13838600273364
 20
-41.27291140054332
 30
0.0
 10
95.78984643872616
 20
-37.50477361801096
 30
0.0
 10
94.8990093417809
 20
-37.03023324676458
 30
0.0
 10
94.29206964466701
 20
-36.09297348815558
 30
0.0
 10
94.29206964466701
 20
-35.01317290384436
 30
0.0
 10
94.29206964466701
 20
-34.13572861559801
 30
0.0
 10
94.69254046298052
 20
-33.35188326531654
 30
0.0
 10
95.32062443363513
 20
-32.83425766865776
 30
0.0
 10
95.99347311375121
 20
-28.10588564699914
 30
0.0
 10
100.0566402609016
 20
-24.46954429862437
 30
0.0
 10
104.9709397795298
 20
-24.46954429862437
 30
0.0
 10
109.8384075314054
 20
-24.46954429862437
 30
0.0
 10
113.8720114529231
 20
-28.03663922774562
 30
0.0
 10
114.6022425047153
 20
-32.69912379824883
 30
0.0
 10
115.3326673431286
 20
-33.20921324853364
 30
0.0
 10
115.8115140837316
 20
-34.0547042761543
 30
0.0
 10
115.8115140837316
 20
-35.01317290384436
 30
0.0
 10
115.8115140837316
 20
-36.16997137225091
 30
0.0
 10
115.1147865855334
 20
-37.16295555033383
 30
0.0
 10
114.1187233533605
 20
-37.59873859737115
 30
0.0
  0
SPLINE
  5
4C
330
1F
100
AcDbEntity
  8
Ebene 3
 62
   179
420
  1907995
370
    35
100
AcDbSpline
210
0.0
220
0.0
230
1.0
 70
    11
 71
     3
 72
    17
 73
    13
 74
     0
 42
0.0000000001
 43
0.0000000001
 12
1.0
 22
0.0
 32
0.0
 13
1.0
 23
0.0
 33
0.0
 40
0.0
 40
0.0
 40
0.0
 40
0.0
 40
1.0
 40
1.0
 40
1.0
 40
2.0
 40
2.0
 40
2.0
 40
3.0
 40
3.0
 40
3.0
 40
4.0
 40
4.0
 40
4.0
 40
4.0
 10
122.5142918598337
 20
-37.83539512536103
 30
0.0
 10
120.9556230030727
 20
-37.83539512536103
 30
0.0
 10
119.692069638317
 20
-36.5718417606053
 30
0.0
 10
119.692069638317
 20
-35.01317290384436
 30
0.0
 10
119.692069638317
 20
-33.45450404708343
 30
0.0
 10
120.9556230030727
 20
-32.1909506823277
 30
0.0
 10
122.5142918598337
 20
-32.1909506823277
 30
0.0
 10
124.0729607165946
 20
-32.1909506823277
 30
0.0
 10
125.3365140813503
 20
-33.45450404708343
 30
0.0
 10
125.3365140813503
 20
-35.01317290384436
 30
0.0
 10
125.3365140813503
 20
-36.5718417606053
 30
0.0
 10
124.0729607165946
 20
-37.83539512536103
 30
0.0
 10
122.5142918598337
 20
-37.83539512536103
 30
0.0
  0
SPLINE
  5
4D
330
1F
100
AcDbEntity
  8
Ebene 3
 62
   179
420
  1907995
370
    35
100
AcDbSpline
210
0.0
220
0.0
230
1.0
 70
    11
 71
     3
 72
    86
 73
    82
 74
     0
 42
0.0000000001
 43
0.0000000001
 12
1.0
 22
0.0
 32
0.0
 13
1.0
 23
0.0
 33
0.0
 40
0.0
 40
0.0
 40
0.0
 40
0.0
 40
1.0
 40
1.0
 40
1.0
 40
2.0
 40
2.0
 40
2.0
 40
3.0
 40
3.0
 40
3.0
 40
4.0
 40
4.0
 40
4.0
 40
5.0
 40
5.0
 40
5.0
 40
6.0
 40
6.0
 40
6.0
 40
7.0
 40
7.0
 40
7.0
 40
8.0
 40
8.0
 40
8.0
 40
9.0
 40
9.0
 40
9.0
 40
10.0
 40
10.0
 40
10.0
 40
11.0
 40
11.0
 40
11.0
 40
12.0
 40
12.0
 40
12.0
 40
13.0
 40
13.0
 40
13.0
 40
14.0
 40
14.0
 40
14.0
 40
15.0
 40
15.0
 40
15.0
 40
16.0
 40
16.0
 40
16.0
 40
17.0
 40
17.0
 40
17.0
 40
18.0
 40
18.0
 40
18.0
 40
19.0
 40
19.0
 40
19.0
 40
20.0
 40
20.0
 40
20.0
 40
21.0
 40
21.0
 40
21.0
 40
22.0
 40
22.0
 40
22.0
 40
23.0
 40
23.0
 40
23.0
 40
24.0
 40
24.0
 40
24.0
 40
25.0
 40
25.0
 40
25.0
 40
26.0
 40
26.0
 40
26.0
 40
27.0
 40
27.0
 40
27.0
 40
27.0
 10
97.89960138204637
 20
-8.448529672276718
 30
0.0
 10
96.98256002756644
 20
-3.621046559876819
 30
0.0
 10
92.385230825428
 20
0.5507272224461233
 30
0.0
 10
85.79551677678246
 20
3.077058805473395
 30
0.0
 10
83.43713359866112
 20
8.306627624695517
 30
0.0
 10
77.74066821380052
 20
11.99608803908348
 30
0.0
 10
71.0835594847251
 20
11.99608803908348
 30
0.0
 10
64.42645075564903
 20
11.99608803908348
 30
0.0
 10
58.72998537078843
 20
8.306627624695517
 30
0.0
 10
56.37160219266708
 20
3.077058805473395
 30
0.0
 10
49.98295252927976
 20
0.6278112339285884
 30
0.0
 10
45.46675532581865
 20
-3.368025828332001
 30
0.0
 10
44.36126724829553
 20
-8.008461787729617
 30
0.0
 10
43.21196186256973
 20
-8.189910660568371
 30
0.0
 10
42.33217060302405
 20
-9.182055096626758
 30
0.0
 10
42.33217060302405
 20
-10.38239095922815
 30
0.0
 10
42.33217060302405
 20
-11.71140113820362
 30
0.0
 10
43.40955962049527
 20
-12.78879015567516
 30
0.0
 10
44.73856979947107
 20
-12.78879015567516
 30
0.0
 10
45.06596152980339
 20
-12.78879015567516
 30
0.0
 10
45.37782879860563
 20
-12.72283810897941
 30
0.0
 10
45.66232909014692
 20
-12.60441295167395
 30
0.0
 10
46.46738330950946
 20
-13.30060215370259
 30
0.0
 10
47.56507685849719
 20
-14.02898146667154
 30
0.0
 10
48.90842724743033
 20
-14.74437707603045
 30
0.0
 10
48.87587109509472
 20
-14.90220551294846
 30
0.0
 10
48.85855949028134
 20
-15.06561069818321
 30
0.0
 10
48.85855949028134
 20
-15.23308540245992
 30
0.0
 10
48.85855949028134
 20
-16.56209558143539
 30
0.0
 10
49.93594850775256
 20
-17.63948459890693
 30
0.0
 10
51.26495868672836
 20
-17.63948459890693
 30
0.0
 10
52.06458688070131
 20
-17.63948459890693
 30
0.0
 10
52.77108983733891
 20
-17.24784183777437
 30
0.0
 10
53.20868155950631
 20
-16.64766314055029
 30
0.0
 10
54.86966975217885
 20
-17.2619667292639
 30
0.0
 10
56.71303268710245
 20
-17.82427090799702
 30
0.0
 10
58.70074512285737
 20
-18.29777775059783
 30
0.0
 10
58.73607888342828
 20
-19.59595432498032
 30
0.0
 10
59.79710369734456
 20
-20.63809570926839
 30
0.0
 10
61.10380688305337
 20
-20.63809570926839
 30
0.0
 10
62.09496085415974
 20
-20.63809570926839
 30
0.0
 10
62.94551186577404
 20
-20.03851990375422
 30
0.0
 10
63.31424474192969
 20
-19.1825859304439
 30
0.0
 10
65.77522716997113
 20
-19.54309364112851
 30
0.0
 10
68.3820017325793
 20
-19.75391195297902
 30
0.0
 10
71.0835594847251
 20
-19.75391195297902
 30
0.0
 10
73.67457273548762
 20
-19.75391195297902
 30
0.0
 10
76.17713315966698
 20
-19.55861810265892
 30
0.0
 10
78.54893067833369
 20
-19.22487447752534
 30
0.0
 10
78.88372936395963
 20
-20.15119605796868
 30
0.0
 10
79.76830069349141
 20
-20.81448459811318
 30
0.0
 10
80.81009756823096
 20
-20.81448459811318
 30
0.0
 10
82.13910774720611
 20
-20.81448459811318
 30
0.0
 10
83.21649676467797
 20
-19.73709558064164
 30
0.0
 10
83.21649676467797
 20
-18.40808540166617
 30
0.0
 10
83.21649676467797
 20
-18.39096758347383
 30
0.0
 10
83.2143005163058
 20
-18.37440959329786
 30
0.0
 10
83.2139344749105
 20
-18.35737790249265
 30
0.0
 10
85.11575637384911
 20
-17.91438168678309
 30
0.0
 10
86.88851638317153
 20
-17.38965058068597
 30
0.0
 10
88.49948609576792
 20
-16.81455648496386
 30
0.0
 10
88.94028606310565
 20
-17.37020732304109
 30
0.0
 10
89.62002493419222
 20
-17.72767904332933
 30
0.0
 10
90.38436243128847
 20
-17.72767904332933
 30
0.0
 10
91.71337261026393
 20
-17.72767904332933
 30
0.0
 10
92.79076162773548
 20
-16.65029002585779
 30
0.0
 10
92.79076162773548
 20
-15.32127984688232
 30
0.0
 10
92.79076162773548
 20
-15.21265167986303
 30
0.0
 10
92.7810722966832
 20
-15.10652120707056
 30
0.0
 10
92.76711965996795
 20
-15.00170417693183
 30
0.0
 10
94.17967340446073
 20
-14.28490899753203
 30
0.0
 10
95.34217781226472
 20
-13.54920885665693
 30
0.0
 10
96.21897614510759
 20
-12.84083262934922
 30
0.0
 10
96.59595571858105
 20
-13.08597270497152
 30
0.0
 10
97.04493778769624
 20
-13.22976237778714
 30
0.0
 10
97.52811242950253
 20
-13.22976237778714
 30
0.0
 10
98.857122608478
 20
-13.22976237778714
 30
0.0
 10
99.93451162594954
 20
-12.1523733603156
 30
0.0
 10
99.93451162594954
 20
-10.82336318134013
 30
0.0
 10
99.93451162594954
 20
-9.621003325141153
 30
0.0
 10
99.05174897154784
 20
-8.62752391458223
 30
0.0
 10
97.89960138204637
 20
-8.448529672276718
 30
0.0
  0
SPLINE
  5
4E
330
1F
100
AcDbEntity
  8
Ebene 3
 62
   179
420
  1907995
370
    35
100
AcDbSpline
210
0.0
220
0.0
230
1.0
 70
    11
 71
     3
 72
    17
 73
    13
 74
     0
 42
0.0000000001
 43
0.0000000001
 12
1.0
 22
0.0
 32
0.0
 13
1.0
 23
0.0
 33
0.0
 40
0.0
 40
0.0
 40
0.0
 40
0.0
 40
1.0
 40
1.0
 40
1.0
 40
2.0
 40
2.0
 40
2.0
 40
3.0
 40
3.0
 40
3.0
 40
4.0
 40
4.0
 40
4.0
 40
4.0
 10
71.13334111448695
 20
-15.98241520234854
 30
0.0
 10
65.74857074365433
 20
-15.98241520234854
 30
0.0
 10
61.3833333179875
 20
-11.61717777668204
 30
0.0
 10
61.3833333179875
 20
-6.232407405849413
 30
0.0
 10
61.3833333179875
 20
-0.8476370350167857
 30
0.0
 10
65.74857074365433
 20
3.517600390649718
 30
0.0
 10
71.13334111448695
 20
3.517600390649718
 30
0.0
 10
76.51811148531958
 20
3.517600390649718
 30
0.0
 10
80.88334891098576
 20
-0.8476370350167857
 30
0.0
 10
80.88334891098576
 20
-6.232407405849413
 30
0.0
 10
80.88334891098576
 20
-11.61717777668204
 30
0.0
 10
76.51811148531958
 20
-15.98241520234854
 30
0.0
 10
71.13334111448695
 20
-15.98241520234854
 30
0.0
  0
SPLINE
  5
50
330
1F
100
AcDbEntity
  8
Ebene 4
 62
   179
420
  1907995
370
    35
100
AcDbSpline
210
0.0
220
0.0
230
1.0
 70
    11
 71
     3
 72
    17
 73
    13
 74
     0
 42
0.0000000001
 43
0.0000000001
 12
1.0
 22
0.0
 32
0.0
 13
1.0
 23
0.0
 33
0.0
 40
0.0
 40
0.0
 40
0.0
 40
0.0
 40
1.0
 40
1.0
 40
1.0
 40
2.0
 40
2.0
 40
2.0
 40
3.0
 40
3.0
 40
3.0
 40
4.0
 40
4.0
 40
4.0
 40
4.0
 10
75.73402756824306
 20
-53.62364443045119
 30
0.0
 10
75.73402756824306
 20
-59.00842073965593
 30
0.0
 10
71.36880387988478
 20
-63.37364442801356
 30
0.0
 10
65.98402757068037
 20
-63.37364442801356
 30
0.0
 10
60.59925126147564
 20
-63.37364442801356
 30
0.0
 10
56.23402757311833
 20
-59.00842073965593
 30
0.0
 10
56.23402757311833
 20
-53.62364443045119
 30
0.0
 10
56.23402757311833
 20
-48.23886812124645
 30
0.0
 10
60.59925126147564
 20
-43.87364443288882
 30
0.0
 10
65.98402757068037
 20
-43.87364443288882
 30
0.0
 10
71.36880387988478
 20
-43.87364443288882
 30
0.0
 10
75.73402756824306
 20
-48.23886812124645
 30
0.0
 10
75.73402756824306
 20
-53.62364443045119
 30
0.0
  0
SPLINE
  5
51
330
1F
100
AcDbEntity
  8
Ebene 4
 62
   179
420
  1907995
370
    35
100
AcDbSpline
210
0.0
220
0.0
230
1.0
 70
    11
 71
     3
 72
    59
 73
    55
 74
     0
 42
0.0000000001
 43
0.0000000001
 12
1.0
 22
0.0
 32
0.0
 13
1.0
 23
0.0
 33
0.0
 40
0.0
 40
0.0
 40
0.0
 40
0.0
 40
1.0
 40
1.0
 40
1.0
 40
2.0
 40
2.0
 40
2.0
 40
3.0
 40
3.0
 40
3.0
 40
4.0
 40
4.0
 40
4.0
 40
5.0
 40
5.0
 40
5.0
 40
6.0
 40
6.0
 40
6.0
 40
7.0
 40
7.0
 40
7.0
 40
8.0
 40
8.0
 40
8.0
 40
9.0
 40
9.0
 40
9.0
 40
10.0
 40
10.0
 40
10.0
 40
11.0
 40
11.0
 40
11.0
 40
12.0
 40
12.0
 40
12.0
 40
13.0
 40
13.0
 40
13.0
 40
14.0
 40
14.0
 40
14.0
 40
15.0
 40
15.0
 40
15.0
 40
16.0
 40
16.0
 40
16.0
 40
17.0
 40
17.0
 40
17.0
 40
18.0
 40
18.0
 40
18.0
 40
18.0
 10
78.2787478146634
 20
-55.10242806454949
 30
0.0
 10
78.03787104470409
 20
-42.68496896120855
 30
0.0
 10
72.06775741908073
 20
-26.1948902299795
 30
0.0
 10
65.98402023798448
 20
-26.1948902299795
 30
0.0
 10
59.90028305688823
 20
-26.1948902299795
 30
0.0
 10
53.93016943126487
 20
-42.68494742936176
 30
0.0
 10
53.68929266130556
 20
-55.10242806454949
 30
0.0
 10
53.68929266130556
 20
-55.10242806454949
 30
0.0
 10
46.98722543614731
 20
-63.67225380703594
 30
0.0
 10
46.98722543614731
 20
-63.67225380703594
 30
0.0
 10
46.98722543614731
 20
-63.67225380703594
 30
0.0
 10
47.06241464511289
 20
-63.706252593106
 30
0.0
 10
47.06241464511289
 20
-63.706252593106
 30
0.0
 10
47.06241464511289
 20
-63.706252593106
 30
0.0
 10
55.74760802266164
 20
-71.8800430777162
 30
0.0
 10
55.74760802266164
 20
-71.8800430777162
 30
0.0
 10
55.74760802266164
 20
-71.8800430777162
 30
0.0
 10
56.10895547537078
 20
-67.77381223700013
 30
0.0
 10
56.10895547537078
 20
-67.77381223700013
 30
0.0
 10
56.10895547537078
 20
-67.77381223700013
 30
0.0
 10
60.08173192972698
 20
-64.37016555680721
 30
0.0
 10
60.08173192972698
 20
-64.37016555680721
 30
0.0
 10
60.08173192972698
 20
-64.37016555680721
 30
0.0
 10
60.0860107325251
 20
-64.87740157377921
 30
0.0
 10
60.09079963311585
 20
-65.0464100648341
 30
0.0
 10
60.09188182857304
 20
-65.08460259311991
 30
0.0
 10
60.09740711418487
 20
-65.1990985942519
 30
0.0
 10
60.09740711418487
 20
-65.1990985942519
 30
0.0
 10
60.13203032381163
 20
-66.55271967410012
 30
0.0
 10
63.3301770583094
 20
-67.64664514990085
 30
0.0
 10
65.98402023798448
 20
-67.64664514990085
 30
0.0
 10
68.65233281869762
 20
-67.64664514990085
 30
0.0
 10
71.87382007510796
 20
-66.54102788129704
 30
0.0
 10
71.87382007510796
 20
-65.17720070607376
 30
0.0
 10
71.87382007510796
 20
-65.12952919729662
 30
0.0
 10
71.87786714638074
 20
-65.07883552918163
 30
0.0
 10
71.8732426838598
 20
-65.03144268470764
 30
0.0
 10
71.85654484050953
 20
-64.86031830228214
 30
0.0
 10
71.85569026011683
 20
-64.34391823557897
 30
0.0
 10
71.85569026011683
 20
-64.34391823557897
 30
0.0
 10
71.85569026011683
 20
-64.34391823557897
 30
0.0
 10
75.85908500059818
 20
-67.77381223700013
 30
0.0
 10
75.85908500059818
 20
-67.77381223700013
 30
0.0
 10
75.85908500059818
 20
-67.77381223700013
 30
0.0
 10
76.22043245330732
 20
-71.8800430777162
 30
0.0
 10
76.22043245330732
 20
-71.8800430777162
 30
0.0
 10
76.22043245330732
 20
-71.8800430777162
 30
0.0
 10
84.90562583085608
 20
-63.706252593106
 30
0.0
 10
84.90562583085608
 20
-63.706252593106
 30
0.0
 10
84.90562583085608
 20
-63.706252593106
 30
0.0
 10
84.98081503982166
 20
-63.67225380703594
 30
0.0
 10
84.98081503982166
 20
-63.67225380703594
 30
0.0
 10
84.98081503982166
 20
-63.67225380703594
 30
0.0
 10
78.2787478146634
 20
-55.10242806454949
 30
0.0
 10
78.2787478146634
 20
-55.10242806454949
 30
0.0
  0
SPLINE
  5
52
330
1F
100
AcDbEntity
  8
Ebene 4
 62
   179
420
  1907995
370
    35
100
AcDbSpline
210
0.0
220
0.0
230
1.0
 70
    11
 71
     3
 72
    17
 73
    13
 74
     0
 42
0.0000000001
 43
0.0000000001
 12
1.0
 22
0.0
 32
0.0
 13
1.0
 23
0.0
 33
0.0
 40
0.0
 40
0.0
 40
0.0
 40
0.0
 40
1.0
 40
1.0
 40
1.0
 40
2.0
 40
2.0
 40
2.0
 40
3.0
 40
3.0
 40
3.0
 40
4.0
 40
4.0
 40
4.0
 40
4.0
 10
75.77160517490245
 20
-98.30945743907805
 30
0.0
 10
75.77160517490245
 20
-103.6942337482828
 30
0.0
 10
71.40638148654418
 20
-108.0594574366404
 30
0.0
 10
66.02160517734008
 20
-108.0594574366404
 30
0.0
 10
60.63682886813471
 20
-108.0594574366404
 30
0.0
 10
56.27160517977772
 20
-103.6942337482828
 30
0.0
 10
56.27160517977772
 20
-98.30945743907805
 30
0.0
 10
56.27160517977772
 20
-92.92468112987332
 30
0.0
 10
60.63682886813471
 20
-88.55945744151569
 30
0.0
 10
66.02160517734008
 20
-88.55945744151569
 30
0.0
 10
71.40638148654418
 20
-88.55945744151569
 30
0.0
 10
75.77160517490245
 20
-92.92468112987332
 30
0.0
 10
75.77160517490245
 20
-98.30945743907805
 30
0.0
  0
SPLINE
  5
53
330
1F
100
AcDbEntity
  8
Ebene 4
 62
   179
420
  1907995
370
    35
100
AcDbSpline
210
0.0
220
0.0
230
1.0
 70
    11
 71
     3
 72
    59
 73
    55
 74
     0
 42
0.0000000001
 43
0.0000000001
 12
1.0
 22
0.0
 32
0.0
 13
1.0
 23
0.0
 33
0.0
 40
0.0
 40
0.0
 40
0.0
 40
0.0
 40
1.0
 40
1.0
 40
1.0
 40
2.0
 40
2.0
 40
2.0
 40
3.0
 40
3.0
 40
3.0
 40
4.0
 40
4.0
 40
4.0
 40
5.0
 40
5.0
 40
5.0
 40
6.0
 40
6.0
 40
6.0
 40
7.0
 40
7.0
 40
7.0
 40
8.0
 40
8.0
 40
8.0
 40
9.0
 40
9.0
 40
9.0
 40
10.0
 40
10.0
 40
10.0
 40
11.0
 40
11.0
 40
11.0
 40
12.0
 40
12.0
 40
12.0
 40
13.0
 40
13.0
 40
13.0
 40
14.0
 40
14.0
 40
14.0
 40
15.0
 40
15.0
 40
15.0
 40
16.0
 40
16.0
 40
16.0
 40
17.0
 40
17.0
 40
17.0
 40
18.0
 40
18.0
 40
18.0
 40
18.0
 10
79.37473275372652
 20
-101.0505849572022
 30
0.0
 10
79.1338559837672
 20
-88.63312585386122
 30
0.0
 10
72.10534235843633
 20
-72.14304712263217
 30
0.0
 10
66.02160517734008
 20
-72.14304712263217
 30
0.0
 10
59.93786799624383
 20
-72.14304712263217
 30
0.0
 10
52.90935437091296
 20
-88.6331043220141
 30
0.0
 10
52.66847760095365
 20
-101.0505849572022
 30
0.0
 10
52.66847760095365
 20
-101.0505849572022
 30
0.0
 10
45.96641037579572
 20
-109.6204106996886
 30
0.0
 10
45.96641037579572
 20
-109.6204106996886
 30
0.0
 10
45.96641037579572
 20
-109.6204106996886
 30
0.0
 10
46.0415995847613
 20
-109.6544094857587
 30
0.0
 10
46.0415995847613
 20
-109.6544094857587
 30
0.0
 10
46.0415995847613
 20
-109.6544094857587
 30
0.0
 10
54.72679296230974
 20
-117.8281999703689
 30
0.0
 10
54.72679296230974
 20
-117.8281999703689
 30
0.0
 10
54.72679296230974
 20
-117.8281999703689
 30
0.0
 10
55.08814041501888
 20
-113.7219691296528
 30
0.0
 10
55.08814041501888
 20
-113.7219691296528
 30
0.0
 10
55.08814041501888
 20
-113.7219691296528
 30
0.0
 10
59.06091686937508
 20
-110.3183224494599
 30
0.0
 10
59.06091686937508
 20
-110.3183224494599
 30
0.0
 10
59.06091686937508
 20
-110.3183224494599
 30
0.0
 10
59.06519567217319
 20
-110.8255584664316
 30
0.0
 10
59.06998457276362
 20
-110.9945669574868
 30
0.0
 10
59.07106676822113
 20
-111.0327594857726
 30
0.0
 10
59.07659205383296
 20
-111.1472554869046
 30
0.0
 10
59.07659205383296
 20
-111.1472554869046
 30
0.0
 10
59.11121526345972
 20
-112.5008765667528
 30
0.0
 10
63.367761997665
 20
-113.5948020425538
 30
0.0
 10
66.02160517734008
 20
-113.5948020425538
 30
0.0
 10
68.68991775805321
 20
-113.5948020425538
 30
0.0
 10
72.96980501417106
 20
-112.48918477395
 30
0.0
 10
72.96980501417106
 20
-111.1253575987268
 30
0.0
 10
72.96980501417106
 20
-111.0776860899493
 30
0.0
 10
72.97385208544353
 20
-111.0269924218343
 30
0.0
 10
72.96922762292259
 20
-110.9795995773603
 30
0.0
 10
72.95252977957263
 20
-110.8084751949348
 30
0.0
 10
72.95167519917993
 20
-110.292075128232
 30
0.0
 10
72.95167519917993
 20
-110.292075128232
 30
0.0
 10
72.95167519917993
 20
-110.292075128232
 30
0.0
 10
76.95506993966129
 20
-113.7219691296528
 30
0.0
 10
76.95506993966129
 20
-113.7219691296528
 30
0.0
 10
76.95506993966129
 20
-113.7219691296528
 30
0.0
 10
77.31641739237075
 20
-117.8281999703689
 30
0.0
 10
77.31641739237075
 20
-117.8281999703689
 30
0.0
 10
77.31641739237075
 20
-117.8281999703689
 30
0.0
 10
86.00161076991918
 20
-109.6544094857587
 30
0.0
 10
86.00161076991918
 20
-109.6544094857587
 30
0.0
 10
86.00161076991918
 20
-109.6544094857587
 30
0.0
 10
86.07679997888476
 20
-109.6204106996886
 30
0.0
 10
86.07679997888476
 20
-109.6204106996886
 30
0.0
 10
86.07679997888476
 20
-109.6204106996886
 30
0.0
 10
79.37473275372652
 20
-101.0505849572022
 30
0.0
 10
79.37473275372652
 20
-101.0505849572022
 30
0.0
  0
ENDSEC
  0
SECTION
  2
OBJECTS
  0
DICTIONARY
  5
C
330
0
100
AcDbDictionary
281
     1
  3
ACAD_GROUP
350
D
  3
ACAD_LAYOUT
350
1A
  3
ACAD_MATERIAL
350
3B
  3
ACAD_MLEADERSTYLE
350
55
  3
ACAD_MLINESTYLE
350
17
  3
ACAD_PLOTSETTINGS
350
19
  3
ACAD_PLOTSTYLENAME
350
E
  3
ACAD_TABLESTYLE
350
54
  3
ACAD_VISUALSTYLE
350
2A
  0
SUN
  5
3F
330
29
100
AcDbSun
 90
        1
290
     0
 63
     7
421
 16777215
 40
1.0
291
     1
 91
  2455826
 92
 54000000
292
     0
 70
     2
 71
   256
280
     1
  0
DICTIONARY
  5
D
102
{ACAD_REACTORS
330
C
102
}
330
C
100
AcDbDictionary
281
     1
  0
DICTIONARY
  5
1A
102
{ACAD_REACTORS
330
C
102
}
330
C
100
AcDbDictionary
281
     1
  3
Layout1
350
1E
  3
Layout2
350
26
  3
Model
350
22
  0
DICTIONARY
  5
3B
102
{ACAD_REACTORS
330
C
102
}
330
C
100
AcDbDictionary
281
     1
  3
ByBlock
350
3D
  3
ByLayer
350
3C
  3
Global
350
3E
  0
DICTIONARY
  5
55
102
{ACAD_REACTORS
330
C
102
}
330
C
100
AcDbDictionary
281
     1
  0
DICTIONARY
  5
17
102
{ACAD_REACTORS
330
C
102
}
330
C
100
AcDbDictionary
281
     1
  3
Standard
350
18
  0
DICTIONARY
  5
19
102
{ACAD_REACTORS
330
C
102
}
330
C
100
AcDbDictionary
281
     1
  0
ACDBDICTIONARYWDFLT
  5
E
102
{ACAD_REACTORS
330
C
102
}
330
C
100
AcDbDictionary
281
     1
  3
Normal
350
F
100
AcDbDictionaryWithDefault
340
F
  0
DICTIONARY
  5
54
102
{ACAD_REACTORS
330
C
102
}
330
C
100
AcDbDictionary
281
     1
  0
DICTIONARY
  5
2A
102
{ACAD_REACTORS
330
C
102
}
330
C
100
AcDbDictionary
281
     1
  3
2dWireframe
350
2F
  3
3D Hidden
350
31
  3
3dWireframe
350
30
  3
Basic
350
32
  3
Brighten
350
36
  3
ColorChange
350
3A
  3
Conceptual
350
34
  3
Dim
350
35
  3
Facepattern
350
39
  3
Flat
350
2B
  3
FlatWithEdges
350
2C
  3
Gouraud
350
2D
  3
GouraudWithEdges
350
2E
  3
Linepattern
350
38
  3
Realistic
350
33
  3
Thicken
350
37
  0
LAYOUT
  5
1E
102
{ACAD_REACTORS
330
1A
102
}
330
1A
100
AcDbPlotSettings
  1

  2
none_device
  4

  6

 40
0.0
 41
0.0
 42
0.0
 43
0.0
 44
0.0
 45
0.0
 46
0.0
 47
0.0
 48
0.0
 49
0.0
140
0.0
141
0.0
142
1.0
143
1.0
 70
   688
 72
     0
 73
     0
 74
     5
  7

 75
    16
 76
     0
 77
     2
 78
   300
147
1.0
148
0.0
149
0.0
100
AcDbLayout
  1
Layout1
 70
     1
 71
     1
 10
0.0
 20
0.0
 11
12.0
 21
9.0
 12
0.0
 22
0.0
 32
0.0
 14
1.000000000000000E+20
 24
1.000000000000000E+20
 34
1.000000000000000E+20
 15
-1.000000000000000E+20
 25
-1.000000000000000E+20
 35
-1.000000000000000E+20
146
0.0
 13
0.0
 23
0.0
 33
0.0
 16
1.0
 26
0.0
 36
0.0
 17
0.0
 27
1.0
 37
0.0
 76
     0
330
1B
  0
LAYOUT
  5
26
102
{ACAD_REACTORS
330
1A
102
}
330
1A
100
AcDbPlotSettings
  1

  2
none_device
  4

  6

 40
0.0
 41
0.0
 42
0.0
 43
0.0
 44
0.0
 45
0.0
 46
0.0
 47
0.0
 48
0.0
 49
0.0
140
0.0
141
0.0
142
1.0
143
1.0
 70
   688
 72
     0
 73
     0
 74
     5
  7

 75
    16
 76
     0
 77
     2
 78
   300
147
1.0
148
0.0
149
0.0
100
AcDbLayout
  1
Layout2
 70
     1
 71
     2
 10
0.0
 20
0.0
 11
0.0
 21
0.0
 12
0.0
 22
0.0
 32
0.0
 14
0.0
 24
0.0
 34
0.0
 15
0.0
 25
0.0
 35
0.0
146
0.0
 13
0.0
 23
0.0
 33
0.0
 16
1.0
 26
0.0
 36
0.0
 17
0.0
 27
1.0
 37
0.0
 76
     0
330
23
  0
LAYOUT
  5
22
102
{ACAD_REACTORS
330
1A
102
}
330
1A
100
AcDbPlotSettings
  1

  2
none_device
  4

  6

 40
0.0
 41
0.0
 42
0.0
 43
0.0
 44
0.0
 45
0.0
 46
0.0
 47
0.0
 48
0.0
 49
0.0
140
0.0
141
0.0
142
1.0
143
1.0
 70
  1712
 72
     0
 73
     0
 74
     0
  7

 75
     0
 76
     0
 77
     2
 78
   300
147
1.0
148
0.0
149
0.0
100
AcDbLayout
  1
Model
 70
     1
 71
     0
 10
0.0
 20
0.0
 11
12.0
 21
9.0
 12
0.0
 22
0.0
 32
0.0
 14
1.000000000000000E+20
 24
1.000000000000000E+20
 34
1.000000000000000E+20
 15
-1.000000000000000E+20
 25
-1.000000000000000E+20
 35
-1.000000000000000E+20
146
0.0
 13
0.0
 23
0.0
 33
0.0
 16
1.0
 26
0.0
 36
0.0
 17
0.0
 27
1.0
 37
0.0
 76
     0
330
1F
331
29
  0
MATERIAL
  5
3D
102
{ACAD_REACTORS
330
3B
102
}
330
3B
100
AcDbMaterial
  1
ByBlock
 72
     1
 94
      127
  0
MATERIAL
  5
3C
102
{ACAD_REACTORS
330
3B
102
}
330
3B
100
AcDbMaterial
  1
ByLayer
 72
     1
 94
      127
  0
MATERIAL
  5
3E
102
{ACAD_REACTORS
330
3B
102
}
330
3B
100
AcDbMaterial
  1
Global
 72
     1
 94
      127
  0
MLINESTYLE
  5
18
102
{ACAD_REACTORS
330
17
102
}
330
17
100
AcDbMlineStyle
  2
Standard
 70
     0
  3

 62
   256
 51
90.0
 52
90.0
 71
     2
 49
0.5
 62
   256
  6
BYLAYER
 49
-0.5
 62
   256
  6
BYLAYER
  0
ACDBPLACEHOLDER
  5
F
102
{ACAD_REACTORS
330
E
102
}
330
E
  0
VISUALSTYLE
  5
2F
102
{ACAD_REACTORS
330
2A
102
}
330
2A
100
AcDbVisualStyle
  2
2dWireframe
 70
     4
177
     2
291
     0
 71
     0
176
     1
 72
     2
176
     1
 73
     0
176
     1
 90
        0
176
     1
 40
-0.6
176
     1
 41
-30.0
176
     1
 62
     5
 63
     7
421
 16777215
176
     1
 74
     1
176
     1
 91
        4
176
     1
 64
     7
176
     1
 65
   257
176
     1
 75
     1
176
     1
175
     1
176
     1
 42
1.0
176
     1
 92
        0
176
     1
 66
   257
176
     1
 43
1.0
176
     1
 76
     1
176
     1
 77
     6
176
     1
 78
     2
176
     1
 67
     7
176
     1
 79
     5
176
     1
170
     0
176
     1
171
     0
176
     1
290
     0
176
     1
 93
        1
176
     1
 44
0.0
176
     1
173
     0
176
     1
  0
VISUALSTYLE
  5
31
102
{ACAD_REACTORS
330
2A
102
}
330
2A
100
AcDbVisualStyle
  2
3D Hidden
 70
     6
177
     2
291
     0
 71
     1
176
     1
 72
     2
176
     1
 73
     2
176
     1
 90
        0
176
     1
 40
-0.6
176
     1
 41
-30.0
176
     1
 62
     5
 63
     7
421
 16777215
176
     1
 74
     2
176
     1
 91
        2
176
     1
 64
     7
176
     1
 65
   257
176
     1
 75
     2
176
     1
175
     1
176
     1
 42
40.0
176
     1
 92
        0
176
     1
 66
   257
176
     1
 43
1.0
176
     1
 76
     1
176
     1
 77
     6
176
     1
 78
     2
176
     1
 67
     7
176
     1
 79
     3
176
     1
170
     0
176
     1
171
     0
176
     1
290
     0
176
     1
 93
        1
176
     1
 44
0.0
176
     1
173
     0
176
     1
  0
VISUALSTYLE
  5
30
102
{ACAD_REACTORS
330
2A
102
}
330
2A
100
AcDbVisualStyle
  2
3dWireframe
 70
     5
177
     2
291
     0
 71
     0
176
     1
 72
     2
176
     1
 73
     0
176
     1
 90
        0
176
     1
 40
-0.6
176
     1
 41
-30.0
176
     1
 62
     5
 63
     7
421
 16777215
176
     1
 74
     1
176
     1
 91
        4
176
     1
 64
     7
176
     1
 65
   257
176
     1
 75
     1
176
     1
175
     1
176
     1
 42
1.0
176
     1
 92
        0
176
     1
 66
   257
176
     1
 43
1.0
176
     1
 76
     1
176
     1
 77
     6
176
     1
 78
     2
176
     1
 67
     7
176
     1
 79
     5
176
     1
170
     0
176
     1
171
     0
176
     1
290
     0
176
     1
 93
        1
176
     1
 44
0.0
176
     1
173
     0
176
     1
  0
VISUALSTYLE
  5
32
102
{ACAD_REACTORS
330
2A
102
}
330
2A
100
AcDbVisualStyle
  2
Basic
 70
     7
177
     2
291
     1
 71
     1
176
     1
 72
     0
176
     1
 73
     1
176
     1
 90
        0
176
     1
 40
-0.6
176
     1
 41
-30.0
176
     1
 62
     5
 63
     7
421
 16777215
176
     1
 74
     0
176
     1
 91
        4
176
     1
 64
     7
176
     1
 65
   257
176
     1
 75
     1
176
     1
175
     1
176
     1
 42
1.0
176
     1
 92
        8
176
     1
 66
     7
176
     1
 43
1.0
176
     1
 76
     1
176
     1
 77
     6
176
     1
 78
     2
176
     1
 67
     7
176
     1
 79
     5
176
     1
170
     0
176
     1
171
     0
176
     1
290
     0
176
     1
 93
        1
176
     1
 44
0.0
176
     1
173
     0
176
     1
  0
VISUALSTYLE
  5
36
102
{ACAD_REACTORS
330
2A
102
}
330
2A
100
AcDbVisualStyle
  2
Brighten
 70
    12
177
     2
291
     1
 71
     2
176
     1
 72
     2
176
     1
 73
     0
176
     1
 90
        0
176
     1
 40
-0.6
176
     1
 41
-30.0
176
     1
 62
     5
 63
     7
421
 16777215
176
     1
 74
     1
176
     1
 91
        4
176
     1
 64
     7
176
     1
 65
   257
176
     1
 75
     1
176
     1
175
     1
176
     1
 42
1.0
176
     1
 92
        8
176
     1
 66
     7
176
     1
 43
1.0
176
     1
 76
     1
176
     1
 77
     6
176
     1
 78
     2
176
     1
 67
     7
176
     1
 79
     5
176
     1
170
     0
176
     1
171
     0
176
     1
290
     0
176
     1
 93
        1
176
     1
 44
50.0
176
     1
173
     0
176
     1
  0
VISUALSTYLE
  5
3A
102
{ACAD_REACTORS
330
2A
102
}
330
2A
100
AcDbVisualStyle
  2
ColorChange
 70
    16
177
     2
291
     1
 71
     2
176
     1
 72
     2
176
     1
 73
     3
176
     1
 90
        0
176
     1
 40
-0.6
176
     1
 41
-30.0
176
     1
 62
     5
 63
     8
421
  8421504
176
     1
 74
     1
176
     1
 91
        4
176
     1
 64
     7
176
     1
 65
   257
176
     1
 75
     1
176
     1
175
     1
176
     1
 42
1.0
176
     1
 92
        8
176
     1
 66
     8
424
  8421504
176
     1
 43
1.0
176
     1
 76
     1
176
     1
 77
     6
176
     1
 78
     2
176
     1
 67
     7
176
     1
 79
     5
176
     1
170
     0
176
     1
171
     0
176
     1
290
     0
176
     1
 93
        1
176
     1
 44
0.0
176
     1
173
     0
176
     1
  0
VISUALSTYLE
  5
34
102
{ACAD_REACTORS
330
2A
102
}
330
2A
100
AcDbVisualStyle
  2
Conceptual
 70
     9
177
     2
291
     0
 71
     3
176
     1
 72
     2
176
     1
 73
     0
176
     1
 90
        0
176
     1
 40
-0.6
176
     1
 41
-30.0
176
     1
 62
     5
 63
     7
421
 16777215
176
     1
 74
     2
176
     1
 91
        2
176
     1
 64
     7
176
     1
 65
   257
176
     1
 75
     1
176
     1
175
     1
176
     1
 42
40.0
176
     1
 92
        8
176
     1
 66
     7
176
     1
 43
1.0
176
     1
 76
     1
176
     1
 77
     6
176
     1
 78
     2
176
     1
 67
     7
176
     1
 79
     3
176
     1
170
     0
176
     1
171
     0
176
     1
290
     0
176
     1
 93
        1
176
     1
 44
0.0
176
     1
173
     0
176
     1
  0
VISUALSTYLE
  5
35
102
{ACAD_REACTORS
330
2A
102
}
330
2A
100
AcDbVisualStyle
  2
Dim
 70
    11
177
     2
291
     1
 71
     2
176
     1
 72
     2
176
     1
 73
     0
176
     1
 90
        0
176
     1
 40
-0.6
176
     1
 41
-30.0
176
     1
 62
     5
 63
     7
421
 16777215
176
     1
 74
     1
176
     1
 91
        4
176
     1
 64
     7
176
     1
 65
   257
176
     1
 75
     1
176
     1
175
     1
176
     1
 42
1.0
176
     1
 92
        8
176
     1
 66
     7
176
     1
 43
1.0
176
     1
 76
     1
176
     1
 77
     6
176
     1
 78
     2
176
     1
 67
     7
176
     1
 79
     5
176
     1
170
     0
176
     1
171
     0
176
     1
290
     0
176
     1
 93
        1
176
     1
 44
-50.0
176
     1
173
     0
176
     1
  0
VISUALSTYLE
  5
39
102
{ACAD_REACTORS
330
2A
102
}
330
2A
100
AcDbVisualStyle
  2
Facepattern
 70
    15
177
     2
291
     1
 71
     2
176
     1
 72
     2
176
     1
 73
     0
176
     1
 90
        0
176
     1
 40
-0.6
176
     1
 41
-30.0
176
     1
 62
     5
 63
     7
421
 16777215
176
     1
 74
     1
176
     1
 91
        4
176
     1
 64
     7
176
     1
 65
   257
176
     1
 75
     1
176
     1
175
     1
176
     1
 42
1.0
176
     1
 92
        8
176
     1
 66
     7
176
     1
 43
1.0
176
     1
 76
     1
176
     1
 77
     6
176
     1
 78
     2
176
     1
 67
     7
176
     1
 79
     5
176
     1
170
     0
176
     1
171
     0
176
     1
290
     0
176
     1
 93
        1
176
     1
 44
0.0
176
     1
173
     0
176
     1
  0
VISUALSTYLE
  5
2B
102
{ACAD_REACTORS
330
2A
102
}
330
2A
100
AcDbVisualStyle
  2
Flat
 70
     0
177
     2
291
     1
 71
     2
176
     1
 72
     1
176
     1
 73
     1
176
     1
 90
        2
176
     1
 40
-0.6
176
     1
 41
30.0
176
     1
 62
     5
 63
     7
421
 16777215
176
     1
 74
     0
176
     1
 91
        4
176
     1
 64
     7
176
     1
 65
   257
176
     1
 75
     1
176
     1
175
     1
176
     1
 42
1.0
176
     1
 92
        8
176
     1
 66
     7
176
     1
 43
1.0
176
     1
 76
     1
176
     1
 77
     6
176
     1
 78
     2
176
     1
 67
     7
176
     1
 79
     5
176
     1
170
     0
176
     1
171
     0
176
     1
290
     0
176
     1
 93
       13
176
     1
 44
0.0
176
     1
173
     0
176
     1
  0
VISUALSTYLE
  5
2C
102
{ACAD_REACTORS
330
2A
102
}
330
2A
100
AcDbVisualStyle
  2
FlatWithEdges
 70
     1
177
     2
291
     1
 71
     2
176
     1
 72
     1
176
     1
 73
     1
176
     1
 90
        2
176
     1
 40
-0.6
176
     1
 41
30.0
176
     1
 62
     5
 63
     7
421
 16777215
176
     1
 74
     1
176
     1
 91
        4
176
     1
 64
     7
176
     1
 65
   257
176
     1
 75
     1
176
     1
175
     1
176
     1
 42
1.0
176
     1
 92
        0
176
     1
 66
   257
176
     1
 43
1.0
176
     1
 76
     1
176
     1
 77
     6
176
     1
 78
     2
176
     1
 67
     7
176
     1
 79
     5
176
     1
170
     0
176
     1
171
     0
176
     1
290
     0
176
     1
 93
       13
176
     1
 44
0.0
176
     1
173
     0
176
     1
  0
VISUALSTYLE
  5
2D
102
{ACAD_REACTORS
330
2A
102
}
330
2A
100
AcDbVisualStyle
  2
Gouraud
 70
     2
177
     2
291
     1
 71
     2
176
     1
 72
     2
176
     1
 73
     1
176
     1
 90
        2
176
     1
 40
-0.6
176
     1
 41
30.0
176
     1
 62
     5
 63
     7
421
 16777215
176
     1
 74
     0
176
     1
 91
        4
176
     1
 64
     7
176
     1
 65
   257
176
     1
 75
     1
176
     1
175
     1
176
     1
 42
1.0
176
     1
 92
        0
176
     1
 66
     7
176
     1
 43
1.0
176
     1
 76
     1
176
     1
 77
     6
176
     1
 78
     2
176
     1
 67
     7
176
     1
 79
     5
176
     1
170
     0
176
     1
171
     0
176
     1
290
     0
176
     1
 93
       13
176
     1
 44
0.0
176
     1
173
     0
176
     1
  0
VISUALSTYLE
  5
2E
102
{ACAD_REACTORS
330
2A
102
}
330
2A
100
AcDbVisualStyle
  2
GouraudWithEdges
 70
     3
177
     2
291
     1
 71
     2
176
     1
 72
     2
176
     1
 73
     1
176
     1
 90
        2
176
     1
 40
-0.6
176
     1
 41
30.0
176
     1
 62
     5
 63
     7
421
 16777215
176
     1
 74
     1
176
     1
 91
        4
176
     1
 64
     7
176
     1
 65
   257
176
     1
 75
     1
176
     1
175
     1
176
     1
 42
1.0
176
     1
 92
        0
176
     1
 66
   257
176
     1
 43
1.0
176
     1
 76
     1
176
     1
 77
     6
176
     1
 78
     2
176
     1
 67
     7
176
     1
 79
     5
176
     1
170
     0
176
     1
171
     0
176
     1
290
     0
176
     1
 93
       13
176
     1
 44
0.0
176
     1
173
     0
176
     1
  0
VISUALSTYLE
  5
38
102
{ACAD_REACTORS
330
2A
102
}
330
2A
100
AcDbVisualStyle
  2
Linepattern
 70
    14
177
     2
291
     1
 71
     2
176
     1
 72
     2
176
     1
 73
     0
176
     1
 90
        0
176
     1
 40
-0.6
176
     1
 41
-30.0
176
     1
 62
     5
 63
     7
421
 16777215
176
     1
 74
     1
176
     1
 91
        4
176
     1
 64
     7
176
     1
 65
   257
176
     1
 75
     7
176
     1
175
     7
176
     1
 42
1.0
176
     1
 92
        8
176
     1
 66
     7
176
     1
 43
1.0
176
     1
 76
     1
176
     1
 77
     6
176
     1
 78
     2
176
     1
 67
     7
176
     1
 79
     5
176
     1
170
     0
176
     1
171
     0
176
     1
290
     0
176
     1
 93
        1
176
     1
 44
0.0
176
     1
173
     0
176
     1
  0
VISUALSTYLE
  5
33
102
{ACAD_REACTORS
330
2A
102
}
330
2A
100
AcDbVisualStyle
  2
Realistic
 70
     8
177
     2
291
     0
 71
     2
176
     1
 72
     2
176
     1
 73
     0
176
     1
 90
        0
176
     1
 40
-0.6
176
     1
 41
-30.0
176
     1
 62
     5
 63
     7
421
 16777215
176
     1
 74
     1
176
     1
 91
        0
176
     1
 64
     7
176
     1
 65
   257
176
     1
 75
     1
176
     1
175
     1
176
     1
 42
1.0
176
     1
 92
        8
176
     1
 66
     8
424
  7895160
176
     1
 43
1.0
176
     1
 76
     1
176
     1
 77
     6
176
     1
 78
     2
176
     1
 67
     7
176
     1
 79
     5
176
     1
170
     0
176
     1
171
     0
176
     1
290
     0
176
     1
 93
       13
176
     1
 44
0.0
176
     1
173
     0
176
     1
  0
VISUALSTYLE
  5
37
102
{ACAD_REACTORS
330
2A
102
}
330
2A
100
AcDbVisualStyle
  2
Thicken
 70
    13
177
     2
291
     1
 71
     2
176
     1
 72
     2
176
     1
 73
     0
176
     1
 90
        0
176
     1
 40
-0.6
176
     1
 41
-30.0
176
     1
 62
     5
 63
     7
421
 16777215
176
     1
 74
     1
176
     1
 91
        4
176
     1
 64
     7
176
     1
 65
   257
176
     1
 75
     1
176
     1
175
     1
176
     1
 42
1.0
176
     1
 92
       12
176
     1
 66
     7
176
     1
 43
1.0
176
     1
 76
     1
176
     1
 77
     6
176
     1
 78
     2
176
     1
 67
     7
176
     1
 79
     5
176
     1
170
     0
176
     1
171
     0
176
     1
290
     0
176
     1
 93
        1
176
     1
 44
0.0
176
     1
173
     0
176
     1
  0
ENDSEC
  0
EOF
