<?xml version="1.0" encoding="utf-8"?>
<!-- Generator: Adobe Illustrator 21.0.0, SVG Export Plug-In . SVG Version: 6.00 Build 0)  -->
<svg version="1.1" id="Ebene_1" xmlns="http://www.w3.org/2000/svg" xmlns:xlink="http://www.w3.org/1999/xlink" x="0px" y="0px"
	 viewBox="0 0 352.9 369.6" style="enable-background:new 0 0 352.9 369.6;" xml:space="preserve">
<style type="text/css">
	.st0{fill:none;}
</style>
<title>rockets</title>
<g id="Ebene_1_1_">
	<path class="st0" d="M108,143.6L108,143.6l-15.7-25.7c0,0-2.5-31.1-8.1-43.3c-4.8-10.4-28.7-37.2-28.7-37.2s-24,26.8-28.8,37.2
		c-5.6,12.2-8,43.5-8,43.5L3.2,143.6l0,0H3.1l4,35.8l10.3-1.4v-7.3L37.2,158H74l19.8,12.7v7.3l10.3,1.4L108,143.6L108,143.6z"/>
	<circle class="st0" cx="55.6" cy="123.2" r="27.6"/>
	<path class="st0" d="M111.4,284L111.4,284l-15.7-25.7c0,0-2.5-31.1-8.1-43.2C82.9,204.7,56,177.9,56,177.9s-27,26.8-31.8,37.2
		c-5.6,12.2-8.1,43.5-8.1,43.5L0.6,284l0,0H0.6l4,35.8l10.3-1.3v-7.3l19.8-12.7h42.8l19.8,12.7v7.3l10.3,1.4L111.4,284L111.4,284z"
		/>
	<circle class="st0" cx="56" cy="261.5" r="27.6"/>
</g>
<g id="Ebene_2">
	<path class="st0" d="M339.2,282.2c-1.7-20.5-2.8-42.9-10-42.9c-4,0-6,6.9-8.5,16.6l-7.5-11.5c-4.4-33.6-21.8-65.6-33.6-65.6
		s-29.4,32.5-33.7,66.3l-7.3,11.3c-2.5-9.5-4.5-14-8.6-14c-7.2,0-7.2,19.2-9,39.6L208,300.1l13.3,8.5l3-4.1l15.7,0.1l2.9,4l13.3-8.5
		l-3.7-5.1l3.1-3.1l5.7,6.5v4.5h36.5v-4.6l5.9-7.1l3,3l-4.3,6l13.3,8.4l3.3-4.6l17,0.6l2.9,4l13.3-8.5L339.2,282.2z M280.1,287.4
		c-15.3,0-27.6-12.4-27.6-27.6s12.4-27.6,27.6-27.6s27.6,12.4,27.6,27.6S295.4,287.4,280.1,287.4L280.1,287.4L280.1,287.4z"/>
</g>
<g id="Ebene_3">
	<path class="st0" d="M341.9,126.1c-0.6,0-1.2,0.1-1.8,0.2c-4.3-9.9-16.9-18.2-33.8-22.9c-4.4-17.6-22.3-28.3-39.9-23.9
		c-11.8,3-20.9,12.1-23.9,23.9c-17,4.7-29.6,13-33.8,22.9c-4.3-1-8.7,1.7-9.6,6c-1,4.3,1.7,8.7,6,9.6c1.3,0.3,2.6,0.3,3.9-0.1
		c7.1,15.1,33.7,26.3,65.4,26.3s58.2-11.2,65.4-26.3c4.3,0.9,8.6-1.9,9.5-6.2s-1.9-8.6-6.2-9.5C342.6,126.2,342.3,126.1,341.9,126.1
		L341.9,126.1z M225,141.7c-4.4,0-8-3.6-8-8s3.6-8,8-8s8,3.6,8,8S229.5,141.7,225,141.7z M300.2,141.1
		c-5.3,14.3-21.1,21.7-35.5,16.4c-7.7-2.8-13.8-9-16.5-16.7c-3.9-2.1-5.3-7-3.2-10.8c0.5-0.9,1.1-1.7,1.9-2.4
		c2.2-15.1,16.2-25.6,31.3-23.4c12,1.7,21.5,11.1,23.4,23c3.6,2.5,4.5,7.5,2,11.1C302.8,139.6,301.6,140.5,300.2,141.1L300.2,141.1z
		 M324,141.7c-4.4,0-8-3.6-8-8s3.6-8,8-8s8,3.6,8,8S328.5,141.7,324,141.7z"/>
	<path class="st0" d="M254.3,58.4c-2.6-13.7-15.6-25.5-34.3-32.7C213.3,11,197.1,0.5,178.3,0.5s-35,10.5-41.7,25.3
		c-18.1,6.9-30.9,18.3-34,31.4c-3.7,0.5-6.3,4-5.8,7.7c0.5,3.7,4,6.3,7.7,5.8c0.6-0.1,1.2-0.3,1.8-0.5c2.8,2.4,5.9,4.4,9.2,6.1
		c-0.8,3.7,1.6,7.3,5.3,8.1c2.6,0.5,5.3-0.5,6.9-2.7c5.1,1.9,10.3,3.4,15.6,4.7c0.1,3.8,3.2,6.7,7,6.6c2.7-0.1,5-1.7,6.1-4.1
		c7.3,1.1,14.6,1.6,22,1.6c7.1,0,14.2-0.5,21.2-1.5c1.3,3.5,5.2,5.4,8.7,4.1c2.7-1,4.5-3.5,4.5-6.4c0,0,0-0.1,0-0.1
		c5.1-1.2,10.1-2.6,15-4.4c2.3,3,6.6,3.5,9.5,1.2c1.9-1.5,2.9-3.9,2.6-6.3c3.5-1.7,6.7-3.8,9.8-6.1c3.2,2.1,7.4,1.2,9.4-2
		c2.1-3.2,1.2-7.4-2-9.4C256.2,58.9,255.3,58.6,254.3,58.4L254.3,58.4z M178.4,79.8c-15.3,0-27.6-12.4-27.6-27.6
		s12.4-27.6,27.6-27.6S206,36.9,206,52.2S193.7,79.8,178.4,79.8L178.4,79.8z"/>
</g>
<circle class="st0" cx="163.8" cy="186.5" r="27.6"/>
<path class="st0" d="M198.6,190.7c-0.7-35.2-17.6-81.9-34.8-81.9s-34.2,46.7-34.9,81.9l-19,24.3l0.2,0.1l24.6,23.2l1-11.6L147,217
	c0,0,0,1.4,0,1.9c0,0.1,0,0.4,0,0.4c0.1,3.8,9.2,6.9,16.7,6.9s16.7-3.1,16.7-7c0-0.1,0-0.3,0-0.4c0-0.5,0-1.9,0-1.9l11.4,9.7l1,11.6
	l24.6-23.2l0.2-0.1L198.6,190.7z"/>
<circle class="st0" cx="163.9" cy="313.2" r="27.6"/>
<path class="st0" d="M201.8,320.9c-0.7-35.2-20.6-81.9-37.9-81.9s-37.2,46.7-37.9,81.9l-19,24.3l0.2,0.1l24.6,23.2l1-11.6l11.3-9.6
	c0,0,0,1.4,0,1.9c0,0.1,0,0.4,0,0.4c0.1,3.8,12.2,6.9,19.7,6.9s19.7-3.1,19.7-7c0-0.1,0-0.3,0-0.4c0-0.5,0-2,0-2l11.4,9.7l1,11.6
	l24.6-23.2l0.2-0.1L201.8,320.9z"/>
</svg>
